<?xml version="1.0" standalone="no"?>
<!DOCTYPE svg PUBLIC "-//W3C//DTD SVG 1.1//EN" "http://www.w3.org/Graphics/SVG/1.1/DTD/svg11.dtd" >
<svg xmlns="http://www.w3.org/2000/svg" xmlns:xlink="http://www.w3.org/1999/xlink" version="1.1">
<metadata></metadata>
<defs>
<font id="cardoregular" horiz-adv-x="0" >
<font-face units-per-em="2048" ascent="1638" descent="-410" />
<missing-glyph horiz-adv-x="550" />
<glyph unicode="fj" horiz-adv-x="1068" d="M617 16q0 -16 -18 -16h-549q-10 2 -10 14q0 18 47 24q108 16 108 114v606q0 11 -12 11h-109q-12 0 -23 7.5t-11 20t12 19.5q17 10 80 27t63 56v33q0 360 156 554q87 109 265 168q54 18 107 18t124 -27.5t71 -66.5q0 -8 -2.5 -14t-5.5 -15l-41 -88q-8 -16 -19 -16 q-3 0 -43 31.5t-84.5 58t-104.5 26.5q-117 0 -177 -60t-75 -135.5t-15 -166.5v-291q0 -8 10 -8h486q64 0 67 -66q1 -19 1 -39v-922q0 -160 -66 -291q-23 -45 -55 -82q-88 -118 -232 -134q-48 -6 -101.5 -6t-106.5 40.5t-57 87.5q0 54 53 80q17 8 30 8q23 0 138 -88 q41 -31 135 -31q106 25 106 226v998q0 67 -87 83q-24 5 -46 5h-262q-13 0 -13 -10v-587q0 -143 248 -143q18 -2 18 -13z" />
<glyph unicode="ff" horiz-adv-x="1230" d="M617 16q0 -16 -18 -16h-549q-10 2 -10 14q0 18 47 24q108 16 108 114v606q0 11 -12 11h-109q-12 0 -23 7.5t-11 20t12 19.5q17 10 80 27t63 56q12 488 307 637q132 66 234 66q43 0 95 -22q106 -43 127 -93q63 75 136 112q146 73 217 73t142 -27.5t71 -66.5q0 -8 -2.5 -14 t-5.5 -15l-41 -88q-8 -16 -19 -16q-3 0 -43 31.5t-84.5 58t-104.5 26.5q-117 0 -177 -60t-75 -135.5t-15 -166.5v-291q0 -8 10 -8h195q28 0 36.5 -5.5t16.5 -36t8 -56t-5 -29.5t-21 -4h-227q-13 0 -13 -10v-587q0 -143 248 -143q18 -2 18 -13q0 -16 -18 -16h-549 q-10 2 -10 14q0 18 47 24q108 16 108 114v606q0 11 -12 11h-425q-13 0 -13 -10v-587q0 -143 248 -143q18 -2 18 -13zM351 908q0 -8 10 -8h440v32q0 252 74 419q-53 53 -122 96.5t-133 43.5q-119 0 -179 -60t-75 -135.5t-15 -166.5v-221z" />
<glyph unicode="fi" horiz-adv-x="1153" d="M801 660q0 109 -109 109h-328q-13 0 -13 -10v-587q0 -143 248 -143q18 -2 18 -13q0 -16 -18 -16h-549q-10 2 -10 14q0 18 47 24q108 16 108 114v606q0 11 -12 11h-109q-12 0 -23 7.5t-11 20t12 19.5q17 10 80 27t63 56v33q0 360 156 554q87 109 265 168q54 18 107 18 t124 -27.5t71 -66.5q0 -8 -2.5 -14t-5.5 -15l-41 -88q-6 -14 -16 -14t-45.5 29t-82.5 57t-107 28q-117 0 -177 -60t-75 -135.5t-15 -166.5v-291q0 -8 10 -8h498q46 0 72 -28t26 -65v-655q0 -98 108 -114q47 -6 47 -21t-10 -17h-446q-10 2 -10 14q0 18 47 24q108 16 108 114 v508z" />
<glyph unicode="fl" horiz-adv-x="1168" d="M617 16q0 -16 -18 -16h-549q-10 2 -10 14q0 18 47 24q108 16 108 114v606q0 11 -12 11h-109q-12 0 -23 7.5t-11 20t12 19.5q17 10 80 27t63 56v33q0 500 307 653q32 15 59 15t86 -14t95.5 -14t112.5 24l91 43q12 6 15 6q17 0 17 -24v-1469q0 -98 108 -114q47 -6 47 -21 t-10 -17h-446q-10 2 -10 14q0 18 47 24q108 16 108 114v617h-458q-13 0 -13 -10v-587q0 -143 248 -143q18 -2 18 -13zM351 908q0 -8 10 -8h461v506q-91 70 -130.5 83t-87.5 13q-102 0 -162.5 -46.5t-75.5 -109.5t-15 -147v-291z" />
<glyph unicode="ffi" horiz-adv-x="1768" d="M1407 660q0 109 -109 109h-328q-13 0 -13 -10v-587q0 -143 248 -143q18 -2 18 -13q0 -16 -18 -16h-549q-10 2 -10 14q0 18 47 24q108 16 108 114v606q0 11 -12 11h-425q-13 0 -13 -10v-587q0 -143 248 -143q18 -2 18 -13q0 -16 -18 -16h-549q-10 2 -10 14q0 18 47 24 q108 16 108 114v606q0 11 -12 11h-109q-12 0 -23 7.5t-11 20t12 19.5q17 10 80 27t63 56q12 488 307 637q132 66 234 66q43 0 95 -22q106 -43 127 -93q63 75 136 112q146 73 217 73t142 -27.5t71 -66.5q0 -8 -2.5 -14t-5.5 -15l-41 -88q-8 -16 -19 -16q-3 0 -43 31.5 t-84.5 58t-104.5 26.5q-117 0 -177 -60t-75 -135.5t-15 -166.5v-291q0 -8 10 -8h498q46 0 72 -28t26 -65v-655q0 -98 108 -114q47 -6 47 -21t-10 -17h-446q-10 2 -10 14q0 18 47 24q108 16 108 114v508zM351 908q0 -8 10 -8h440v32q0 252 74 419q-53 53 -122 96.5t-133 43.5 q-119 0 -179 -60t-75 -135.5t-15 -166.5v-221z" />
<glyph unicode="ffl" horiz-adv-x="1795" d="M617 15q0 -16 -18 -16h-549q-10 2 -10 13q0 19 47 26q108 15 108 113v606q0 11 -12 11h-109q-12 0 -23 7.5t-11 20t12 19.5q17 10 80 27t63 56q12 488 307 637q132 66 234 66q45 0 103 -23q117 -49 141 -107q61 69 121 99t87 30t86 -14t95.5 -14t112.5 24l91 43 q12 6 15 6q17 0 17 -24v-1469q0 -98 108 -114q47 -6 47 -21t-10 -17h-446q-10 2 -10 14q0 18 47 24q108 16 108 114v617h-458q-13 0 -13 -10v-587q0 -143 248 -143q18 -2 18 -13q0 -16 -18 -16h-549q-10 2 -10 14q0 18 47 24q108 16 108 114v606q0 7 -5 10h-453 q-13 0 -13 -10v-587q0 -143 248 -143q18 -2 18 -13zM351 907q0 -8 10 -8h341q115 0 120 -1v34q0 245 72 405q-2 1 -21 19q-146 134 -259 134t-173 -60t-75 -135.5t-15 -166.5v-221zM978 908q0 -8 10 -8h461v506q-91 70 -130.5 83t-86.5 13q-103 0 -163.5 -46.5t-75.5 -109.5 t-15 -147v-291z" />
<glyph unicode="&#xd;" horiz-adv-x="1024" />
<glyph unicode=" "  horiz-adv-x="550" />
<glyph unicode="&#x09;" horiz-adv-x="550" />
<glyph unicode="&#xa0;" horiz-adv-x="550" />
<glyph unicode="!" horiz-adv-x="489" d="M130 92q0 48 33.5 81.5t80.5 33.5t81 -36t34 -83t-32 -81t-80.5 -34t-82.5 34t-34 85zM280 1493q20 0 41 -1t26 -15v-52l-74 -962q-5 -39 -30 -39q-26 0 -31 39l-74 962v52q0 14 15 14l90 2h37z" />
<glyph unicode="&#x22;" horiz-adv-x="834" d="M565 817q-4 72 -16 152l-19 131q-30 194 -30 227t34 58t73 25t70.5 -25t31.5 -57.5t-8 -94.5t-19 -134.5t-22.5 -147t-18.5 -134.5h-76zM199 816q-4 65 -35 271t-31 239t33 58.5t73.5 25.5t71.5 -25.5t31 -57t-8 -93.5t-19 -135t-22.5 -148t-18.5 -135h-75z" />
<glyph unicode="#" horiz-adv-x="1188" d="M129 1065h272l101 473h127l-101 -473h252l101 473h127l-101 -473h273l-29 -121h-270l-72 -350h276l-28 -121h-275l-106 -508h-133l108 508h-248l-106 -508h-133l108 508h-270l31 121h266l76 350h-279zM430 594h248l74 350h-250z" />
<glyph unicode="$" horiz-adv-x="1049" d="M459 1273q25 3 62 3t82 -7v153h56v-163q160 -36 223 -117q24 -30 29 -69q0 -29 -20 -48t-44.5 -19t-45.5 20.5t-42 49t-44 60t-38.5 42.5t-17.5 13v-499q14 -8 47 -26q100 -52 179 -141.5t79 -177.5q0 -152 -83.5 -239t-221.5 -119v-208h-56v198q-85 -11 -144 -4v-194 h-55v204q-175 39 -253 149q-27 38 -29 78.5t21.5 61.5t50.5 21t42 -13q22 -20 45 -83q41 -111 123 -153v611q-116 72 -160 124q-84 97 -84 193.5t68 177t176 110.5v160h55v-149zM459 26q61 -18 144 -7v521q-35 21 -71.5 41.5t-72.5 42.5v-598zM603 1219q-37 11 -94 11 q-28 0 -50 -3v-409q65 -47 144 -94v495zM834 268q0 101 -106 185q-32 26 -69 51v-470q77 28 123.5 89t51.5 145zM279 1043q0 -53 25.5 -87t99.5 -97v356q-125 -39 -125 -172z" />
<glyph unicode="%" horiz-adv-x="1750" d="M1499.5 13q-52.5 -36 -111.5 -36q-115 0 -201 124.5t-86 289.5t80 297t193 132q136 0 214 -128t78 -295.5t-77 -289.5q-37 -58 -89.5 -94zM1259 128.5q37 -87.5 129 -87.5q132 0 151 218q5 64 5 120q0 122 -7 178q-25 197 -148 197q-64 0 -95 -34t-51.5 -101.5 t-20.5 -235t37 -255zM1361 1480h130l-1101 -1535h-129zM482.5 645q-52.5 -36 -111.5 -36q-115 0 -201 124.5t-86 289.5t80 297t193 132q136 0 214 -128t78 -295.5t-77 -289.5q-37 -58 -89.5 -94zM242 760.5q37 -87.5 129 -87.5q132 0 151 218q5 64 5 120q0 122 -7 178 q-25 197 -148 197q-64 0 -95 -34t-51.5 -101.5t-20.5 -235t37 -255z" />
<glyph unicode="&#x26;" horiz-adv-x="1522" d="M1397 96q8 0 8 -18.5t-6 -20.5q-136 -88 -233.5 -88t-167.5 91q-34 42 -66 93t-54 78q-281 -258 -499 -258q-145 0 -250.5 119.5t-105.5 269.5q0 210 229 339q69 39 149 71q-114 111 -141 206q-10 38 -10 92q0 108 90 174.5t204 66.5t198.5 -66.5t84.5 -175.5 q0 -129 -189 -244q-22 -13 -24 -15t-2 -8.5t11.5 -17t26 -23.5t43 -39t56.5 -49t114 -132t91 -109q11 0 15 8l229 346q25 38 25 65t-17 37.5t-37.5 15t-37.5 9t-17 22t10 17.5h367q4 -7 4 -21.5t-5 -18.5q-6 -4 -66 -10q-98 -9 -136 -69l-295 -467l125 -215q56 -98 137 -98 q43 0 85 19t57 24zM651 139.5q87 47.5 174 120.5q17 16 16.5 25t-0.5 11q-1 2 -1 5q-135 232 -332 390q-11 9 -26 22t-29 13q-18 0 -58 -24q-85 -50 -138.5 -141t-53.5 -167q0 -132 81 -217t180.5 -85t186.5 47.5zM694 1065q0 186 -157 186q-101 0 -131 -91q-9 -28 -9 -81.5 t41 -120.5t111 -110q62 11 103.5 81t41.5 136z" />
<glyph unicode="'" horiz-adv-x="465" d="M195 814q-5 69 -35.5 272.5t-30.5 238.5t34 60t72 25t70.5 -25t32.5 -58t-8 -95t-19 -135t-22.5 -148t-18.5 -135h-75z" />
<glyph unicode="(" horiz-adv-x="650" d="M567 1722q8 10 17 10t25.5 -23.5t16.5 -35t-6 -21.5q-321 -492 -321 -1049t321 -1047q6 -11 6 -22t-16.5 -34.5t-25.5 -23.5t-17 10q-291 348 -371 815q-25 150 -25 301q0 308 100.5 599.5t295.5 520.5z" />
<glyph unicode=")" horiz-adv-x="650" d="M30 1652q-6 10 -6 28t19.5 35t25.5 17t14 -10q294 -338 371 -817q25 -151 25 -303q0 -306 -102 -596t-294 -520q-8 -10 -17 -10t-25.5 23.5t-16.5 34.5t6 22q321 490 321 1047t-321 1049z" />
<glyph unicode="*" horiz-adv-x="741" d="M687 1377l14 -42l-228 -118l113 -230l-35 -26l-181 182l-184 -178l-37 24l117 228l-226 120l11 43l253 -39l44 253h44l41 -253z" />
<glyph unicode="+" horiz-adv-x="1049" d="M88 689h375v389h127v-389h370v-127h-370v-385h-127v385h-375v127z" />
<glyph unicode="," horiz-adv-x="520" d="M399 52q0 -186 -175 -310q-40 -29 -60 -29q-15 0 -15 27q0 16 21.5 30.5t31.5 23.5q101 91 101 165q0 29 -11.5 35t-49.5 6t-79.5 29t-41.5 85t27 80q46 42 88 42q78 0 120.5 -61.5t42.5 -122.5z" />
<glyph unicode="-" horiz-adv-x="913" d="M828 578v-137h-743v137h743z" />
<glyph unicode="." horiz-adv-x="520" d="M168 193.5q38 39.5 92 39.5q53 0 91.5 -38.5t38.5 -93.5t-38 -91.5t-92 -36.5q-53 0 -91.5 37t-38.5 90.5t38 93z" />
<glyph unicode="/" horiz-adv-x="664" d="M529 1452h130l-525 -1479h-129z" />
<glyph unicode="0" horiz-adv-x="1049" d="M76 693q0 247 138 466.5t307 219.5q133 0 238.5 -101.5t159.5 -265.5t54 -343q0 -273 -123 -478q-81 -136 -198 -191q-60 -27 -124 -27q-121 0 -225 98.5t-165.5 245t-61.5 283.5v93zM531 32q280 0 280 581q0 243 -10 327q-21 176 -79 268q-72 112 -207 112 q-254 0 -275 -513q-3 -74 -3 -178q0 -273 59 -423q69 -174 235 -174z" />
<glyph unicode="1" horiz-adv-x="1049" d="M210 1029q-7 0 -20 26q0 3 36 26.5t143 118.5t177 179h56q13 0 16 -4t3 -15v-1220q0 -63 13 -71q49 -29 199 -29q8 0 8 -8v-24q0 -8 -8 -8h-602q-8 0 -8 8v24q0 8 8 8q50 3 87 4.5t78 5.5t57.5 13t19.5 27t3 47v1065q1 2 -22 -16q-130 -104 -238 -156z" />
<glyph unicode="2" horiz-adv-x="1049" d="M129 963l-24 -3q-10 0 -10 6q0 28 33 123.5t76 140.5q145 149 326 149t291 -113.5t110 -285t-222 -378.5q-70 -66 -117 -106q-60 -51 -211.5 -198.5t-151.5 -162.5h563q73 0 103 41q18 24 46 127h38l-43 -270q-5 -23 -23 -33h-832q-5 0 -5 26q0 25 46.5 78t119 125.5 t197.5 198.5q318 323 318 517q0 119 -86.5 215.5t-201 96.5t-204.5 -77q-88 -77 -119 -199q-4 -18 -17 -18z" />
<glyph unicode="3" horiz-adv-x="1049" d="M590 831q12 2 36 2q116 0 213 -97t97 -247.5t-79.5 -265.5t-198 -182.5t-229.5 -67.5q-243 0 -331 98q-23 25 -33 60q0 67 83 67q21 0 84.5 -49.5t119.5 -81.5t126 -30q131 4 213.5 126.5t82.5 268t-72 219.5t-171 74q-53 0 -88 -19.5t-41 -27.5t-10.5 -8t-11.5 8t-7 14 t6.5 12.5t15.5 14t18 14.5q249 194 249 340q0 84 -63 140t-134 56q-184 0 -297 -207q-1 -1 -7.5 -1t-19.5 6t-13 9t2.5 9t15.5 39t54.5 84.5t91.5 89.5q107 81 193 81q158 0 240 -63t82 -175.5t-122 -234.5q-21 -16 -59.5 -42.5t-38.5 -31.5v-1h3z" />
<glyph unicode="4" horiz-adv-x="1049" d="M87 396q-24 0 -24 18.5t8 30.5l620 911q15 23 35 23t31.5 -3t11.5 -23v-822q0 -16 5 -20.5t20 -4.5h161q11 0 21 -2t10 -16v-68q0 -24 -20 -24h-171q-19 0 -22.5 -5t-3.5 -19v-387q0 -22 -17 -22h-108q-20 0 -20 23v386q0 14 -4.5 19t-21.5 5h-511zM624 1080q0 39 -24 39 q-8 0 -29 -21l-384 -572q-4 -5 -4 -12.5t31 -7.5h384q17 0 21.5 7t4.5 19v548z" />
<glyph unicode="5" horiz-adv-x="1049" d="M265 1203l-16 -372q0 -12 1 -11q29 29 107 42t119 13q87 0 193 -46.5t181 -140t75 -207.5q0 -194 -80.5 -305t-200 -157t-248 -46t-222.5 47q-63 31 -70 78q0 35 23.5 56.5t54 21.5t63.5 -23.5t66.5 -52t68 -52t80.5 -23.5q93 0 163.5 60.5t104.5 145.5t34 158 q0 136 -59.5 213t-136 103.5t-131.5 26.5t-91 -12t-64.5 -26.5t-47 -27t-24.5 -15.5t-12.5 -3t-6.5 15l30 675h509q48 0 58 24q3 8 8 17h41l-24 -169h-525q-21 0 -21 -7z" />
<glyph unicode="6" horiz-adv-x="1049" d="M916 1362q0 -15 -82 -59.5t-102 -58.5q-65 -44 -130 -96q-214 -172 -217 -281q8 0 18.5 5t38 16t99 11t154 -36.5t142.5 -98.5q128 -134 128 -328t-130.5 -328.5t-324 -134.5t-312 159t-118.5 370q0 263 171 458q148 169 504 364q40 22 85 37.5t60.5 15.5t15.5 -15z M247 444q0 -157 59 -275q72 -143 211.5 -143t210.5 127q60 106 60 257q0 295 -158 394q-58 36 -136 36q-138 0 -196 -112q-49 -95 -51 -273v-11z" />
<glyph unicode="7" horiz-adv-x="1049" d="M952 1338q28 0 28 -39t-17 -82l-560 -1244h-112v23q95 212 167 374t126 282q198 445 213.5 484.5t-11.5 39.5h-550q-20 0 -37.5 -16t-23.5 -34l-54 -154q-5 -18 -22 -18q-19 0 -19 15l60 348q8 21 16 21h796z" />
<glyph unicode="8" horiz-adv-x="1049" d="M162 304q0 180 136 284l68 50q43 33 43 42.5t-52 59t-105 128.5t-53 168q0 161 89.5 252t230.5 91t239.5 -87.5t98.5 -218.5q0 -89 -50 -169q-31 -46 -84.5 -87t-75 -56.5t-21.5 -21t32 -30.5q106 -85 154 -152q73 -100 73 -237.5t-102.5 -241.5t-248.5 -104t-259 93.5 t-113 236.5zM289 301q0 -117 70 -200t165.5 -83t162 71.5t66.5 207.5q0 88 -117 205q-11 11 -33 35t-68.5 67t-73.5 43t-41.5 -17t-25.5 -29q-105 -113 -105 -288v-12zM392 945q45 -54 157 -148q16 -14 36 -14t28.5 5t39 35.5t59.5 104.5t29 134q0 120 -56.5 197.5 t-153 77.5t-154 -61t-57.5 -151.5t72 -179.5z" />
<glyph unicode="9" horiz-adv-x="1049" d="M109 -25q-6 0 -6 10.5t20 23.5q374 162 541 423q27 43 27 52t-9 9l-102 -25q-50 -13 -125.5 -13t-149.5 39.5t-126 103.5q-106 129 -106 311t119.5 326t320 144t332.5 -154t132 -374q0 -269 -163.5 -478t-429.5 -324q-166 -74 -275 -74zM253 887q0 -144 81 -259.5 t209 -115.5q78 0 127.5 21t67.5 36q53 43 53 265q0 141 -15 209q-28 135 -91 209t-178 74q-179 0 -235 -235q-19 -79 -19 -178v-26z" />
<glyph unicode=":" horiz-adv-x="520" d="M168 193.5q38 39.5 92 39.5q53 0 91.5 -38.5t38.5 -93.5t-38 -91.5t-92 -36.5q-53 0 -91.5 37t-38.5 90.5t38 93zM168 889.5q38 39.5 92 39.5q53 0 91.5 -38.5t38.5 -93.5t-38 -91.5t-92 -36.5q-53 0 -91.5 37t-38.5 90.5t38 93z" />
<glyph unicode=";" horiz-adv-x="520" d="M168 889.5q38 39.5 92 39.5q53 0 91.5 -38.5t38.5 -93.5t-38 -91.5t-92 -36.5q-53 0 -91.5 37t-38.5 90.5t38 93zM399 52q0 -186 -175 -310q-40 -29 -60 -29q-15 0 -15 27q0 16 21.5 30.5t31.5 23.5q101 91 101 165q0 29 -11.5 35t-49.5 6t-79.5 29t-41.5 85t27 80 q46 42 88 42q78 0 120.5 -61.5t42.5 -122.5z" />
<glyph unicode="&#x3c;" horiz-adv-x="1049" d="M368 626l508 -303v-154l-703 418v72l703 411v-149z" />
<glyph unicode="=" horiz-adv-x="1049" d="M959 859v-127h-870v127h870zM959 519v-127h-870v127h870z" />
<glyph unicode="&#x3e;" horiz-adv-x="1049" d="M174 921v149l700 -414v-71l-700 -416v154l505 303z" />
<glyph unicode="?" horiz-adv-x="778" d="M290 371q0 -13 -21 -13t-63.5 95t-43.5 140t10.5 75.5t31.5 52t47 36.5t57 27t62.5 22.5t63.5 23.5q68 28 120 92.5t52 131.5q0 122 -92 160.5t-316 38.5q-70 4 -98 41q-10 14 -10 35q0 86 169.5 86t281.5 -110t112 -281.5t-144 -292.5q-68 -57 -126 -75.5t-86 -33.5 q-66 -34 -66 -94q0 -31 25.5 -80t33.5 -77zM187 171q34 34 81 34q46 0 80 -34t34 -81t-33.5 -82t-80.5 -35q-48 0 -81.5 35t-33.5 82t34 81z" />
<glyph unicode="@" horiz-adv-x="1991" d="M1254 25q-210 0 -210 113q0 64 11 109.5t12 62.5t-7 17t-22 -10.5t-39.5 -33.5t-85.5 -76q-165 -144 -222 -144q-64 0 -93 101q-20 70 -20 135q0 208 154.5 393.5t374.5 260.5q109 37 222 37q17 0 17 -28l-151 -692q-1 -8 -2.5 -19t-1.5 -22q0 -60 34 -92.5t90 -32.5 q108 0 205 95t155.5 237.5t58.5 272.5q0 271 -176 456.5t-497 196.5q-234 -6 -424.5 -133t-301 -335.5t-110.5 -447.5q0 -179 63.5 -329t175.5 -258t265 -168.5t311 -60.5q290 0 481 144t293 399h77q-161 -417 -548 -560q-130 -48 -282 -58q-257 0 -464.5 114t-327 318 t-119.5 459q0 257 120.5 486.5t329.5 367t461 137.5q349 0 548 -208.5t199 -492.5q0 -203 -81.5 -366t-210 -254t-262.5 -91zM1185 860q0 16 -38 16q-89 0 -187 -52q-173 -91 -219.5 -299t-16.5 -295q20 -56 65.5 -56t76.5 20t63.5 52t70 73.5t86.5 85.5z" />
<glyph unicode="A" horiz-adv-x="1457" d="M532 8q0 -8 -8 -8h-511q-8 0 -8 8v24q0 8 13 8q137 6 185 146l408 1181q1 2 1 5l-11 33q0 5 4 5h200q2 -1 5.5 -2t5.5 -6l423 -1187q14 -27 22.5 -49t19.5 -40q24 -41 79 -63q46 -23 84 -23q8 0 8 -9v-23q0 -8 -8 -8h-612q-8 0 -8 8v24q0 8 37 10t61 4q139 15 139 94 q0 6 -2 14l-151 426q-1 2 -4 9q-12 34 -42 34h-355q-30 0 -47 -33q-3 -7 -3 -8l-150 -439v-9q0 -26 27 -47q61 -47 164 -47h26q8 0 8 -8v-24zM828 734q18 0 18 15q0 8 -4 18l-149 410q-10 27 -15 27t-16 -28l-140 -409q-4 -10 -4 -21.5t15 -11.5h295z" />
<glyph unicode="B" horiz-adv-x="1392" d="M18 0q-8 0 -8 8v24q0 8 14 8q47 0 104 10q183 31 183 126v1055q-10 128 -117 139q-32 4 -71 4h-57q-8 0 -8 8v25q0 8 8 8l44 1l172 1l356 11q572 0 572 -338q0 -143 -148 -238q-23 -15 -39.5 -22t-18.5 -8q132 -74 207.5 -166t75.5 -220q0 -273 -258 -380 q-133 -56 -289 -56h-722zM524 780q-13 0 -13 -11v-548q0 -71 66.5 -114t143.5 -43q148 0 252 105.5t104 260t-111.5 252.5t-282.5 98h-159zM509 861q0 -19 23 -19h246q96 0 161.5 71t65.5 159q0 157 -89 227.5t-237 70.5q-45 -3 -62.5 -3t-36.5 0.5t-38 -2.5t-26 -13t-7 -33 v-458z" />
<glyph unicode="C" horiz-adv-x="1566" d="M1345 38q-5 -8 -24.5 -3.5t-45.5 4.5t-73.5 -10.5t-149.5 -33t-186 -22.5q-190 0 -368.5 89.5t-285.5 254t-107 381.5t107 393q156 258 470 336q100 25 200 25q137 0 325 -46q57 -14 96.5 -29t48.5 -15l30 8h31q12 0 12 -17v-311q0 -10 -18 -10t-21 4.5t-6 11t-6.5 13.5 t-7 13t-4.5 9q-150 301 -455 301q-275 0 -430 -175t-155 -463.5t170.5 -495.5t463.5 -207q160 0 291.5 95t206.5 233q2 6 12 6h13q10 0 10 -12t-6 -23z" />
<glyph unicode="D" horiz-adv-x="1664" d="M45 1405q0 8 8 8h22l321 7q58 2 126 2h125q174 0 261.5 -13t172 -30.5t180 -79.5t165.5 -150q148 -188 148 -406t-114 -391q-164 -251 -475 -328q-99 -24 -203 -24h-729q-8 0 -8 8v28q0 8 8 8h22q182 0 182 116v1096q0 56 -43 84.5t-97 28.5h-64q-8 0 -8 8v28zM477 1375 q-25 0 -25 -27v-1223q0 -74 139 -77q41 -1 86 -1q319 0 501.5 179t182.5 476.5t-168.5 485t-443.5 187.5h-272z" />
<glyph unicode="E" horiz-adv-x="1264" d="M7 8v28q0 8 8 8h22q42 3 86 3.5t80 10.5q82 24 82 120v1054q0 99 -117 126q-33 7 -67 12h-21q-8 0 -8 8v24q0 8 8 8h951q18 0 26 -6.5t10 -28.5l18 -290q0 -10 -15 -10t-22 9q-6 10 -15.5 73t-34.5 105t-88 53h-417q-13 0 -13 -13v-517q0 -10 10 -10h346q134 0 134 156 q0 8 8 8h24q8 0 8 -8v-428q0 -8 -8 -8h-24q-8 0 -8 8q0 148 -86 171q-24 6 -51 6h-343q-10 0 -10 -10v-487q0 -75 69 -85q20 -3 42 -3h333q103 0 160 91q41 65 50 149q3 28 30 28q12 0 12 -13l-33 -336q-6 -14 -14 -14h-1114q-8 0 -8 8z" />
<glyph unicode="F" horiz-adv-x="1167" d="M858 809q134 0 134 131q0 8 8 8h24q8 0 8 -8v-372q0 -8 -8 -8h-24q-8 0 -8 8q0 92 -52 127q-28 19 -80 19h-394q-24 0 -24 -27v-514q0 -68 81.5 -100.5t103 -32.5t21.5 -8v-24q0 -8 -8 -8h-546q-8 0 -8 8v24q0 8 17 8t53 16t63.5 47.5t27.5 76.5v1080q0 65 -69 93 q-40 17 -79 17h-4q-8 0 -8 8v24q0 8 8 8h943q12 -2 18 -5.5t6 -17.5v-242q0 -12 -3.5 -15t-12.5 -3h-12q-2 1 -13.5 54.5t-35.5 82.5q-41 44 -93 49q-21 2 -51 2h-379q-20 0 -20 -20v-463q0 -23 24 -23h392z" />
<glyph unicode="G" horiz-adv-x="1621" d="M1560 620q11 0 11 -15.5t-11 -21.5q-27 -11 -55.5 -19t-52.5 -21q-55 -30 -55 -97v-325q0 -22 -105.5 -59t-171.5 -54q-309 -76 -552 16q-279 107 -395 383q-58 138 -58 274.5t27 229.5q82 284 344 437q171 100 359.5 100t400.5 -76q39 -14 44 -14h12l40 10h25 q11 0 11 -11v-333q0 -19 -22 -19h-4q-19 2 -26 51l-3 15q-100 313 -422 313q-258 0 -411.5 -195t-153.5 -464t154.5 -475.5t424.5 -206.5q139 0 229 43q35 17 54 43v274q0 93 -53 136.5t-195 43.5q-11 0 -11 18.5t11 18.5h610z" />
<glyph unicode="H" horiz-adv-x="1712" d="M1457 181q0 -135 187 -141q8 0 8 -8v-24q0 -8 -8 -8h-636q-8 0 -8 8v24q0 8 50 8t114 22q98 32 98 108v477q0 10 -3 13t-13 3h-788q-10 0 -13 -3t-3 -13v-487q0 -120 177 -120q8 0 8 -8v-24q0 -8 -7 -8h-552q-8 0 -8 8v24q0 8 20 8q167 0 167 143v1067q0 117 -139 124 q-21 1 -21 9v19q0 8 7 8h502q8 0 8 -8v-19q0 -6 -19 -6q-143 0 -143 -141v-462q0 -10 3 -13t13 -3h788q10 0 13 3t3 13v478q-2 9 -2.5 16.5t-3.5 23.5q-7 34 -71 55.5t-145 27.5q-8 0 -8 8v19q0 8 7 8h577q8 0 8 -8v-19q0 -6 -19 -6q-148 0 -148 -141v-1055z" />
<glyph unicode="I" horiz-adv-x="699" d="M252 1250q0 120 -138 120q-22 0 -22 8v24q0 8 8 8h501q8 0 8 -8v-24q0 -8 -44 -8t-81 -28t-37 -115v-1067q0 -120 139 -120q21 0 21 -8v-24q0 -8 -8 -8h-501q-8 0 -8 8v24q0 8 44 8t81 28t37 115v1067z" />
<glyph unicode="J" horiz-adv-x="693" d="M603 1378q0 -8 -41 -8t-81 -28.5t-40 -114.5v-1237q0 -223 -127 -415q-87 -133 -218 -187q-67 -28 -138.5 -28t-139.5 32t-68 72t32 66.5t66 26.5t56 -7t38.5 -17.5t29 -23t35 -30t61.5 -17.5q77 0 117.5 64.5t50.5 152t10 221.5v1350q0 101 -113 116q-36 4 -81 4 q-8 0 -8 8v24q0 8 8 8h543q8 0 8 -8v-24z" />
<glyph unicode="K" horiz-adv-x="1524" d="M643 8q0 -8 -8 -8h-588q-7 0 -7 8v19q0 8 42.5 9t104 31.5t61.5 92.5v1090q0 113 -200 125q-8 0 -8 8v19q0 8 7 8h588q8 0 8 -8v-19q0 -6 -41.5 -6t-91.5 -24q-67 -32 -67 -105v-441q0 -88 17 -88q43 0 109 54.5t117 112.5t102.5 137.5t71.5 108.5q75 106 75 159.5 t-46 71.5q-30 12 -86 12h-10q-8 0 -8 8v19q0 8 8 8h578q8 0 8 -8v-19q0 -12 -12 -12q-128 -4 -187 -33.5t-94.5 -64.5t-77.5 -106q-128 -217 -255 -347q-54 -55 -56 -68q5 -10 82 -80q192 -176 403 -477q79 -115 207 -142q85 -20 107.5 -20t22.5 -8v-17q0 -8 -8 -8h-654 q-8 0 -8 8v19q0 8 34 11q113 10 113 66q-7 56 -201 277q-35 39 -73 87q-152 187 -250 187h-19q-10 0 -10 -14v-468q0 -140 192 -140q8 0 8 -8v-17z" />
<glyph unicode="L" horiz-adv-x="1239" d="M48 0q-8 0 -8 8v24q0 8 8 8h24q86 0 150 36q26 15 43 46.5t17 70.5v1058q0 62 -80 95q-56 24 -119 24h-22q-8 0 -8 8v24q0 8 8 8h677q8 0 8 -8v-24q0 -8 -8 -8h-43q-103 0 -182 -29q-23 -8 -29.5 -26.5t-6.5 -63.5v-1109q2 -17 18 -32t36 -15h395q89 0 175 105 q23 28 57 74.5t42 52.5q32 24 32 -1q0 -6 -3 -12l-151 -296q-9 -18 -21 -18h-1009z" />
<glyph unicode="M" horiz-adv-x="1929" d="M501 40q6 0 6 -8v-24q0 -8 -6 -8h-467q-8 0 -8 8v24q0 8 8 8q164 0 178 141q4 41 8.5 136.5t26.5 411t22 510.5v37q0 40 -45.5 67t-66.5 27t-21 8v24q0 8 8 8h289q19 -3 31 -22l469 -1045q5 -7 8 -12t15 -4.5t18 17.5l464 1026q21 40 38 40h291q8 0 8 -8v-24q0 -8 -5 -8 q-30 0 -74 -20q-67 -30 -67 -89l60 -1105q2 -52 54 -84t136 -32q8 0 8 -8v-24q0 -8 -8 -8h-568q-8 0 -8 8v24q0 8 8 8q179 0 179 87l-53 955q-1 10 -5.5 10t-7.5 -9l-497 -1076q-4 -7 -23 -7t-22 8l-490 1078q-6 14 -11.5 14t-5.5 -22q0 -46 -24 -434t-24 -484v-41 q12 -57 113 -74q29 -5 61 -5z" />
<glyph unicode="N" horiz-adv-x="1747" d="M68 0q-8 0 -8 8v24q0 8 10 8h23q55 0 75 10q74 36 74 198v1039q0 67 -130 80q-29 3 -40.5 3t-11.5 8v24q0 8 8 8h366l949 -1049q5 -5 7 -7.5t6.5 -2.5t4.5 9v689q0 199 -33 260t-133 61h-51q-8 0 -8 8v24q0 8 8 8h520q8 0 8 -8v-24q0 -8 -29.5 -8t-97 -34t-67.5 -84 v-1223q0 -22 -6 -31.5t-28.5 -9.5t-33.5 9t-26 26l-1031 1143q-10 10 -18 10q-5 0 -5 -10v-998q0 -91 144 -120q40 -8 61 -8t21 -8v-24q0 -8 -8 -8h-520z" />
<glyph unicode="O" horiz-adv-x="1770" d="M1092 3q-103 -30 -183 -30q-164 0 -313 53q-204 74 -328 219q-158 185 -158 469q0 205 105 373.5t290.5 266.5t399 98t382.5 -95t271 -261t102 -359.5t-101 -368t-277 -282.5q-87 -53 -190 -83zM393.5 416.5q73.5 -163.5 210.5 -266.5t317 -103q256 0 399 196 q129 177 129 452t-158 474q-77 97 -188.5 155.5t-225 58.5t-186 -25t-131.5 -68.5t-104 -103.5t-75 -130q-61 -144 -61 -310t73.5 -329.5z" />
<glyph unicode="P" horiz-adv-x="1211" d="M100 0q-8 0 -8 20v12q0 8 10 8t29.5 6t29.5 8q102 23 102 116v1056q0 92 -34 117.5t-123 25.5h-45q-21 0 -21 24q0 14 13 17h7l561 15h101q179 -12 298 -129t119 -280.5t-117 -296.5q-51 -59 -115 -95.5t-126 -37.5l-300 12h-8q-15 0 -15 -14v-411q0 -55 30 -81t127 -41 q13 -2 42 -6.5t39 -4.5t10 -8v-24q0 -8 -8 -8h-598zM513.5 1373.5q-13.5 -0.5 -34.5 -1t-21 -16.5v-645l2 -30q3 -21 19 -22l102 -6q161 0 259.5 108t98.5 271.5t-95.5 253.5t-254.5 90q-14 0 -26 -0.5l-24 -1t-25.5 -1z" />
<glyph unicode="Q" horiz-adv-x="1767" d="M816 -22q-158 14 -291 81.5t-223 162.5q-192 203 -192 485q0 325 222.5 534t554.5 209t550.5 -206t218.5 -527q0 -382 -389 -640q-9 -6 -76.5 -39t-67.5 -37.5t62.5 -47t265.5 -206.5q122 -98 189 -111.5t67 -26.5q0 -25 -32 -31t-97 -6q-113 0 -250 74 q-241 159 -324 238t-146 89q-19 3 -42 5zM355.5 992.5q-37.5 -115.5 -36.5 -224.5q2 -197 79 -359.5t215.5 -262t320.5 -99.5q223 0 371 174.5t148 457.5t-145 475q-161 212 -450 229q-242 0 -395 -189q-70 -86 -107.5 -201.5z" />
<glyph unicode="R" horiz-adv-x="1419" d="M52 0q-8 0 -8 20v12q0 8 8 8q6 0 19 2t27 4t26 4.5t17 3.5q102 23 102 116v1056q0 86 -69 122q-41 22 -88 22h-38q-8 0 -8 8v24q0 8 12 8l549 15h101q177 -12 296.5 -128.5t119.5 -287t-142 -265.5q-44 -29 -95 -52l303 -495q79 -130 212 -183q11 -3 11 -14 q0 -25 -33 -25q-225 0 -358 171q-29 38 -58 85l-259 406l-238 11h-8q-15 0 -15 -14v-461q0 -55 31 -82t107 -37q20 -3 49 -8.5t39.5 -5.5t10.5 -8v-24q0 -8 -8 -8h-615zM493.5 1371.5q-13.5 -0.5 -34.5 -1t-21 -16.5v-606l2 -30q3 -21 19 -22l102 -6q281 0 339 200 q19 63 19 144q0 158 -98.5 249t-251.5 91q-14 0 -26 -0.5l-24 -1t-25.5 -1z" />
<glyph unicode="S" horiz-adv-x="1026" d="M844 1398q10 0 10 -22l26 -213q4 -20 4 -25.5t-15.5 -5.5t-19.5 4t-8 13.5t-9.5 21.5t-11.5 24q-21 46 -66 91q-110 106 -248 106q-83 0 -157 -54t-74 -127.5t27.5 -127.5t72.5 -100t103 -88t118 -85q159 -111 226 -190q105 -122 114 -274q0 -170 -130.5 -271.5 t-303.5 -101.5q-111 0 -176.5 22.5t-90.5 32.5t-36.5 10t-14.5 -1l-49 -10q-13 0 -16 21q-29 248 -29 263.5t2.5 21t13.5 5.5q28 0 51 -80q105 -225 349 -225q112 0 191.5 68t79.5 177q0 174 -208 324q-59 42 -170 117t-177 150q-103 116 -103 258.5t113.5 233.5t260.5 91 q76 0 167.5 -26t127.5 -35z" />
<glyph unicode="T" horiz-adv-x="1502" d="M399 32q0 8 9 8h28q98 0 157.5 42t59.5 98v1107q0 21 -8.5 23.5t-20.5 4.5h-384q-93 -20 -122 -143q-16 -66 -19 -84.5t-11 -18.5h-18q-6 0 -6 4v33l37 312q6 31 20 31t30 -19.5t61 -19.5h1078q43 0 52 10t17 19.5t20.5 9.5t16 -10t5.5 -21l37 -312v-33q0 -4 -6 -4h-18 q-8 0 -11 15q-16 100 -46 158.5t-95 72.5h-385q-12 -2 -20.5 -4.5t-8.5 -23.5v-1107q0 -56 59.5 -98t157.5 -42h29q8 0 8 -8v-24q0 -8 -8 -8h-687q-8 0 -8 8v24z" />
<glyph unicode="U" horiz-adv-x="1672" d="M574 1370q-168 0 -168 -134v-716q0 -198 131 -323.5t336 -125.5q213 0 349.5 114.5t136.5 317.5v636q0 95 -17 132q-43 99 -194 99q-8 0 -8 8v24q0 8 8 8h492q8 0 8 -8v-24q0 -8 -22 -8q-131 0 -160 -102q-5 -17 -5 -32v-655q0 -439 -336 -565q-113 -43 -225 -43 q-401 0 -591 210q-98 108 -98 267v800q0 85 -103 112q-30 8 -51 8t-21 8v24q0 8 7 8h542q8 0 8 -8v-24q0 -8 -19 -8z" />
<glyph unicode="V" horiz-adv-x="1505" d="M1500 1378q0 -8 -8 -8h-37q-127 -25 -187 -208q-16 -48 -33 -93l-393 -1061q-9 -25 -22 -30t-36 -5h-47q-24 0 -31 22l-527 1277q-32 79 -158 97q-7 1 -11.5 1t-4.5 8v24q0 8 8 8h590q8 0 8 -8v-24q0 -8 -8 -8h-15q-25 -4 -58 -8q-128 -16 -128 -102q0 -27 14 -58 l379 -922q10 -20 21 1l348 942q7 20 7 47.5t-23 53t-46.5 29.5t-37 6t-40.5 6.5t-36 4.5t-9 8v24q0 8 8 8h505q8 0 8 -8v-24z" />
<glyph unicode="W" horiz-adv-x="2262" d="M552 1370q-120 0 -120 -92q0 -17 6.5 -36t11.5 -40l383 -922q5 -10 16 -10t18 11l221 520l-195 471q-18 45 -150 86q-39 12 -50.5 12t-11.5 8v24q0 8 8 8h916q8 0 8 -8v-24q0 -8 -8 -8h-37q-96 0 -146 -94q-17 -32 -35 -75l-130 -305l256 -616q5 -10 16 -10t18 11 l423 995q12 28 12 50q0 44 -115 44h-62q-8 0 -8 8v24q0 8 8 8h445q8 0 8 -8v-24q0 -8 -8 -8h-47q-44 0 -66.5 -30.5t-63.5 -124.5l-514 -1207q-11 -24 -23 -29.5t-35 -5.5h-47q-24 0 -32 22l-270 654l-273 -641q-11 -24 -23 -29.5t-35 -5.5h-47q-24 0 -31 23l-530 1276 q-16 39 -99 68.5t-102.5 29.5t-19.5 8v24q0 8 8 8h570q8 0 8 -8v-24q0 -8 -8 -8h-18zM1302 1323q0 42 -86 46q-87 -5 -100 -61q-4 -14 -4 -30.5t6.5 -35.5t11.5 -40l63 -153l97 227q12 28 12 47z" />
<glyph unicode="X" horiz-adv-x="1611" d="M390 100q0 -60 128 -55q46 2 46 -13v-24q0 -8 -8 -8h-543q-8 0 -8 8v24q0 8 8 8h39q132 16 262 183q35 44 69 82l315 415l-305 393q-29 37 -56 75q-98 138 -216 166q-40 16 -108 16q-8 0 -8 8v24q0 8 8 8h659q8 0 8 -8v-24q0 -8 -49 -8t-80 -8q-49 -11 -49 -53 q0 -17 17 -43l278 -369q6 -6 7 -8t9.5 -2t28.5 23l270 346q19 23 19 49q0 65 -150 65q-8 0 -8 8v25q0 7 8 7h537q8 0 8 -8v-24q0 -8 -8 -8q-160 0 -318 -184l-310 -405q1 -1 4 -6.5t35 -50t231 -309t225 -287.5q69 -64 129 -75q12 -6 27.5 -7t40 -2.5t24.5 -20.5 q0 -23 -39 -23h-551q-8 0 -8 8v24q0 10 30 10q109 -3 109 58q0 15 -12 35l-352 465q-8 10 -17 10t-17 -10l-345 -455q-14 -19 -14 -45z" />
<glyph unicode="Y" horiz-adv-x="1527" d="M526 0q-34 0 -34 20v10q0 16 29.5 19.5t38.5 4.5q76 8 107 37.5t31 88.5v331q0 7 -3 15l-409 652q-96 153 -190 176q-5 1 -18 4t-58 10q-16 3 -16 22.5t15 19.5h572q17 0 17 -20t-17 -20q-67 -7 -89 -14q-50 -18 -50 -64q0 -24 12 -43l338 -540q11 -16 13.5 -20.5 t11 -4.5t26.5 29l270 459q12 24 27.5 51.5t15.5 56.5q0 73 -100 86q-36 5 -39 11t-3 15q0 18 17 18h467q14 0 14 -14t-4.5 -19t-12 -7.5t-16.5 -4t-39 -8.5q-70 -17 -152 -111q-9 -11 -10 -13l-395 -680v-373q0 -54 30.5 -85t103 -40.5t72.5 -23.5v-11q0 -20 -34 -20h-539z " />
<glyph unicode="Z" horiz-adv-x="1460" d="M95 0q-18 0 -18 34t16 52l935 1209q4 5 4 12.5t-20 7.5h-607q-83 0 -135 -57q-18 -19 -26.5 -43.5t-20 -83.5t-15.5 -63.5t-18.5 -4.5t-18.5 6l15 307q0 34 23 34h1086q16 0 16 -32t-13 -51l-899 -1163q-3 -5 -11.5 -17t-8.5 -20q0 -27 46 -27h705q48 0 97 40.5 t70.5 108.5t29.5 164q3 15 20 15t17 -12v-47l-21 -310q-1 -11 -1 -21q0 -38 -28 -38h-1219z" />
<glyph unicode="[" horiz-adv-x="740" d="M702 1731v-86h-271q-73 0 -73 -73v-1755q0 -73 73 -73h294v-86h-520v2073h497z" />
<glyph unicode="\" horiz-adv-x="665" d="M136 1452h-130l525 -1479h129z" />
<glyph unicode="]" horiz-adv-x="740" d="M383 1572q0 73 -72 73h-274v86h498v-2073h-520v86h296q72 0 72 73v1755z" />
<glyph unicode="^" horiz-adv-x="1049" d="M529 1186l-305 -507h-148l421 700h63l412 -700h-148z" />
<glyph unicode="_" horiz-adv-x="1014" d="M-16 -205h1046v-115h-1046v115z" />
<glyph unicode="`" horiz-adv-x="700" d="M478 1067q-4 -4 -7 -4t-7 4l-269 217q-55 47 -55 85t20.5 60.5t55.5 22.5t71 -49l213 -295q4 -4 4 -6t-4 -6z" />
<glyph unicode="a" horiz-adv-x="885" d="M712.5 123.5q24.5 -15.5 56.5 -15.5t53.5 16.5t29.5 16.5t8 -21.5t-20 -36.5q-150 -110 -203 -110q-64 0 -104 133q-3 10 -5 9q-124 -93 -156 -112q-82 -47 -164.5 -15t-119.5 106q-18 38 -18 81q0 85 63 135t240 96q60 16 107 41t49.5 32t2.5 13v192q0 113 -88 159 q-29 15 -69.5 15t-82 -32t-41.5 -91l5 -39q-6 -12 -72 -40t-76 -30q-16 0 -16 38.5t23 85.5t65 86q98 91 224 91t205 -69.5t79 -165.5v-527q0 -26 24.5 -41.5zM264 110.5q37 -35.5 84.5 -35.5t115.5 40.5t68 83.5v203q0 11 -5 11t-7 -1l-232 -108q-36 -26 -48.5 -44 t-12.5 -66t37 -83.5z" />
<glyph unicode="b" horiz-adv-x="1099" d="M314 837q0 -31 14.5 -31t127.5 65q132 56 201 56t132 -40t107 -105q93 -134 93 -325t-132.5 -337.5t-349.5 -146.5q-141 0 -260 34q-35 10 -59.5 16t-27 12.5t-2.5 15.5v1348q0 42 -46 58q-20 7 -43 11.5t-36.5 8.5t-17 7.5t-3.5 15t15 19.5l255 120q12 6 15 6 q17 0 17 -24v-784zM526 805q-89 0 -200 -64q-12 -7 -12 -24v-473q10 -91 79 -142t151 -51q144 0 222.5 114t78.5 260t-80 263t-239 117z" />
<glyph unicode="c" horiz-adv-x="934" d="M855 807q0 -70 -81 -70q-41 0 -69.5 23.5t-44 40t-32.5 30.5q-72 59 -175.5 13t-159.5 -196q-31 -83 -31 -165q0 -176 80 -287.5t245 -111.5q123 0 221 110q30 33 36 33t13 -6t7 -17.5t-6 -17.5q-153 -213 -385 -213q-168 0 -275.5 125t-107.5 286q1 298 144 429 q126 115 359 115q144 0 191 -29t66 -73q5 -10 5 -19z" />
<glyph unicode="d" horiz-adv-x="1090" d="M741 870q10 0 12.5 0.5t6.5 12.5v516q0 42 -46 58q-20 7 -43 11.5t-36.5 8.5t-17 7.5t-3.5 15t15 19.5l255 120q12 6 15 6q17 0 17 -24v-1424q5 -44 25 -63t65 -19l58 4q6 0 6 -11.5t-15 -18.5l-266 -110q-12 -6 -20.5 -6t-8.5 25v91q0 10 -5 10q-7 0 -83 -45 q-233 -138 -393 -41q-128 78 -173 247q-21 79 -21 167.5t36.5 176t100.5 153.5q141 144 340 144q81 0 125 -15.5t54 -15.5zM320 191.5q84 -113.5 234 -113.5q66 0 136 32.5t70 49.5v516q0 19 -26 45q-80 110 -212.5 110t-209 -111.5t-76.5 -263t84 -265z" />
<glyph unicode="e" horiz-adv-x="930" d="M231 527q-17 0 -17 -73q0 -155 92 -260t228.5 -105t262.5 118q2 2 5 2h5q6 0 11.5 -9.5t10.5 -12.5q-116 -141 -273 -195q-54 -19 -122 -19t-138 37.5t-120 98.5q-106 127 -106 316.5t115.5 345.5t317.5 156q145 0 237 -129.5t92 -227.5q0 -43 -21 -43h-580zM242 623 q0 -19 18 -19h377q26 0 26 31q0 72 -64.5 147.5t-141.5 75.5q-75 0 -136.5 -68t-78.5 -155v-12z" />
<glyph unicode="f" horiz-adv-x="624" d="M617 16q0 -16 -18 -16h-549q-10 2 -10 14q0 18 47 24q108 16 108 114v606q0 11 -12 11h-109q-12 0 -23 7.5t-11 20t12 19.5q17 10 80 27t63 56v33q0 360 156 554q87 109 265 168q54 18 107 18t124 -27.5t71 -66.5q0 -8 -2.5 -14t-5.5 -15l-41 -88q-8 -16 -19 -16 q-3 0 -43 31.5t-84.5 58t-104.5 26.5q-117 0 -177 -60t-75 -135.5t-15 -166.5v-291q0 -8 10 -8h195q28 0 36.5 -5.5t16.5 -36t8 -56t-5 -29.5t-21 -4h-227q-13 0 -13 -10v-587q0 -143 248 -143q18 -2 18 -13z" />
<glyph unicode="g" horiz-adv-x="1148" d="M819 831l268 12q23 0 30 -5t15 -34.5t8 -55.5t-5 -30t-20 -4h-222q6 -11 13 -23t18 -40t11 -86.5t-28.5 -122t-83.5 -112.5q-122 -110 -316 -110q-51 0 -112 19q-15 -16 -40 -29.5t-49 -27.5q-60 -34 -60 -68q0 -85 282 -87t370.5 -18.5t137.5 -65.5q77 -77 77 -176 q0 -85 -73 -175q-127 -159 -388 -212q-93 -19 -197 -19q-189 0 -287 68.5t-98 165.5q0 53 25 87.5t63.5 65t84.5 64t88 85.5q-96 8 -164.5 61t-68.5 104t27 75.5t66 42t82 32.5t75 39q-112 44 -173 121.5t-61 169.5q0 171 124.5 279t300.5 108t280 -98zM237 -261 q-15 -26 -15 -65.5t28.5 -83t77.5 -78.5q108 -80 260 -80t275.5 88.5t123.5 194t-102 141.5q-48 16 -247 20t-258 11q-26 -30 -53.5 -53t-51 -46t-38.5 -49zM700.5 794.5q-70.5 88.5 -186.5 88.5q-150 0 -212 -141q-24 -54 -24 -124q0 -143 59 -238q72 -114 189 -114t181 79 t64 220t-70.5 229.5z" />
<glyph unicode="h" horiz-adv-x="1124" d="M341 774q0 -24 7 -24t10 3.5t42 46.5q113 126 229 126q152 0 223 -68q87 -86 87 -289v-417q0 -98 108 -114q47 -6 47 -21t-10 -17h-446q-10 2 -10 14q0 18 47 24q108 16 108 114v407q0 147 -21 191q-40 88 -167 88q-78 0 -166 -66.5t-88 -146.5v-473q0 -98 108 -114 q47 -6 47 -21t-10 -17h-446q-10 2 -10 14q0 18 47 24q108 16 108 114v1247q0 42 -46 58q-20 7 -43 11.5t-36.5 8.5t-17 7.5t-3.5 15t15 19.5l255 120q12 6 15 6q17 0 17 -24v-847z" />
<glyph unicode="i" horiz-adv-x="576" d="M70 0q-10 2 -10 14q0 18 47 24q108 16 108 114v529q0 42 -46 58q-20 7 -43 11.5t-36.5 8.5t-17 7.5t-3.5 15t15 19.5l255 120q12 6 15 6q17 0 17 -24v-751q0 -98 108 -114q47 -6 47 -21t-10 -17h-446zM205.5 1234q-31.5 26 -31.5 72.5t30 73.5t71.5 27t70 -32t28.5 -69 t-27 -67.5t-68.5 -30.5t-73 26z" />
<glyph unicode="j" horiz-adv-x="577" d="M109 -543q106 25 106 226v998q0 42 -46 58q-20 7 -43 11.5t-36.5 8.5t-17 7.5t-3.5 15t15 19.5l255 120q12 6 15 6q17 0 17 -24v-1030q0 -160 -66 -291q-23 -45 -55 -82q-88 -118 -232 -134q-48 -6 -101.5 -6t-106.5 40.5t-57 87.5q0 54 53 80q17 8 30 8q23 0 138 -88 q41 -31 135 -31zM192 1234q-32 26 -32 72.5t30 73.5t72 27t70.5 -32t28.5 -69t-27 -67.5t-68.5 -30.5t-73.5 26z" />
<glyph unicode="k" horiz-adv-x="1096" d="M367 479q-12 0 -12 -49v-278q0 -98 108 -114q47 -6 47 -22t-10 -16h-446q-10 2 -10 14q0 18 47 24q108 16 108 114v1247q0 42 -46 58q-20 7 -43 11.5t-36.5 8.5t-17 7.5t-3.5 15t15 19.5l255 120q12 6 15 6q17 0 17 -24v-998q8 -29 21 -34t28 -5q29 0 95.5 45.5 t120.5 102t54 78t-19 27t-42.5 8t-42.5 8t-19 26.5t41 21h381q35 0 35 -23q0 -12 -23 -19t-89 -21.5t-105 -45.5l-287 -224q0 -13 19 -32l411 -433q40 -41 82 -53.5t56 -16.5t14 -14q0 -18 -16 -18h-439q-10 0 -10 12q0 18 25 23q75 14 75 51q0 11 -15 29t-28 35l-309 327 q0 1 -1 2h-1z" />
<glyph unicode="l" horiz-adv-x="521" d="M439 38q47 -6 47 -24q0 -12 -10 -14h-446q-10 2 -10 14q0 18 47 24q108 16 108 114v1247q0 42 -46 58q-20 7 -43 11.5t-36.5 8.5t-17 7.5t-3.5 15t15 19.5l255 120q12 6 15 6q17 0 17 -24v-1469q0 -98 108 -114z" />
<glyph unicode="m" horiz-adv-x="1732" d="M1388 315l-2 211q0 129 -22 181t-56 78.5t-91.5 26.5t-243.5 -90q-25 -15 -26 -28v-538q0 -101 108 -116q47 -7 47 -22.5t-10 -17.5h-446q-10 2 -10 14q0 19 47 26q108 15 108 116v498q0 157 -194 157q-71 0 -197 -84q-32 -21 -47 -39v-532q0 -101 108 -116 q47 -7 47 -22.5t-10 -17.5h-446q-10 2 -10 14q0 19 47 26q108 15 108 114v576q0 42 -46 58q-20 7 -43 11.5t-36.5 8.5t-17 7.5t-3.5 15t15 19.5l255 120q12 6 15 6q17 0 17 -24v-166q1 -6 7.5 -6t33 14t69.5 39.5t113.5 59.5t149.5 34q127 0 182 -109q21 -44 38 -37.5 t53 24.5q85 42 172 82t144 40q231 0 231 -421l-9 -292v-58q0 -78 78 -102q33 -11 63.5 -15.5t40 -8.5t9.5 -16t-10 -14h-482q-10 2 -10 14q0 19 47 26q107 15 107 124q8 50 8 151z" />
<glyph unicode="n" horiz-adv-x="1164" d="M804 315l-2 211q0 129 -22 181t-56 78.5t-91.5 26.5t-243.5 -90q-25 -15 -26 -28v-538q0 -101 108 -116q47 -7 47 -22.5t-10 -17.5h-446q-10 2 -10 14q0 19 47 26q108 15 108 116v574q0 42 -46 58q-20 7 -43 11.5t-36.5 8.5t-17 7.5t-3.5 15t15 19.5l255 120q12 6 15 6 q17 0 17 -24v-156q3 -10 8 -10q6 0 43 18q86 43 173 83t144 40q231 0 231 -421l-9 -292v-58q0 -78 78 -102q33 -11 63.5 -15.5t40 -8.5t9.5 -16t-10 -14h-482q-10 2 -10 14q0 19 47 26q107 15 107 124q8 50 8 151z" />
<glyph unicode="o" horiz-adv-x="1107" d="M214.5 787.5q139.5 141.5 334.5 141.5t339 -137.5t144 -339.5t-136.5 -340.5t-342.5 -138.5t-342 140t-136 336.5t139.5 338zM324 192q98 -165 267 -165q131 0 200.5 105t69.5 258t-97.5 314t-262.5 161q-121 0 -190.5 -104.5t-69.5 -265t83 -303.5z" />
<glyph unicode="p" horiz-adv-x="1090" d="M823 105q-138 -132 -310 -132q-62 0 -169 23q-17 0 -18.5 -12t-2.5 -25v-427q0 -75 87 -100q38 -10 71 -14.5t42.5 -8.5t9.5 -15.5t-10 -13.5h-501q-10 2 -10 14q0 18 47 24q108 16 108 114v1199q0 42 -46 58q-20 7 -43 11.5t-36.5 8.5t-17 7.5t-3.5 15t15 19.5l255 122 q8 4 16 4q16 0 16 -24v-127q0 -11 11.5 -11t55.5 29q127 82 264 82q96 0 176 -78q105 -102 140 -284q10 -52 10 -110.5t-19 -123.5q-38 -129 -138 -225zM537 822q-136 0 -214 -78v-562q0 -50 17 -65q44 -38 135 -59q180 -41 280 86q71 91 71 220q0 251 -113 376 q-68 76 -176 82z" />
<glyph unicode="q" horiz-adv-x="1096" d="M927 935q6 0 6 -6v-1397q0 -98 108 -114q47 -6 47 -21t-10 -17h-536q-10 2 -10 13.5t9.5 15.5t30 6.5t46.5 6.5q159 24 159 110v568q0 6 -4.5 6t-75.5 -41t-128.5 -66.5t-120.5 -25.5q-110 0 -187 71t-119 177t-42 207q0 204 141 351.5t340 147.5q123 0 241 -64h7 q19 0 41 24.5t31.5 36t15.5 11.5h10zM345.5 178.5q94.5 -94.5 195.5 -94.5t189 52q27 16 47 36v454q0 121 -68 182t-150 61q-146 0 -227 -126.5t-81 -298t94.5 -266z" />
<glyph unicode="r" horiz-adv-x="747" d="M678 717q-12 2 -35 13q-83 38 -130 38t-98.5 -58.5t-51.5 -105.5v-452q0 -75 87 -100q38 -10 71 -14.5t42.5 -8.5t9.5 -15.5t-10 -13.5h-501q-10 2 -10 14q0 18 47 24q108 16 108 114v529q0 42 -46 58q-20 7 -43 11.5t-36.5 8.5t-17 7.5t-3.5 15t15 19.5l255 120 q12 6 15 6q17 0 17 -24v-162q0 -12 6 -12q8 0 41 47q95 133 157 133q35 0 107.5 -28t72.5 -47q0 -23 -23 -70t-46 -47z" />
<glyph unicode="s" horiz-adv-x="685" d="M555 684q0 -22 -16.5 -22t-25.5 24q-24 66 -71.5 117t-117.5 51q-92 0 -124 -92q-10 -31 -10 -64t42 -73.5t138 -96.5t140 -95q100 -89 100 -206t-86 -185.5t-200 -68.5q-61 0 -110.5 16.5t-57 16.5t-24 -16.5t-26.5 -16.5h-17q-6 0 -15 108t-9 128t3.5 22t11.5 2 t13.5 -5t9.5 -12.5t6.5 -15.5t12.5 -30q68 -145 210 -145q63 0 101 46.5t38 103.5t-30 96t-74.5 71t-96.5 62q-202 118 -202 261q0 107 92 184.5t189 77.5t143.5 -21t54.5 -35.5t8 -94.5v-92z" />
<glyph unicode="t" horiz-adv-x="647" d="M313 769q-6 0 -6 -9v-552q0 -60 26.5 -94t67.5 -34t71.5 13.5t53 29.5t40.5 29.5t32 13.5t14 -7q0 -24 -5 -31q-120 -155 -231.5 -155t-168 70.5t-56.5 168.5v557h-75q-28 0 -29.5 18t5.5 23q53 34 146 122q10 11 27 33t49.5 60t49.5 38t17 -14q0 -2 -34 -131 q0 -18 16 -19h255q44 0 44 -124q0 -6 -8 -6h-301z" />
<glyph unicode="u" horiz-adv-x="1124" d="M754 88q-5 17 -13 11.5t-65 -34.5q-187 -93 -312 -93t-180 80q-20 30 -20 74v610q-3 29 -26 50q-31 26 -64.5 28t-33.5 20.5t16 22.5l229 66q12 4 23.5 4t11.5 -17v-671q0 -70 62 -108t158.5 -38t173.5 59q24 19 40 42v542q-3 29 -26 50q-31 26 -64.5 28t-33.5 20.5 t16 22.5l229 66q12 4 23.5 4t11.5 -20v-710q5 -44 25 -63t65 -19l58 4q6 0 6 -11.5t-15 -18.5l-266 -110q-12 -6 -20.5 -6t-8.5 25v90z" />
<glyph unicode="v" horiz-adv-x="1036" d="M1015 900q11 -3 11 -14t-3 -16t-44 -11t-58.5 -23.5t-31 -39.5t-23.5 -45.5t-19 -42.5l-273 -706q-12 -29 -22 -29h-79q-10 0 -22 31l-265 717q-37 101 -127 130q-7 2 -17 3q-42 4 -42 25t24 21h445q8 0 8 -15.5t-11 -20.5q-18 -7 -64 -6q-75 2 -75 -60l6 -24l203 -555 q20 -51 40 3l26 65q135 345 151.5 399t16.5 81t-29 56.5t-78 29.5t-49 30q0 17 22 17h379z" />
<glyph unicode="w" horiz-adv-x="1642" d="M1601 900q11 -3 11 -14t-3 -16t-44 -11t-58.5 -23.5t-31 -39.5t-23.5 -45.5t-19 -42.5l-273 -706q-12 -29 -22 -29h-79q-10 0 -22 31l-222 601l-233 -603q-12 -29 -22 -29h-79q-10 0 -22 31l-265 717q-37 101 -127 130q-7 2 -17 3q-42 4 -42 25t24 21h445q8 0 8 -15.5 t-11 -20.5q-18 -7 -62 -6q-73 2 -73 -60l2 -24l203 -555q20 -51 40 3q2 5 83.5 210t104.5 289q-37 101 -127 130q-7 2 -17 3q-42 4 -42 25t24 21h445q8 0 8 -15.5t-11 -20.5q-18 -7 -62 -6q-73 2 -73 -60l2 -24l203 -555q20 -51 40 3l26 65q123 308 145.5 380.5t22.5 99.5 t-29 56.5t-78 29.5t-49 30q0 17 22 17h379z" />
<glyph unicode="x" horiz-adv-x="1017" d="M921 900q8 0 8 -16t-8 -20q-77 -21 -123 -70q-17 -18 -37 -42l-193 -232q-4 -7 -4 -13q0 -12 87 -117.5t240 -298.5q11 -14 44 -28t45 -22.5t12 -22.5t-12 -18h-394q-10 0 -10 16t16.5 18.5t37.5 5.5q53 8 53 42q0 23 -25 51l-172 216q-8 11 -12.5 17t-17.5 6 t-20.5 -10.5t-15.5 -18.5l-157 -189q-21 -24 -21 -56t41.5 -50.5t73.5 -18.5q7 0 7 -15q0 -14 -7 -14h-321q-16 0 -16 18q0 14 55.5 40t67.5 40l277 333q-1 2 -3.5 5t-11.5 14t-28 34.5t-100.5 124t-171.5 212.5q-12 13 -50 29.5t-38 29.5q2 20 24 20h372q8 0 7.5 -12.5 t-15.5 -16t-33 -9.5q-48 -14 -48 -49q0 -23 9 -32l155 -192q8 -9 16.5 -19.5t15 -10.5t14.5 10l147 171q25 29 25 58t-16 40.5t-35.5 17t-35.5 10.5t-16 19.5t11 14.5h307z" />
<glyph unicode="y" horiz-adv-x="1082" d="M1046 900q11 -3 11 -14t-2 -14.5t-9.5 -6t-21 -4.5t-42.5 -7.5t-52 -40.5t-49 -97l-470 -1165l-65 -138q-25 -53 -105 -53q-35 0 -56 23t-21 54.5t15.5 46t36.5 23.5t43.5 16.5t50.5 34t33 39.5q168 376 168 393t-20 42l-330 689q-37 101 -127 130q-7 2 -17 3 q-42 4 -42 25t24 21h445q8 0 8 -15.5t-14 -21t-62 -5.5q-77 0 -77 -60l9 -24l259 -555q20 -51 40 3q2 5 25 65q136 345 152.5 399t16.5 81t-28.5 57t-78 30t-49.5 29q0 17 22 17h379z" />
<glyph unicode="z" horiz-adv-x="915" d="M310.5 116q-3.5 -5 -3.5 -12.5t6 -7.5h385q63 0 110 79q33 55 44.5 67t25 12t13.5 -12l-74 -196q-2 -4 -7.5 -25t-20.5 -21h-705q-22 0 -22 20q0 14 6 25l503 690q10 14 17.5 24t9 22t-132.5 12h-205q-81 0 -115 -101q-9 -27 -20.5 -64.5t-28.5 -37.5q-10 0 -10 4l57 334 q3 12 16.5 12t25.5 -20.5t29 -22.5q75 -10 205 -10t421 6q10 -3 10 -24.5t-16 -34.5l-516 -707q-4 -6 -7.5 -11z" />
<glyph unicode="{" horiz-adv-x="1058" d="M837 -285q13 0 13 -35.5t-13 -35.5h-34q-185 0 -327 81q-167 95 -167 283q0 80 27 184.5t40 157.5t13 99q0 204 -154 215q-29 7 -29 33q0 48 29 48q154 0 154 164q0 57 -13 112t-40 162t-27 187q0 149 131.5 247.5t372.5 98.5q37 0 37 -30q0 -41 -27 -41 q-244 0 -317 -162q-21 -45 -21 -135t18.5 -204.5t18.5 -178t-21 -108.5t-43 -66q-16 -19 -29.5 -32t-28.5 -28t-15 -29q0 -15 29.5 -44.5t43.5 -45.5q64 -76 64 -151.5t-18.5 -198.5t-18.5 -220q0 -217 178 -288q100 -39 174 -39z" />
<glyph unicode="|" horiz-adv-x="431" d="M150 1645h131v-1680h-131v1680z" />
<glyph unicode="}" horiz-adv-x="1063" d="M823 745q29 0 29 -48q0 -26 -29 -33q-154 -11 -154 -211q0 -50 13 -103t40 -159t27 -180q0 -132 -74.5 -211.5t-186.5 -117.5t-233 -38h-32q-15 0 -15 35.5t13 35.5q74 0 145 28t112 61q95 79 95 206.5t-18.5 251.5t-18.5 164q0 112 57 178q21 24 50.5 53.5t29.5 44.5 q0 14 -15 29t-28.5 28t-29.5 32q-22 21 -43 66t-21 107.5t18.5 179t18.5 205.5t-21 134q-73 162 -317 162q-27 0 -27 41q0 30 37 30q150 0 233.5 -28.5t141.5 -71.5q129 -97 129 -248q0 -80 -27 -186t-40 -161t-13 -113t32.5 -100.5t121.5 -62.5z" />
<glyph unicode="~" horiz-adv-x="1049" d="M958 781q0 -144 -65.5 -229.5t-157.5 -85.5q-52 0 -95.5 21t-121.5 74q-131 89 -185 89q-121 0 -124 -180h-119q0 145 65 230t158 85q61 0 114.5 -19t160.5 -97q15 -9 32 -21q67 -47 111.5 -47t76.5 44t32 136h118z" />
<glyph unicode="&#xa1;" horiz-adv-x="489" d="M130 805q0 -48 33.5 -81.5t80.5 -33.5t81 36t34 83t-32 81t-80.5 34t-82.5 -34t-34 -85zM280 -596q20 0 41 1t26 15v52l-74 962q-5 39 -30 39q-26 0 -31 -39l-74 -962v-52q0 -14 15 -14l90 -2h37z" />
<glyph unicode="&#xa2;" horiz-adv-x="934" d="M395 142q75 -58 195 -58t218 110q30 33 36 33t13 -6t7 -17.5t-6 -17.5q-153 -213 -385 -213q-70 0 -130 23l-126 -355h-129l148 418q-146 127 -145 366.5t120 363.5t332 137l69 194h130l-69 -194q137 -11 177 -100q5 -10 5 -19q0 -70 -81 -70q-40 0 -66 21t-41 36t-30 29 zM262 474q0 -125 44 -219l214 606q-45 -8 -80 -32q-178 -100 -178 -355z" />
<glyph unicode="&#xa3;" horiz-adv-x="1049" d="M560 225q122 -122 242 -122q73 0 128 78q22 30 32.5 57t10.5 33h40q-6 -101 -65 -185q-81 -113 -230 -113q-73 0 -150 66q-30 25 -48 46.5t-21 22.5q-57 -86 -143 -122q-31 -13 -64 -13h-7q-125 0 -159 97q-10 29 -10 64q0 75 62 127t144.5 52t141.5 -37q10 -6 12 -6 q5 22 5 75q0 95 -93 278h-211q-24 0 -24 16v24q0 17 24 17h181q-75 147 -89.5 215.5t-14.5 130.5t28 129.5t75 116.5q101 107 241 107q141 0 249 -68.5t108 -163.5q0 -44 -33 -63q-11 -7 -28.5 -7t-32.5 9t-26.5 24t-21 33.5t-25.5 46.5q-78 136 -182.5 136t-168 -56 t-63.5 -130t17 -134.5t42.5 -115t55 -105.5t53.5 -105h189q24 0 24 -17v-24q0 -16 -24 -16h-166q30 -81 30 -189t-35 -209zM451 165q-71 92 -161 92q-50 0 -87.5 -39t-37.5 -99.5t64 -90.5q20 -10 65 -10t91.5 50.5t65.5 96.5z" />
<glyph unicode="&#xa4;" horiz-adv-x="1049" d="M747 404q-97 -74 -218.5 -74t-222.5 79l-192 -191l-62 62l194 193q-65 92 -65 210.5t76 211.5l-196 198l63 63l197 -198q95 72 211 72t207 -67l194 194l62 -62l-194 -195q83 -98 83 -215.5t-74 -218.5l187 -188l-62 -62zM352.5 502.5q73.5 -75.5 178.5 -75.5t180 75 t75 180t-75 178.5t-180 73.5q-106 0 -179 -74.5t-73 -178t73.5 -179z" />
<glyph unicode="&#xa5;" horiz-adv-x="1569" d="M312 535q-35 0 -35 25v36q0 25 35 25h323l-349 557q-96 153 -190 176q-5 1 -18 4t-58 10q-16 3 -16 22.5t15 19.5h572q17 0 17 -20t-17 -20q-67 -7 -89 -14q-50 -18 -50 -64q0 -24 12 -43l338 -540q11 -16 13.5 -20.5t11 -4.5t26.5 29l270 459q12 24 27.5 51.5t15.5 56.5 q0 73 -100 86q-36 5 -39 11t-3 15q0 18 17 18h467q14 0 14 -14t-4.5 -19t-12 -7.5t-16.5 -4t-39 -8.5q-70 -17 -152 -111q-9 -11 -10 -13l-356 -612h346q35 0 35 -25v-36q0 -25 -35 -25h-385v-155h385q35 0 35 -25v-36q0 -25 -35 -25h-385v-114q0 -54 30.5 -85t103 -40.5 t72.5 -23.5v-11q0 -20 -34 -20h-539q-34 0 -34 20v10q0 16 29.5 19.5t38.5 4.5q76 8 107 37.5t31 88.5v114h-386q-35 0 -35 25v36q0 25 35 25h386v131q0 11 -9 24h-377z" />
<glyph unicode="&#xa6;" horiz-adv-x="788" d="M459 1645v-750h-121v750h121zM459 717v-752h-121v752h121z" />
<glyph unicode="&#xa7;" horiz-adv-x="1114" d="M954 1430q0 -75 -104 -75q-24 0 -51 25.5t-59 56.5q-86 82 -165 82t-140 -44q-22 -16 -51 -39q-40 -67 -40 -111.5t27.5 -108t62.5 -109.5q34 -60 88.5 -132t115.5 -155q156 -210 234 -370q112 -230 112 -433.5t-134 -370.5q-96 -120 -254 -179q-80 -30 -180 -37 q-87 0 -191.5 48t-104.5 114q0 75 104 75q25 0 51.5 -25.5t59.5 -56.5q87 -82 164.5 -82t154.5 54t77 135t-83 206.5t-153 222.5t-131 185q-140 199 -207 357t-67 343t140 371q96 129 246 186q77 29 135 29q172 0 289 -80q54 -36 54 -82zM811 -277q77 112 77 293.5 t-70.5 324.5t-152 260t-169.5 242.5t-129 205.5q-72 101 -104 250q-82 -146 -82 -308q0 -108 36 -199q22 -98 104 -234t211.5 -323t158.5 -235q84 -135 119 -277h1z" />
<glyph unicode="&#xa8;" horiz-adv-x="700" d="M666 1240q0 -89 -70 -119q-22 -9 -58.5 -9t-71 33t-34.5 82.5t34.5 84t83 34.5t82.5 -34t34 -72zM150 1112q-50 0 -83.5 33.5t-33.5 82t33.5 83.5t83.5 35t83.5 -35t33.5 -83.5t-33.5 -82t-83.5 -33.5z" />
<glyph unicode="&#xa9;" horiz-adv-x="1717" d="M90 723q0 207 102.5 381.5t277 277t381.5 102.5t381.5 -102.5t277 -277t102.5 -381.5t-102.5 -381.5t-277 -277t-381.5 -102.5t-381.5 102.5t-277 277t-102.5 381.5zM210 900q-24 -85 -24 -176q0 -180 90 -333.5t243 -242.5t331 -89q275 0 470 195q123 123 171 293 q24 85 24 177q0 178 -89 331t-242.5 243t-333.5 90q-178 0 -335 -91q-231 -134 -305 -397zM1168 302q-2 -5 -14 -2t-30 3t-49 -7t-97.5 -22t-139.5 -15t-165.5 33.5t-162.5 95.5q-152 133 -152 346.5t148 353t366 139.5q87 0 169 -20.5t103 -29.5t29 -9l20 5h20q8 0 8 -11 v-203q0 -7 -11.5 -7t-17 9t-12.5 25q-100 196 -290 196t-290 -115.5t-100 -303.5t111.5 -323t305.5 -135t323 215q1 4 8 4h8q7 0 7 -7.5t-4 -15.5z" />
<glyph unicode="&#xaa;" horiz-adv-x="591" d="M483.8 696.665q16.8076 -10.626 38.7607 -10.626t36.7031 11.3115t20.2383 11.3115t5.48828 -14.7393t-13.7207 -25.0225q-102.905 -75.4102 -139.266 -75.4102q-43.9062 0 -71.3477 91.1777q-2.05762 6.85547 -3.42969 6.16992q-85.0684 -63.7559 -107.021 -76.7812 q-56.2549 -32.2207 -112.853 -10.2832q-56.5986 21.9375 -81.9814 72.668q-12.3486 26.0508 -12.3486 55.5293q0 58.2715 43.2197 92.5488q43.2207 34.2773 164.648 65.8125q41.1621 10.9688 73.4062 28.1074t33.959 21.9375t1.71484 8.91211v131.625 q0 77.4668 -60.3711 109.002q-19.8945 10.2832 -47.6797 10.2832q-27.7842 0 -56.2549 -21.9375q-28.4697 -21.9375 -28.4697 -62.3848l3.42969 -26.7363q-4.11621 -8.22656 -49.3945 -27.4219t-52.1387 -20.5664q-10.9766 0 -10.9766 26.3936t15.7793 58.6143 q15.7783 32.2207 44.5918 58.957q67.2314 62.3848 153.672 62.3848t140.637 -47.6455q54.1973 -47.6455 54.1973 -113.458v-361.283q0 -17.8242 16.8076 -28.4502zM176.113 687.753q25.3828 -24.3369 57.9697 -24.3369t79.2373 27.7646t46.6504 57.2432v139.166 q0 7.54102 -3.42969 7.54102q-3.43066 0 -4.80273 -0.685547l-159.16 -74.0391q-24.6973 -17.8242 -33.2725 -30.1641t-8.5752 -45.2461t25.3828 -57.2432z" />
<glyph unicode="&#xab;" horiz-adv-x="791" d="M397 927l-188 -375l190 -373h-49l-282 373l282 375h47zM679 927l-188 -375l190 -373h-49l-282 373l282 375h47z" />
<glyph unicode="&#xac;" horiz-adv-x="1049" d="M952 689v-508h-127v381h-737v127h864z" />
<glyph unicode="&#xad;" horiz-adv-x="913" d="M828 578v-137h-743v137h743z" />
<glyph unicode="&#xae;" horiz-adv-x="1702" d="M90 723q0 207 102.5 381.5t277 277t381.5 102.5t381.5 -102.5t277 -277t102.5 -381.5t-102.5 -381.5t-277 -277t-381.5 -102.5t-381.5 102.5t-277 277t-102.5 381.5zM210 900q-24 -85 -24 -176q0 -180 90 -333.5t243 -242.5t331 -89q275 0 470 195q123 123 171 293 q24 85 24 177q0 178 -89 331t-242.5 243t-333.5 90q-178 0 -335 -91q-231 -134 -305 -397zM455 320q-5 0 -5 12v7q0 5 5 5l54 8q61 14 61 70v634q0 50 -42 73q-23 13 -52 13h-23q-5 0 -5 5v14q0 5 8 5l329 9h60q107 -8 178.5 -77.5t71.5 -172.5q0 -124 -142 -190l181 -297 q47 -78 128 -110q6 -2 6 -8q0 -15 -20 -15q-135 0 -214 103q-18 22 -35 51l-156 243l-142 7h-5q-9 0 -9 -9v-276q0 -48 44 -64q16 -5 39 -8l54 -8q5 0 5 -5v-14q0 -5 -5 -5h-369zM687 769q2 -31 12 -31l62 -4q168 0 203 120q11 38 11 86q0 95 -58.5 149.5t-151.5 54.5h-15 l-30 -1q-33 0 -33 -11v-363z" />
<glyph unicode="&#xaf;" horiz-adv-x="699" d="M26 1322h647v-129h-647v129z" />
<glyph unicode="&#xb0;" horiz-adv-x="1049" d="M368 1148q0 -64 46 -110t110 -46t110 46t46 110t-45.5 109.5t-110.5 45.5t-110.5 -45.5t-45.5 -109.5zM295 1150q0 95 67 162t162 67t162 -67t67 -162q0 -94 -66.5 -162t-162.5 -68t-162.5 68t-66.5 162z" />
<glyph unicode="&#xb1;" horiz-adv-x="1049" d="M88 689h371v367h135v-367h366v-127h-366v-378h-135v378h-371v127zM88 127h872v-127h-872v127z" />
<glyph unicode="&#xb2;" horiz-adv-x="685" d="M51 552q-3 0 -3 16q0 17 29 47.5t75.5 74t127.5 120t144 156.5t63 152t-49.5 120t-127 48t-115 -38t-51 -62.5t-22.5 -41.5t-18 -26.5t-21.5 -9.5t-12.5 4q0 105 79 186t199 81t189.5 -68t69.5 -171.5t-148 -247.5q-42 -41 -126 -119t-119 -120h305q45 0 57.5 18.5 t17.5 37.5t13 45h34l-31 -182q-5 -15 -15 -20h-544z" />
<glyph unicode="&#xb3;" horiz-adv-x="661" d="M513 1239q0 -94 -108 -187q94 -4 142 -75.5t48 -138.5q0 -124 -106 -213t-227.5 -89t-189.5 54q-26 20 -26 49.5t8.5 45.5t36.5 16t48.5 -16.5t44.5 -36.5q64 -55 115 -54q90 3 132 66.5t42 150t-35 121.5t-81.5 35t-62.5 -9t-21 -9q-33 0 -33 19q0 8 33 30 q101 81 127 143q12 28 12 67t-35 62t-83 23q-116 0 -183 -124q-15 0 -28 3.5t-13 5.5t1 4.5t1.5 5.5t2.5 8l11 28q25 61 88.5 108t150 47t137.5 -38t51 -102z" />
<glyph unicode="&#xb4;" horiz-adv-x="700" d="M172 1096q-4 4 -4 6t4 6l213 295q36 49 71 49t55.5 -22.5t20.5 -60.5t-55 -85l-269 -217q-5 -3 -8 -3t-6 3z" />
<glyph unicode="&#xb5;" horiz-adv-x="1100" d="M745 -2v96q-3 4 -7 4h-7q-2 0 -77.5 -36t-139 -62.5t-109 -26.5t-94.5 11v-548q0 -16 -9 -20l-135 -56q-9 0 -10.5 3.5t-1.5 17.5v1498q0 14 1.5 17.5t10.5 3.5h132q9 0 10.5 -3.5t1.5 -17.5v-660q0 -64 70.5 -105.5t128.5 -41.5t107.5 17.5t65 27.5t31.5 19t31 28v715 q0 14 1.5 17.5t10.5 3.5h132q9 0 10.5 -3.5t1.5 -17.5v-682q5 -44 25 -63t65 -19l58 4q6 0 6 -11.5t-15 -18.5l-266 -110q-12 -6 -20.5 -6t-8.5 25z" />
<glyph unicode="&#xb6;" horiz-adv-x="1110" d="M915 -290q0 -18 -17 -18h-55q-11 0 -13.5 6.5t-2.5 28.5v1789h-166v-1791q0 -19 -2.5 -26t-13.5 -7h-56q-11 0 -13 8.5t-2 28.5v1106q-128 6 -189 20q-132 30 -208.5 106.5t-76.5 227.5q0 272 196 349q118 46 327 52q99 2 214 2h213q25 0 25 -16v-39q0 -16 -27 -16h-133 v-1811z" />
<glyph unicode="&#xb7;" horiz-adv-x="520" d="M168 768.5q38 39.5 92 39.5q53 0 91.5 -38.5t38.5 -93.5t-38.5 -91.5t-91.5 -36.5t-91.5 37t-38.5 90.5t38 93z" />
<glyph unicode="&#xb8;" horiz-adv-x="700" d="M156 -532q-56 0 -56 43q0 19 14.5 24t38 9t70 13t90 36.5t43.5 77t-50 79t-100 35.5l174 215h101l-132 -154q72 -19 106 -67t34 -84q-16 -194 -333 -227z" />
<glyph unicode="&#xb9;" horiz-adv-x="661" d="M150 552q-4 0 -4 24t6 24q31 2 51 3t48.5 3t32.5 24q2 11 2 28v585q0 1 -58 -40t-97 -51q-6 0 -15 15.5t-9 17.5t23.5 17.5t87 68.5t112.5 108h75q12 0 12 -11v-708q0 -34 12 -45t52.5 -11t50.5 -3q3 -1 3 -25t-5 -24h-380z" />
<glyph unicode="&#xba;" horiz-adv-x="761" d="M124.5 1436q95.5 97 228.5 97t232.5 -94t99.5 -233t-93.5 -234t-235 -95t-234.5 97t-93 231t95.5 231zM204.5 1020.5q61.5 -105.5 178.5 -105.5q91 0 138 71.5t47 144.5q0 140 -67 249.5t-165 109.5t-145.5 -72t-47.5 -182t61.5 -215.5z" />
<glyph unicode="&#xbb;" horiz-adv-x="791" d="M441 927l282 -375l-282 -373h-49l190 373l-188 375h47zM159 927l282 -375l-282 -373h-49l190 373l-188 375h47z" />
<glyph unicode="&#xbc;" horiz-adv-x="1550" d="M1317 1480h130l-1101 -1535h-129zM121 552q-4 0 -4 24t6 24q31 2 51 3t48.5 3t32.5 24q2 11 2 28v585q0 1 -58 -40t-97 -51q-6 0 -15 15.5t-9 17.5t23.5 17.5t87 68.5t112.5 108h75q12 0 12 -11v-708q0 -34 12 -45t52.5 -11t50.5 -3q3 -1 3 -25t-5 -24h-380zM870 261 q-15 0 -15 11t2 14l393 551q10 13 32 13h30q35 0 35 -15v-498h98q19 0 19 -11v-51q0 -14 -12 -14h-105v-247q0 -13 -10 -13h-98q-13 0 -13 14v246h-356zM1226 684l-237 -347h237v347z" />
<glyph unicode="&#xbd;" horiz-adv-x="1550" d="M1239 1480h130l-1101 -1535h-129zM891 1q-3 0 -3 16q0 17 29 47.5t75.5 74t127.5 120t144 156.5t63 152t-49.5 120t-127 48t-115 -38t-51 -62.5t-22.5 -41.5t-18 -26.5t-21.5 -9.5t-12.5 4q0 105 79 186t199 81t189.5 -68t69.5 -171.5t-148 -247.5q-42 -41 -126 -119 t-119 -120h305q45 0 57.5 18.5t17.5 37.5t13 45h34l-31 -182q-5 -15 -15 -20h-544zM101 552q-4 0 -4 24t6 24q31 2 51 3t48.5 3t32.5 24q2 11 2 28v585q0 1 -58 -40t-97 -51q-6 0 -15 15.5t-9 17.5t23.5 17.5t87 68.5t112.5 108h75q12 0 12 -11v-708q0 -34 12 -45t52.5 -11 t50.5 -3q3 -1 3 -25t-5 -24h-380z" />
<glyph unicode="&#xbe;" horiz-adv-x="1550" d="M1329 1480h130l-1101 -1535h-129zM516 1239q0 -94 -108 -187q94 -4 142 -75.5t48 -138.5q0 -124 -106 -213t-227.5 -89t-189.5 54q-26 20 -26 49.5t8.5 45.5t36.5 16t48.5 -16.5t44.5 -36.5q64 -55 115 -54q90 3 132 66.5t42 150t-35 121.5t-81.5 35t-62.5 -9t-21 -9 q-33 0 -33 19q0 8 33 30q101 81 127 143q12 28 12 67t-35 62t-83 23q-116 0 -183 -124q-15 0 -28 3.5t-13 5.5t1 4.5t1.5 5.5t2.5 8l11 28q25 61 88.5 108t150 47t137.5 -38t51 -102zM867 261q-15 0 -15 11t2 14l393 551q10 13 32 13h30q35 0 35 -15v-498h98q19 0 19 -11 v-51q0 -14 -12 -14h-105v-247q0 -13 -10 -13h-98q-13 0 -13 14v246h-356zM1223 684l-237 -347h237v347z" />
<glyph unicode="&#xbf;" horiz-adv-x="778" d="M688 -428q0 -86 -169.5 -86t-281.5 110t-112 279q0 234 241 356q25 12 56 22.5t59 24.5q66 35 66 95q0 37 -29.5 89.5t-29.5 62.5q0 18 17 18t36 -33q68 -121 74 -178l2 -27q0 -109 -89 -161q-40 -23 -89 -38.5t-106 -39t-109 -88t-52 -131.5t24 -105t90.5 -66t293.5 -28 q108 -12 108 -76zM625 811.5q0 -46.5 -33 -81t-82 -34.5q-48 0 -81 34.5t-33 81t33.5 81.5t80.5 35q48 0 81.5 -35t33.5 -81.5z" />
<glyph unicode="&#xc0;" horiz-adv-x="1457" d="M532 8q0 -8 -8 -8h-511q-8 0 -8 8v24q0 8 13 8q137 6 185 146l408 1181q1 2 1 5l-11 33q0 5 4 5h200q2 -1 5.5 -2t5.5 -6l423 -1187q14 -27 22.5 -49t19.5 -40q24 -41 79 -63q46 -23 84 -23q8 0 8 -9v-23q0 -8 -8 -8h-612q-8 0 -8 8v24q0 8 37 10t61 4q139 15 139 94 q0 6 -2 14l-151 426q-1 2 -4 9q-12 34 -42 34h-355q-30 0 -47 -33q-3 -7 -3 -8l-150 -439v-9q0 -26 27 -47q61 -47 164 -47h26q8 0 8 -8v-24zM828 734q18 0 18 15q0 8 -4 18l-149 410q-10 27 -15 27t-16 -28l-140 -409q-4 -10 -4 -21.5t15 -11.5h295zM822 1565q-4 -4 -7 -4 t-7 4l-269 217q-55 47 -55 85t20.5 60.5t55.5 22.5t71 -49l213 -295q4 -4 4 -6t-4 -6z" />
<glyph unicode="&#xc1;" horiz-adv-x="1457" d="M532 8q0 -8 -8 -8h-511q-8 0 -8 8v24q0 8 13 8q137 6 185 146l408 1181q1 2 1 5l-11 33q0 5 4 5h200q2 -1 5.5 -2t5.5 -6l423 -1187q14 -27 22.5 -49t19.5 -40q24 -41 79 -63q46 -23 84 -23q8 0 8 -9v-23q0 -8 -8 -8h-612q-8 0 -8 8v24q0 8 37 10t61 4q139 15 139 94 q0 6 -2 14l-151 426q-1 2 -4 9q-12 34 -42 34h-355q-30 0 -47 -33q-3 -7 -3 -8l-150 -439v-9q0 -26 27 -47q61 -47 164 -47h26q8 0 8 -8v-24zM828 734q18 0 18 15q0 8 -4 18l-149 410q-10 27 -15 27t-16 -28l-140 -409q-4 -10 -4 -21.5t15 -11.5h295zM682 1595q-4 4 -4 6 t4 6l213 295q36 49 71 49t55.5 -22.5t20.5 -60.5t-55 -85l-269 -217q-5 -3 -8 -3t-6 3z" />
<glyph unicode="&#xc2;" horiz-adv-x="1457" d="M532 8q0 -8 -8 -8h-511q-8 0 -8 8v24q0 8 13 8q137 6 185 146l408 1181q1 2 1 5l-11 33q0 5 4 5h200q2 -1 5.5 -2t5.5 -6l423 -1187q14 -27 22.5 -49t19.5 -40q24 -41 79 -63q46 -23 84 -23q8 0 8 -9v-23q0 -8 -8 -8h-612q-8 0 -8 8v24q0 8 37 10t61 4q139 15 139 94 q0 6 -2 14l-151 426q-1 2 -4 9q-12 34 -42 34h-355q-30 0 -47 -33q-3 -7 -3 -8l-150 -439v-9q0 -26 27 -47q61 -47 164 -47h26q8 0 8 -8v-24zM828 734q18 0 18 15q0 8 -4 18l-149 410q-10 27 -15 27t-16 -28l-140 -409q-4 -10 -4 -21.5t15 -11.5h295zM732 1788q-3 3 -11 12 t-10 9t-9.5 -9t-10.5 -12l-214 -224q-4 -4 -9.5 -4t-15.5 13.5t-10 18.5t7 15l238 323q6 6 12.5 13t11.5 7q9 0 26 -22l248 -321q7 -11 7 -15.5t-10 -18t-14.5 -13.5t-8.5 4z" />
<glyph unicode="&#xc3;" horiz-adv-x="1457" d="M532 8q0 -8 -8 -8h-511q-8 0 -8 8v24q0 8 13 8q137 6 185 146l408 1181q1 2 1 5l-11 33q0 5 4 5h200q2 -1 5.5 -2t5.5 -6l423 -1187q14 -27 22.5 -49t19.5 -40q24 -41 79 -63q46 -23 84 -23q8 0 8 -9v-23q0 -8 -8 -8h-612q-8 0 -8 8v24q0 8 37 10t61 4q139 15 139 94 q0 6 -2 14l-151 426q-1 2 -4 9q-12 34 -42 34h-355q-30 0 -47 -33q-3 -7 -3 -8l-150 -439v-9q0 -26 27 -47q61 -47 164 -47h26q8 0 8 -8v-24zM828 734q18 0 18 15q0 8 -4 18l-149 410q-10 27 -15 27t-16 -28l-140 -409q-4 -10 -4 -21.5t15 -11.5h295zM913 1812q63 0 80 69 q5 18 5 32.5t16 14.5h19q14 0 14 -56.5t-45 -116.5t-109.5 -60t-131.5 35q-128 69 -168.5 69t-69.5 -34.5t-29 -80.5q0 -12 -16 -12h-21q-8 0 -8 31q0 81 43 147.5t105.5 66.5t169 -52.5t146.5 -52.5z" />
<glyph unicode="&#xc4;" horiz-adv-x="1457" d="M532 8q0 -8 -8 -8h-511q-8 0 -8 8v24q0 8 13 8q137 6 185 146l408 1181q1 2 1 5l-11 33q0 5 4 5h200q2 -1 5.5 -2t5.5 -6l423 -1187q14 -27 22.5 -49t19.5 -40q24 -41 79 -63q46 -23 84 -23q8 0 8 -9v-23q0 -8 -8 -8h-612q-8 0 -8 8v24q0 8 37 10t61 4q139 15 139 94 q0 6 -2 14l-151 426q-1 2 -4 9q-12 34 -42 34h-355q-30 0 -47 -33q-3 -7 -3 -8l-150 -439v-9q0 -26 27 -47q61 -47 164 -47h26q8 0 8 -8v-24zM828 734q18 0 18 15q0 8 -4 18l-149 410q-10 27 -15 27t-16 -28l-140 -409q-4 -10 -4 -21.5t15 -11.5h295zM1046 1811 q0 -89 -70 -119q-22 -9 -58.5 -9t-71 33t-34.5 82.5t34.5 84t83 34.5t82.5 -34t34 -72zM530 1683q-50 0 -83.5 33.5t-33.5 82t33.5 83.5t83.5 35t83.5 -35t33.5 -83.5t-33.5 -82t-83.5 -33.5z" />
<glyph unicode="&#xc5;" horiz-adv-x="1457" d="M532 8q0 -8 -8 -8h-511q-8 0 -8 8v24q0 8 13 8q137 6 185 146l408 1181q1 2 1 5l-11 33q0 5 4 5h200q2 -1 5.5 -2t5.5 -6l423 -1187q14 -27 22.5 -49t19.5 -40q24 -41 79 -63q46 -23 84 -23q8 0 8 -9v-23q0 -8 -8 -8h-612q-8 0 -8 8v24q0 8 37 10t61 4q139 15 139 94 q0 6 -2 14l-151 426q-1 2 -4 9q-12 34 -42 34h-355q-30 0 -47 -33q-3 -7 -3 -8l-150 -439v-9q0 -26 27 -47q61 -47 164 -47h26q8 0 8 -8v-24zM828 734q18 0 18 15q0 8 -4 18l-149 410q-10 27 -15 27t-16 -28l-140 -409q-4 -10 -4 -21.5t15 -11.5h295zM589.5 1929 q53.5 55 130.5 55t130.5 -55t53.5 -130t-54 -129t-130 -54t-130 54t-54 129t53.5 130zM731 1914q-85 0 -116 -71q-9 -20 -9 -55.5t33 -68.5t79.5 -33t81 32.5t34.5 80t-34 81.5t-69 34z" />
<glyph unicode="&#xc6;" horiz-adv-x="1930" d="M518 0h-502q-12 0 -14 5t-2 18.5t18.5 21t50.5 13.5t48.5 18.5t29.5 29.5t24.5 38t81 131.5t163.5 263.5t164 267q166 271 225 370t59 129.5t-28 49t-67 18.5h-108q-3 0 -8 5.5t-5 11.5q0 20 18 20h1031q18 0 26 -7t10 -29l18 -289q0 -10 -15 -10t-22 9q-6 10 -15.5 73 t-34.5 105t-88 53h-417q-13 0 -13 -13v-518q0 -10 10 -10h346q124 0 124 156q0 8 8 8h24q8 0 8 -8v-428q0 -8 -8 -8h-24q-8 0 -8 8q0 148 -86 170q-24 7 -51 7h-333q-10 0 -10 -10v-486q0 -75 69 -85q20 -3 42 -3h333q103 0 160 91q41 65 50 149q3 28 30 28q12 0 12 -13 l-33 -336q-6 -14 -14 -14h-1115q-30 0 -30 20.5t38 23.5t86 4q177 4 177 130v445h-320q-26 0 -49 -33q-5 -7 -6 -8l-265 -439q-3 -9 -3 -27q0 -37 80 -59q46 -12 124 -16q24 -5 24 -23t-18 -18zM635 750q-9 -17 -9 -21q0 -13 32 -13h293v469q-7 19 -11 19q-9 0 -24 -8 t-19 -20z" />
<glyph unicode="&#xc7;" horiz-adv-x="1566" d="M564 -532q-56 0 -56 43q0 19 15 24t38 9t69.5 13t90 36.5t43.5 77t-50 79t-100 35.5l158 196q-287 35 -477 229t-190 486q0 219 107 395q156 258 470 336q100 25 200 25q137 0 325 -46q57 -14 96.5 -29t48.5 -15l30 8h31q12 0 12 -17v-311q0 -10 -18 -10t-21 4.5t-6 11 t-6.5 13.5t-7 13t-4.5 9q-150 301 -455 301q-275 0 -430 -175t-155 -463.5t170.5 -495.5t463.5 -207q160 0 291.5 95t206.5 233q2 6 12 6h13q10 0 10 -12t-6 -23l-138 -304q-5 -7 -13 -7q-55 14 -116.5 0.5t-163.5 -36t-165 -22.5h-21l-109 -127q72 -19 106 -67t34 -84 q-16 -194 -333 -227z" />
<glyph unicode="&#xc8;" horiz-adv-x="1264" d="M7 8v28q0 8 8 8h22q42 3 86 3.5t80 10.5q82 24 82 120v1054q0 99 -117 126q-33 7 -67 12h-21q-8 0 -8 8v24q0 8 8 8h951q18 0 26 -6.5t10 -28.5l18 -290q0 -10 -15 -10t-22 9q-6 10 -15.5 73t-34.5 105t-88 53h-417q-13 0 -13 -13v-517q0 -10 10 -10h346q134 0 134 156 q0 8 8 8h24q8 0 8 -8v-428q0 -8 -8 -8h-24q-8 0 -8 8q0 148 -86 171q-24 6 -51 6h-343q-10 0 -10 -10v-487q0 -75 69 -85q20 -3 42 -3h333q103 0 160 91q41 65 50 149q3 28 30 28q12 0 12 -13l-33 -336q-6 -14 -14 -14h-1114q-8 0 -8 8zM753 1565q-4 -4 -7 -4t-7 4l-269 217 q-55 47 -55 85t20.5 60.5t55.5 22.5t71 -49l213 -295q4 -4 4 -6t-4 -6z" />
<glyph unicode="&#xc9;" horiz-adv-x="1264" d="M7 8v28q0 8 8 8h22q42 3 86 3.5t80 10.5q82 24 82 120v1054q0 99 -117 126q-33 7 -67 12h-21q-8 0 -8 8v24q0 8 8 8h951q18 0 26 -6.5t10 -28.5l18 -290q0 -10 -15 -10t-22 9q-6 10 -15.5 73t-34.5 105t-88 53h-417q-13 0 -13 -13v-517q0 -10 10 -10h346q134 0 134 156 q0 8 8 8h24q8 0 8 -8v-428q0 -8 -8 -8h-24q-8 0 -8 8q0 148 -86 171q-24 6 -51 6h-343q-10 0 -10 -10v-487q0 -75 69 -85q20 -3 42 -3h333q103 0 160 91q41 65 50 149q3 28 30 28q12 0 12 -13l-33 -336q-6 -14 -14 -14h-1114q-8 0 -8 8zM502 1594q-4 4 -4 6t4 6l213 295 q36 49 71 49t55.5 -22.5t20.5 -60.5t-55 -85l-269 -217q-5 -3 -8 -3t-6 3z" />
<glyph unicode="&#xca;" horiz-adv-x="1264" d="M7 8v28q0 8 8 8h22q42 3 86 3.5t80 10.5q82 24 82 120v1054q0 99 -117 126q-33 7 -67 12h-21q-8 0 -8 8v24q0 8 8 8h951q18 0 26 -6.5t10 -28.5l18 -290q0 -10 -15 -10t-22 9q-6 10 -15.5 73t-34.5 105t-88 53h-417q-13 0 -13 -13v-517q0 -10 10 -10h346q134 0 134 156 q0 8 8 8h24q8 0 8 -8v-428q0 -8 -8 -8h-24q-8 0 -8 8q0 148 -86 171q-24 6 -51 6h-343q-10 0 -10 -10v-487q0 -75 69 -85q20 -3 42 -3h333q103 0 160 91q41 65 50 149q3 28 30 28q12 0 12 -13l-33 -336q-6 -14 -14 -14h-1114q-8 0 -8 8zM656 1812q-3 3 -11 12t-10 9t-9.5 -9 t-10.5 -12l-214 -224q-4 -4 -9.5 -4t-15.5 13.5t-10 18.5t7 15l238 323q6 6 12.5 13t11.5 7q9 0 26 -22l248 -321q7 -11 7 -15.5t-10 -18t-14.5 -13.5t-8.5 4z" />
<glyph unicode="&#xcb;" horiz-adv-x="1264" d="M7 8v28q0 8 8 8h22q42 3 86 3.5t80 10.5q82 24 82 120v1054q0 99 -117 126q-33 7 -67 12h-21q-8 0 -8 8v24q0 8 8 8h951q18 0 26 -6.5t10 -28.5l18 -290q0 -10 -15 -10t-22 9q-6 10 -15.5 73t-34.5 105t-88 53h-417q-13 0 -13 -13v-517q0 -10 10 -10h346q134 0 134 156 q0 8 8 8h24q8 0 8 -8v-428q0 -8 -8 -8h-24q-8 0 -8 8q0 148 -86 171q-24 6 -51 6h-343q-10 0 -10 -10v-487q0 -75 69 -85q20 -3 42 -3h333q103 0 160 91q41 65 50 149q3 28 30 28q12 0 12 -13l-33 -336q-6 -14 -14 -14h-1114q-8 0 -8 8zM946 1811q0 -89 -70 -119 q-22 -9 -58.5 -9t-71 33t-34.5 82.5t34.5 84t83 34.5t82.5 -34t34 -72zM430 1683q-50 0 -83.5 33.5t-33.5 82t33.5 83.5t83.5 35t83.5 -35t33.5 -83.5t-33.5 -82t-83.5 -33.5z" />
<glyph unicode="&#xcc;" horiz-adv-x="699" d="M252 1250q0 120 -138 120q-22 0 -22 8v24q0 8 8 8h501q8 0 8 -8v-24q0 -8 -44 -8t-81 -28t-37 -115v-1067q0 -120 139 -120q21 0 21 -8v-24q0 -8 -8 -8h-501q-8 0 -8 8v24q0 8 44 8t81 28t37 115v1067zM498 1565q-4 -4 -7 -4t-7 4l-269 217q-55 47 -55 85t20.5 60.5 t55.5 22.5t71 -49l213 -295q4 -4 4 -6t-4 -6z" />
<glyph unicode="&#xcd;" horiz-adv-x="699" d="M252 1250q0 120 -138 120q-22 0 -22 8v24q0 8 8 8h501q8 0 8 -8v-24q0 -8 -44 -8t-81 -28t-37 -115v-1067q0 -120 139 -120q21 0 21 -8v-24q0 -8 -8 -8h-501q-8 0 -8 8v24q0 8 44 8t81 28t37 115v1067zM252 1594q-4 4 -4 6t4 6l213 295q36 49 71 49t55.5 -22.5 t20.5 -60.5t-55 -85l-269 -217q-5 -3 -8 -3t-6 3z" />
<glyph unicode="&#xce;" horiz-adv-x="699" d="M252 1250q0 120 -138 120q-22 0 -22 8v24q0 8 8 8h501q8 0 8 -8v-24q0 -8 -44 -8t-81 -28t-37 -115v-1067q0 -120 139 -120q21 0 21 -8v-24q0 -8 -8 -8h-501q-8 0 -8 8v24q0 8 44 8t81 28t37 115v1067zM366 1788q-3 3 -11 12t-10 9t-9.5 -9t-10.5 -12l-214 -224 q-4 -4 -9.5 -4t-15.5 13.5t-10 18.5t7 15l238 323q6 6 12.5 13t11.5 7q9 0 26 -22l248 -321q7 -11 7 -15.5t-10 -18t-14.5 -13.5t-8.5 4z" />
<glyph unicode="&#xcf;" horiz-adv-x="699" d="M252 1250q0 120 -138 120q-22 0 -22 8v24q0 8 8 8h501q8 0 8 -8v-24q0 -8 -44 -8t-81 -28t-37 -115v-1067q0 -120 139 -120q21 0 21 -8v-24q0 -8 -8 -8h-501q-8 0 -8 8v24q0 8 44 8t81 28t37 115v1067zM671 1811q0 -89 -70 -119q-22 -9 -58.5 -9t-71 33t-34.5 82.5 t34.5 84t83 34.5t82.5 -34t34 -72zM155 1683q-50 0 -83.5 33.5t-33.5 82t33.5 83.5t83.5 35t83.5 -35t33.5 -83.5t-33.5 -82t-83.5 -33.5z" />
<glyph unicode="&#x189;" horiz-adv-x="1664" d="M77 44q182 0 182 116v504h-199q-21 0 -21 25v36q0 25 21 25h199v506q0 56 -43 84.5t-97 28.5h-64q-8 0 -8 8v28q0 8 8 8h22l321 7q58 2 126 2h125q174 0 261.5 -13t172 -30.5t180 -79.5t165.5 -150q148 -188 148 -404.5t-114 -386.5q-159 -239 -476 -325 q-99 -27 -202 -33h-729q-8 0 -8 8v28q0 8 8 8h22zM803 689q0 -25 -21 -25h-328v-539q0 -74 139 -77q41 -1 86 -1q319 0 501.5 179t182.5 476.5t-168.5 485t-443.5 187.5h-272q-25 0 -25 -27v-598h328q21 0 21 -25v-36z" />
<glyph unicode="&#x110;" horiz-adv-x="1664" d="M77 44q182 0 182 116v504h-199q-21 0 -21 25v36q0 25 21 25h199v506q0 56 -43 84.5t-97 28.5h-64q-8 0 -8 8v28q0 8 8 8h22l321 7q58 2 126 2h125q174 0 261.5 -13t172 -30.5t180 -79.5t165.5 -150q148 -188 148 -404.5t-114 -386.5q-159 -239 -476 -325 q-99 -27 -202 -33h-729q-8 0 -8 8v28q0 8 8 8h22zM803 689q0 -25 -21 -25h-328v-539q0 -74 139 -77q41 -1 86 -1q319 0 501.5 179t182.5 476.5t-168.5 485t-443.5 187.5h-272q-25 0 -25 -27v-598h328q21 0 21 -25v-36z" />
<glyph unicode="&#xd0;" horiz-adv-x="1664" d="M77 44q182 0 182 116v504h-199q-21 0 -21 25v36q0 25 21 25h199v506q0 56 -43 84.5t-97 28.5h-64q-8 0 -8 8v28q0 8 8 8h22l321 7q58 2 126 2h125q174 0 261.5 -13t172 -30.5t180 -79.5t165.5 -150q148 -188 148 -404.5t-114 -386.5q-159 -239 -476 -325 q-99 -27 -202 -33h-729q-8 0 -8 8v28q0 8 8 8h22zM803 689q0 -25 -21 -25h-328v-539q0 -74 139 -77q41 -1 86 -1q319 0 501.5 179t182.5 476.5t-168.5 485t-443.5 187.5h-272q-25 0 -25 -27v-598h328q21 0 21 -25v-36z" />
<glyph unicode="&#xd1;" horiz-adv-x="1747" d="M68 0q-8 0 -8 8v24q0 8 10 8h23q55 0 75 10q74 36 74 198v1039q0 67 -130 80q-29 3 -40.5 3t-11.5 8v24q0 8 8 8h366l949 -1049q5 -5 7 -7.5t6.5 -2.5t4.5 9v689q0 199 -33 260t-133 61h-51q-8 0 -8 8v24q0 8 8 8h520q8 0 8 -8v-24q0 -8 -29.5 -8t-97 -34t-67.5 -84 v-1223q0 -22 -6 -31.5t-28.5 -9.5t-33.5 9t-26 26l-1031 1143q-10 10 -18 10q-5 0 -5 -10v-998q0 -91 144 -120q40 -8 61 -8t21 -8v-24q0 -8 -8 -8h-520zM1088 1812q63 0 80 69q5 18 5 32.5t16 14.5h19q14 0 14 -56.5t-45 -116.5t-109.5 -60t-131.5 35q-128 69 -168.5 69 t-69.5 -34.5t-29 -80.5q0 -12 -16 -12h-21q-8 0 -8 31q0 81 43 147.5t105.5 66.5t169 -52.5t146.5 -52.5z" />
<glyph unicode="&#xd2;" horiz-adv-x="1770" d="M1092 3q-103 -30 -183 -30q-164 0 -313 53q-204 74 -328 219q-158 185 -158 469q0 205 105 373.5t290.5 266.5t399 98t382.5 -95t271 -261t102 -359.5t-101 -368t-277 -282.5q-87 -53 -190 -83zM393.5 416.5q73.5 -163.5 210.5 -266.5t317 -103q256 0 399 196 q129 177 129 452t-158 474q-77 97 -188.5 155.5t-225 58.5t-186 -25t-131.5 -68.5t-104 -103.5t-75 -130q-61 -144 -61 -310t73.5 -329.5zM978 1590q-4 -4 -7 -4t-7 4l-269 217q-55 47 -55 85t20.5 60.5t55.5 22.5t71 -49l213 -295q4 -4 4 -6t-4 -6z" />
<glyph unicode="&#xd3;" horiz-adv-x="1597" d="M1092 3q-103 -30 -183 -30q-164 0 -313 53q-204 74 -328 219q-158 185 -158 469q0 205 105 373.5t290.5 266.5t399 98t382.5 -95t271 -261t102 -359.5t-101 -368t-277 -282.5q-87 -53 -190 -83zM393.5 416.5q73.5 -163.5 210.5 -266.5t317 -103q256 0 399 196 q129 177 129 452t-158 474q-77 97 -188.5 155.5t-225 58.5t-186 -25t-131.5 -68.5t-104 -103.5t-75 -130q-61 -144 -61 -310t73.5 -329.5zM801 1619q-4 4 -4 6t4 6l213 295q36 49 71 49t55.5 -22.5t20.5 -60.5t-55 -85l-269 -217q-5 -3 -8 -3t-6 3z" />
<glyph unicode="&#xd4;" horiz-adv-x="1770" d="M1092 3q-103 -30 -183 -30q-164 0 -313 53q-204 74 -328 219q-158 185 -158 469q0 205 105 373.5t290.5 266.5t399 98t382.5 -95t271 -261t102 -359.5t-101 -368t-277 -282.5q-87 -53 -190 -83zM393.5 416.5q73.5 -163.5 210.5 -266.5t317 -103q256 0 399 196 q129 177 129 452t-158 474q-77 97 -188.5 155.5t-225 58.5t-186 -25t-131.5 -68.5t-104 -103.5t-75 -130q-61 -144 -61 -310t73.5 -329.5zM886 1813q-3 3 -11 12t-10 9t-9.5 -9t-10.5 -12l-214 -224q-4 -4 -9.5 -4t-15.5 13.5t-10 18.5t7 15l238 323q6 6 12.5 13t11.5 7 q9 0 26 -22l248 -321q7 -11 7 -15.5t-10 -18t-14.5 -13.5t-8.5 4z" />
<glyph unicode="&#xd5;" horiz-adv-x="1770" d="M1092 3q-103 -30 -183 -30q-164 0 -313 53q-204 74 -328 219q-158 185 -158 469q0 205 105 373.5t290.5 266.5t399 98t382.5 -95t271 -261t102 -359.5t-101 -368t-277 -282.5q-87 -53 -190 -83zM393.5 416.5q73.5 -163.5 210.5 -266.5t317 -103q256 0 399 196 q129 177 129 452t-158 474q-77 97 -188.5 155.5t-225 58.5t-186 -25t-131.5 -68.5t-104 -103.5t-75 -130q-61 -144 -61 -310t73.5 -329.5zM1058 1741q63 0 80 69q5 18 5 32.5t16 14.5h19q14 0 14 -56.5t-45 -116.5t-109.5 -60t-131.5 35q-128 69 -168.5 69t-69.5 -34.5 t-29 -80.5q0 -12 -16 -12h-21q-8 0 -8 31q0 81 43 147.5t105.5 66.5t169 -52.5t146.5 -52.5z" />
<glyph unicode="&#xd6;" horiz-adv-x="1770" d="M1092 3q-103 -30 -183 -30q-164 0 -313 53q-204 74 -328 219q-158 185 -158 469q0 205 105 373.5t290.5 266.5t399 98t382.5 -95t271 -261t102 -359.5t-101 -368t-277 -282.5q-87 -53 -190 -83zM393.5 416.5q73.5 -163.5 210.5 -266.5t317 -103q256 0 399 196 q129 177 129 452t-158 474q-77 97 -188.5 155.5t-225 58.5t-186 -25t-131.5 -68.5t-104 -103.5t-75 -130q-61 -144 -61 -310t73.5 -329.5zM1196 1742q0 -89 -70 -119q-22 -9 -58.5 -9t-71 33t-34.5 82.5t34.5 84t83 34.5t82.5 -34t34 -72zM680 1614q-50 0 -83.5 33.5 t-33.5 82t33.5 83.5t83.5 35t83.5 -35t33.5 -83.5t-33.5 -82t-83.5 -33.5z" />
<glyph unicode="&#xd7;" horiz-adv-x="1049" d="M209 1029l315 -316l317 318l89 -88l-318 -318l320 -320l-88 -88l-320 320l-318 -318l-88 89l318 317l-316 315z" />
<glyph unicode="&#xd8;" horiz-adv-x="1770" d="M1396 1283l203 215l67 -64l-202 -214q196 -207 196 -486q0 -190 -101 -364.5t-281.5 -285t-403.5 -110.5q-86 0 -264 36q-16 3 -72.5 29t-122.5 74l-209 -221l-67 64l204 216q-233 213 -233 543q0 205 105 373.5t290.5 266.5t434 98t456.5 -170zM1290 1171 q-171 213 -441 213q-162 0 -289 -94q-173 -127 -224 -381q-16 -77 -16 -176.5t36.5 -218t105.5 -217.5zM521 225q166 -177 411 -177t381 186.5t136 432t-106 426.5z" />
<glyph unicode="&#xd9;" horiz-adv-x="1672" d="M574 1370q-168 0 -168 -134v-716q0 -198 131 -323.5t336 -125.5q213 0 349.5 114.5t136.5 317.5v636q0 95 -17 132q-43 99 -194 99q-8 0 -8 8v24q0 8 8 8h492q8 0 8 -8v-24q0 -8 -22 -8q-131 0 -160 -102q-5 -17 -5 -32v-655q0 -439 -336 -565q-113 -43 -225 -43 q-401 0 -591 210q-98 108 -98 267v800q0 85 -103 112q-30 8 -51 8t-21 8v24q0 8 7 8h542q8 0 8 -8v-24q0 -8 -19 -8zM988 1565q-4 -4 -7 -4t-7 4l-269 217q-55 47 -55 85t20.5 60.5t55.5 22.5t71 -49l213 -295q4 -4 4 -6t-4 -6z" />
<glyph unicode="&#xda;" horiz-adv-x="1672" d="M574 1370q-168 0 -168 -134v-716q0 -198 131 -323.5t336 -125.5q213 0 349.5 114.5t136.5 317.5v636q0 95 -17 132q-43 99 -194 99q-8 0 -8 8v24q0 8 8 8h492q8 0 8 -8v-24q0 -8 -22 -8q-131 0 -160 -102q-5 -17 -5 -32v-655q0 -439 -336 -565q-113 -43 -225 -43 q-401 0 -591 210q-98 108 -98 267v800q0 85 -103 112q-30 8 -51 8t-21 8v24q0 8 7 8h542q8 0 8 -8v-24q0 -8 -19 -8zM812 1594q-4 4 -4 6t4 6l213 295q36 49 71 49t55.5 -22.5t20.5 -60.5t-55 -85l-269 -217q-5 -3 -8 -3t-6 3z" />
<glyph unicode="&#xdb;" horiz-adv-x="1672" d="M574 1370q-168 0 -168 -134v-716q0 -198 131 -323.5t336 -125.5q213 0 349.5 114.5t136.5 317.5v636q0 95 -17 132q-43 99 -194 99q-8 0 -8 8v24q0 8 8 8h492q8 0 8 -8v-24q0 -8 -22 -8q-131 0 -160 -102q-5 -17 -5 -32v-655q0 -439 -336 -565q-113 -43 -225 -43 q-401 0 -591 210q-98 108 -98 267v800q0 85 -103 112q-30 8 -51 8t-21 8v24q0 8 7 8h542q8 0 8 -8v-24q0 -8 -19 -8zM886 1788q-3 3 -11 12t-10 9t-9.5 -9t-10.5 -12l-214 -224q-4 -4 -9.5 -4t-15.5 13.5t-10 18.5t7 15l238 323q6 6 12.5 13t11.5 7q9 0 26 -22l248 -321 q7 -11 7 -15.5t-10 -18t-14.5 -13.5t-8.5 4z" />
<glyph unicode="&#xdc;" horiz-adv-x="1672" d="M574 1370q-168 0 -168 -134v-716q0 -198 131 -323.5t336 -125.5q213 0 349.5 114.5t136.5 317.5v636q0 95 -17 132q-43 99 -194 99q-8 0 -8 8v24q0 8 8 8h492q8 0 8 -8v-24q0 -8 -22 -8q-131 0 -160 -102q-5 -17 -5 -32v-655q0 -439 -336 -565q-113 -43 -225 -43 q-401 0 -591 210q-98 108 -98 267v800q0 85 -103 112q-30 8 -51 8t-21 8v24q0 8 7 8h542q8 0 8 -8v-24q0 -8 -19 -8zM1216 1811q0 -89 -70 -119q-22 -9 -58.5 -9t-71 33t-34.5 82.5t34.5 84t83 34.5t82.5 -34t34 -72zM700 1683q-50 0 -83.5 33.5t-33.5 82t33.5 83.5t83.5 35 t83.5 -35t33.5 -83.5t-33.5 -82t-83.5 -33.5z" />
<glyph unicode="&#xdd;" horiz-adv-x="1564" d="M526 0q-34 0 -34 20v10q0 16 29.5 19.5t38.5 4.5q76 8 107 37.5t31 88.5v331q0 7 -3 15l-409 652q-96 153 -190 176q-5 1 -18 4t-58 10q-16 3 -16 22.5t15 19.5h572q17 0 17 -20t-17 -20q-67 -7 -89 -14q-50 -18 -50 -64q0 -24 12 -43l338 -540q11 -16 13.5 -20.5 t11 -4.5t26.5 29l270 459q12 24 27.5 51.5t15.5 56.5q0 73 -100 86q-36 5 -39 11t-3 15q0 18 17 18h467q14 0 14 -14t-4.5 -19t-12 -7.5t-16.5 -4t-39 -8.5q-70 -17 -152 -111q-9 -11 -10 -13l-395 -680v-373q0 -54 30.5 -85t103 -40.5t72.5 -23.5v-11q0 -20 -34 -20h-539z M742 1594q-4 4 -4 6t4 6l213 295q36 49 71 49t55.5 -22.5t20.5 -60.5t-55 -85l-269 -217q-5 -3 -8 -3t-6 3z" />
<glyph unicode="&#xde;" horiz-adv-x="1160" d="M49 0q-8 0 -8 8v24q0 8 8 8q78 0 120.5 36.5t42.5 93.5v1056q0 77 -34 110t-111 33h-18q-8 0 -8 9v24q0 8 8 8h519q8 0 8 -8v-24q0 -9 -8 -9h-18q-72 0 -96 -12q-47 -23 -47 -83v-114q145 5 163 5h101q183 -13 300 -132t117 -315q0 -138 -128 -267.5t-253 -129.5h-6 l-271 7h-8q-15 0 -15 -10v-146q0 -70 81 -105q63 -27 159 -27q8 0 8 -7v-25q0 -8 -8 -8h-598zM462.5 1113.5q-13.5 -0.5 -33 -1t-22.5 -13.5v-678q3 -20 21 -22l102 -6q161 0 259.5 108t98.5 271.5t-95.5 253.5t-254.5 90q-14 0 -26 -0.5l-24 -1t-25.5 -1z" />
<glyph unicode="&#xdf;" horiz-adv-x="1220" d="M507 16q0 -16 -18 -16h-456q-10 2 -10 14q0 18 47 24q108 16 108 114v914q0 291 144 446q123 133 308 133t304 -105.5t119 -257.5q0 -194 -199 -318q-64 -40 -146 -68v-4q173 -35 288 -140q138 -125 138 -314q0 -224 -148 -356q-125 -109 -263 -109q-51 0 -82 22t-31 53 t17 50.5t41 19.5t70 -27t75 -27q60 0 98.5 95.5t38.5 230.5q0 390 -238 458q-63 18 -166 18v37q249 25 320 217q23 63 23 138q0 146 -76 237t-202 91t-201.5 -105t-75.5 -268v-1041q0 -87 32.5 -115t122.5 -28q18 -2 18 -13z" />
<glyph unicode="&#xe0;" horiz-adv-x="885" d="M712.5 123.5q24.5 -15.5 56.5 -15.5t53.5 16.5t29.5 16.5t8 -21.5t-20 -36.5q-150 -110 -203 -110q-64 0 -104 133q-3 10 -5 9q-124 -93 -156 -112q-82 -47 -164.5 -15t-119.5 106q-18 38 -18 81q0 85 63 135t240 96q60 16 107 41t49.5 32t2.5 13v192q0 113 -88 159 q-29 15 -69.5 15t-82 -32t-41.5 -91l5 -39q-6 -12 -72 -40t-76 -30q-16 0 -16 38.5t23 85.5t65 86q98 91 224 91t205 -69.5t79 -165.5v-527q0 -26 24.5 -41.5zM264 110.5q37 -35.5 84.5 -35.5t115.5 40.5t68 83.5v203q0 11 -5 11t-7 -1l-232 -108q-36 -26 -48.5 -44 t-12.5 -66t37 -83.5zM523 1067q-4 -4 -7 -4t-7 4l-269 217q-55 47 -55 85t20.5 60.5t55.5 22.5t71 -49l213 -295q4 -4 4 -6t-4 -6z" />
<glyph unicode="&#xe1;" horiz-adv-x="885" d="M712.5 123.5q24.5 -15.5 56.5 -15.5t53.5 16.5t29.5 16.5t8 -21.5t-20 -36.5q-150 -110 -203 -110q-64 0 -104 133q-3 10 -5 9q-124 -93 -156 -112q-82 -47 -164.5 -15t-119.5 106q-18 38 -18 81q0 85 63 135t240 96q60 16 107 41t49.5 32t2.5 13v192q0 113 -88 159 q-29 15 -69.5 15t-82 -32t-41.5 -91l5 -39q-6 -12 -72 -40t-76 -30q-16 0 -16 38.5t23 85.5t65 86q98 91 224 91t205 -69.5t79 -165.5v-527q0 -26 24.5 -41.5zM264 110.5q37 -35.5 84.5 -35.5t115.5 40.5t68 83.5v203q0 11 -5 11t-7 -1l-232 -108q-36 -26 -48.5 -44 t-12.5 -66t37 -83.5zM315 1096q-4 4 -4 6t4 6l213 295q36 49 71 49t55.5 -22.5t20.5 -60.5t-55 -85l-269 -217q-5 -3 -8 -3t-6 3z" />
<glyph unicode="&#xe2;" horiz-adv-x="885" d="M712.5 123.5q24.5 -15.5 56.5 -15.5t53.5 16.5t29.5 16.5t8 -21.5t-20 -36.5q-150 -110 -203 -110q-64 0 -104 133q-3 10 -5 9q-124 -93 -156 -112q-82 -47 -164.5 -15t-119.5 106q-18 38 -18 81q0 85 63 135t240 96q60 16 107 41t49.5 32t2.5 13v192q0 113 -88 159 q-29 15 -69.5 15t-82 -32t-41.5 -91l5 -39q-6 -12 -72 -40t-76 -30q-16 0 -16 38.5t23 85.5t65 86q98 91 224 91t205 -69.5t79 -165.5v-527q0 -26 24.5 -41.5zM264 110.5q37 -35.5 84.5 -35.5t115.5 40.5t68 83.5v203q0 11 -5 11t-7 -1l-232 -108q-36 -26 -48.5 -44 t-12.5 -66t37 -83.5zM419 1291q-3 3 -11 12t-10 9t-9.5 -9t-10.5 -12l-214 -224q-4 -4 -9.5 -4t-15.5 13.5t-10 18.5t7 15l238 323q6 6 12.5 13t11.5 7q9 0 26 -22l248 -321q7 -11 7 -15.5t-10 -18t-14.5 -13.5t-8.5 4z" />
<glyph unicode="&#xe3;" horiz-adv-x="891" d="M718.5 123.5q24.5 -15.5 56.5 -15.5t53.5 16.5t29.5 16.5t8 -21.5t-20 -36.5q-150 -110 -203 -110q-64 0 -104 133q-3 10 -5 9q-124 -93 -156 -112q-82 -47 -164.5 -15t-119.5 106q-18 38 -18 81q0 85 63 135t240 96q60 16 107 41t49.5 32t2.5 13v192q0 113 -88 159 q-29 15 -69.5 15t-82 -32t-41.5 -91l5 -39q-6 -12 -72 -40t-76 -30q-16 0 -16 38.5t23 85.5t65 86q98 91 224 91t205 -69.5t79 -165.5v-527q0 -26 24.5 -41.5zM270 110.5q37 -35.5 84.5 -35.5t115.5 40.5t68 83.5v203q0 11 -5 11t-7 -1l-232 -108q-36 -26 -48.5 -44 t-12.5 -66t37 -83.5zM590 1252q63 0 80 69q5 18 5 32.5t16 14.5h19q14 0 14 -56.5t-45 -116.5t-109.5 -60t-131.5 35q-128 69 -168.5 69t-69.5 -34.5t-29 -80.5q0 -12 -16 -12h-21q-8 0 -8 31q0 81 43 147.5t105.5 66.5t169 -52.5t146.5 -52.5z" />
<glyph unicode="&#xe4;" horiz-adv-x="902" d="M729.5 123.5q24.5 -15.5 56.5 -15.5t53.5 16.5t29.5 16.5t8 -21.5t-20 -36.5q-150 -110 -203 -110q-64 0 -104 133q-3 10 -5 9q-124 -93 -156 -112q-82 -47 -164.5 -15t-119.5 106q-18 38 -18 81q0 85 63 135t240 96q60 16 107 41t49.5 32t2.5 13v192q0 113 -88 159 q-29 15 -69.5 15t-82 -32t-41.5 -91l5 -39q-6 -12 -72 -40t-76 -30q-16 0 -16 38.5t23 85.5t65 86q98 91 224 91t205 -69.5t79 -165.5v-527q0 -26 24.5 -41.5zM281 110.5q37 -35.5 84.5 -35.5t115.5 40.5t68 83.5v203q0 11 -5 11t-7 -1l-232 -108q-36 -26 -48.5 -44 t-12.5 -66t37 -83.5zM731 1240q0 -89 -70 -119q-22 -9 -58.5 -9t-71 33t-34.5 82.5t34.5 84t83 34.5t82.5 -34t34 -72zM215 1112q-50 0 -83.5 33.5t-33.5 82t33.5 83.5t83.5 35t83.5 -35t33.5 -83.5t-33.5 -82t-83.5 -33.5z" />
<glyph unicode="&#xe5;" horiz-adv-x="885" d="M712.5 123.5q24.5 -15.5 56.5 -15.5t53.5 16.5t29.5 16.5t8 -21.5t-20 -36.5q-150 -110 -203 -110q-64 0 -104 133q-3 10 -5 9q-124 -93 -156 -112q-82 -47 -164.5 -15t-119.5 106q-18 38 -18 81q0 85 63 135t240 96q60 16 107 41t49.5 32t2.5 13v192q0 113 -88 159 q-29 15 -69.5 15t-82 -32t-41.5 -91l5 -39q-6 -12 -72 -40t-76 -30q-16 0 -16 38.5t23 85.5t65 86q98 91 224 91t205 -69.5t79 -165.5v-527q0 -26 24.5 -41.5zM264 110.5q37 -35.5 84.5 -35.5t115.5 40.5t68 83.5v203q0 11 -5 11t-7 -1l-232 -108q-36 -26 -48.5 -44 t-12.5 -66t37 -83.5zM291.5 1392q53.5 55 130.5 55t130.5 -55t53.5 -130t-54 -129t-130 -54t-130 54t-54 129t53.5 130zM433 1377q-85 0 -116 -71q-9 -20 -9 -55.5t33 -68.5t79.5 -33t81 32.5t34.5 80t-34 81.5t-69 34z" />
<glyph unicode="&#xe6;" horiz-adv-x="1378" d="M704 577q-16 0 -16 -41v-45q0 -306 230 -387q53 -18 100 -18q88 0 157 51q19 8 57 40t43 32h5q6 0 10.5 -6t9.5 -9q0 -21 -37 -51q-24 -30 -90 -74q-130 -96 -250 -96q-153 0 -263 121q-33 37 -57 81q-82 -87 -223 -173q-83 -50 -169 -17t-123 107q-18 38 -18 81 q0 85 63 135t240 96q60 16 107 41t49.5 32t2.5 13v192q0 108 -83.5 153t-152.5 -8q-45 -35 -45 -94l5 -39q-6 -12 -72 -40t-76 -30q-16 0 -16 39q0 78 82 153.5t145.5 92t132.5 16.5q97 0 178 -96q20 -23 34 -51q121 149 312 149q106 0 172 -41q63 -34 132 -180 q28 -59 28 -94t-24 -35h-580zM715 643q0 -19 18 -19h367q26 0 26 31q0 73 -59.5 138t-136.5 65t-137.5 -59.5t-77.5 -143.5v-12zM264 108.5q37 -35.5 84.5 -35.5t115.5 40.5t68 83.5v203q0 11 -5 11t-7 -1l-232 -108q-36 -26 -48.5 -44t-12.5 -66t37 -83.5z" />
<glyph unicode="&#xe7;" horiz-adv-x="934" d="M287 -532q-56 0 -56 43q0 19 14.5 24t38 9t70 13t90 36.5t43.5 77t-50 79t-100 35.5l152 188h-16q-168 0 -275.5 125t-107.5 286q1 298 144 429q126 115 359 115q144 0 191 -29t66 -73q5 -10 5 -19q0 -70 -81 -70q-41 0 -69.5 23.5t-44 40t-32.5 30.5q-83 68 -188 -2 q-178 -100 -178 -360.5t175 -352.5q62 -32 129 -32q144 0 242 110q30 33 36 33t13 -6t7 -17.5t-6 -17.5q-107 -148 -252 -193l-126 -147q72 -19 106 -67t34 -84q-16 -194 -333 -227z" />
<glyph unicode="&#xe8;" horiz-adv-x="930" d="M231 527q-17 0 -17 -73q0 -155 92 -260t228.5 -105t262.5 118q2 2 5 2h5q6 0 11.5 -9.5t10.5 -12.5q-116 -141 -273 -195q-54 -19 -122 -19t-138 37.5t-120 98.5q-106 127 -106 316.5t115.5 345.5t317.5 156q145 0 237 -129.5t92 -227.5q0 -43 -21 -43h-580zM242 623 q0 -19 18 -19h377q26 0 26 31q0 72 -64.5 147.5t-141.5 75.5q-75 0 -136.5 -68t-78.5 -155v-12zM556 1067q-4 -4 -7 -4t-7 4l-269 217q-55 47 -55 85t20.5 60.5t55.5 22.5t71 -49l213 -295q4 -4 4 -6t-4 -6z" />
<glyph unicode="&#xe9;" horiz-adv-x="930" d="M231 527q-17 0 -17 -73q0 -155 92 -260t228.5 -105t262.5 118q2 2 5 2h5q6 0 11.5 -9.5t10.5 -12.5q-116 -141 -273 -195q-54 -19 -122 -19t-138 37.5t-120 98.5q-106 127 -106 316.5t115.5 345.5t317.5 156q145 0 237 -129.5t92 -227.5q0 -43 -21 -43h-580zM242 623 q0 -19 18 -19h377q26 0 26 31q0 72 -64.5 147.5t-141.5 75.5q-75 0 -136.5 -68t-78.5 -155v-12zM362 1096q-4 4 -4 6t4 6l213 295q36 49 71 49t55.5 -22.5t20.5 -60.5t-55 -85l-269 -217q-5 -3 -8 -3t-6 3z" />
<glyph unicode="&#xea;" horiz-adv-x="930" d="M231 527q-17 0 -17 -73q0 -155 92 -260t228.5 -105t262.5 118q2 2 5 2h5q6 0 11.5 -9.5t10.5 -12.5q-116 -141 -273 -195q-54 -19 -122 -19t-138 37.5t-120 98.5q-106 127 -106 316.5t115.5 345.5t317.5 156q145 0 237 -129.5t92 -227.5q0 -43 -21 -43h-580zM242 623 q0 -19 18 -19h377q26 0 26 31q0 72 -64.5 147.5t-141.5 75.5q-75 0 -136.5 -68t-78.5 -155v-12zM490 1291q-3 3 -11 12t-10 9t-9.5 -9t-10.5 -12l-214 -224q-4 -4 -9.5 -4t-15.5 13.5t-10 18.5t7 15l238 323q6 6 12.5 13t11.5 7q9 0 26 -22l248 -321q7 -11 7 -15.5t-10 -18 t-14.5 -13.5t-8.5 4z" />
<glyph unicode="&#xeb;" horiz-adv-x="930" d="M231 527q-17 0 -17 -73q0 -155 92 -260t228.5 -105t262.5 118q2 2 5 2h5q6 0 11.5 -9.5t10.5 -12.5q-116 -141 -273 -195q-54 -19 -122 -19t-138 37.5t-120 98.5q-106 127 -106 316.5t115.5 345.5t317.5 156q145 0 237 -129.5t92 -227.5q0 -43 -21 -43h-580zM242 623 q0 -19 18 -19h377q26 0 26 31q0 72 -64.5 147.5t-141.5 75.5q-75 0 -136.5 -68t-78.5 -155v-12zM797 1240q0 -89 -70 -119q-22 -9 -58.5 -9t-71 33t-34.5 82.5t34.5 84t83 34.5t82.5 -34t34 -72zM281 1112q-50 0 -83.5 33.5t-33.5 82t33.5 83.5t83.5 35t83.5 -35t33.5 -83.5 t-33.5 -82t-83.5 -33.5z" />
<glyph unicode="&#xec;" horiz-adv-x="576" d="M539 38q47 -6 47 -24q0 -12 -10 -14h-446q-10 2 -10 14q0 18 47 24q108 16 108 114v529q0 42 -46 58q-20 7 -43 11.5t-36.5 8.5t-17 7.5t-3.5 15t15 19.5l255 120q12 6 15 6q17 0 17 -24v-751q0 -98 108 -114zM399 1067q-4 -4 -7 -4t-7 4l-269 217q-55 47 -55 85 t20.5 60.5t55.5 22.5t71 -49l213 -295q4 -4 4 -6t-4 -6z" />
<glyph unicode="&#xed;" horiz-adv-x="576" d="M479 38q47 -6 47 -24q0 -12 -10 -14h-446q-10 2 -10 14q0 18 47 24q108 16 108 114v529q0 42 -46 58q-20 7 -43 11.5t-36.5 8.5t-17 7.5t-3.5 15t15 19.5l255 120q12 6 15 6q17 0 17 -24v-751q0 -98 108 -114zM153 1096q-4 4 -4 6t4 6l213 295q36 49 71 49t55.5 -22.5 t20.5 -60.5t-55 -85l-269 -217q-5 -3 -8 -3t-6 3z" />
<glyph unicode="&#xee;" horiz-adv-x="608" d="M543 38q47 -6 47 -24q0 -12 -10 -14h-446q-10 2 -10 14q0 18 47 24q108 16 108 114v529q0 42 -46 58q-20 7 -43 11.5t-36.5 8.5t-17 7.5t-3.5 15t15 19.5l255 120q12 6 15 6q17 0 17 -24v-751q0 -98 108 -114zM350 1291q-3 3 -11 12t-10 9t-9.5 -9t-10.5 -12l-214 -224 q-4 -4 -9.5 -4t-15.5 13.5t-10 18.5t7 15l238 323q6 6 12.5 13t11.5 7q9 0 26 -22l248 -321q7 -11 7 -15.5t-10 -18t-14.5 -13.5t-8.5 4z" />
<glyph unicode="&#xef;" horiz-adv-x="691" d="M586 38q47 -6 47 -24q0 -12 -10 -14h-446q-10 2 -10 14q0 18 47 24q108 16 108 114v529q0 42 -46 58q-20 7 -43 11.5t-36.5 8.5t-17 7.5t-3.5 15t15 19.5l255 120q12 6 15 6q17 0 17 -24v-751q0 -98 108 -114zM693 1240q0 -89 -70 -119q-22 -9 -58.5 -9t-71 33 t-34.5 82.5t34.5 84t83 34.5t82.5 -34t34 -72zM177 1112q-50 0 -83.5 33.5t-33.5 82t33.5 83.5t83.5 35t83.5 -35t33.5 -83.5t-33.5 -82t-83.5 -33.5z" />
<glyph unicode="&#xf0;" horiz-adv-x="1089" d="M322 1645q123 -69 281 -252l233 183l59 -78l-231 -180q234 -301 312 -630q28 -121 28 -234q0 -212 -132.5 -346.5t-332.5 -134.5t-332 136t-132 327.5t136.5 328t317.5 136.5h2q145 0 258 -75q2 -1 2 13v37q0 53 -56.5 157t-146.5 225l-221 -173l-59 77l219 172 q-164 202 -277 286q-34 25 -51 25h123zM273 283.5q37 -112.5 114.5 -185t198.5 -72.5t186.5 108t65.5 256t-95 298.5t-254 150.5q-117 0 -185 -102t-68 -221.5t37 -232z" />
<glyph unicode="&#xf1;" horiz-adv-x="1164" d="M804 315l-2 211q0 129 -22 181t-56 78.5t-91.5 26.5t-243.5 -90q-25 -15 -26 -28v-538q0 -101 108 -116q47 -7 47 -22.5t-10 -17.5h-446q-10 2 -10 14q0 19 47 26q108 15 108 116v574q0 42 -46 58q-20 7 -43 11.5t-36.5 8.5t-17 7.5t-3.5 15t15 19.5l255 120q12 6 15 6 q17 0 17 -24v-156q3 -10 8 -10q6 0 43 18q86 43 173 83t144 40q231 0 231 -421l-9 -292v-58q0 -78 78 -102q33 -11 63.5 -15.5t40 -8.5t9.5 -16t-10 -14h-482q-10 2 -10 14q0 19 47 26q107 15 107 124q8 50 8 151zM743 1252q63 0 80 69q5 18 5 32.5t16 14.5h19 q14 0 14 -56.5t-45 -116.5t-109.5 -60t-131.5 35q-128 69 -168.5 69t-69.5 -34.5t-29 -80.5q0 -12 -16 -12h-21q-8 0 -8 31q0 81 43 147.5t105.5 66.5t169 -52.5t146.5 -52.5z" />
<glyph unicode="&#xf2;" horiz-adv-x="1107" d="M214.5 787.5q139.5 141.5 334.5 141.5t339 -137.5t144 -339.5t-136.5 -340.5t-342.5 -138.5t-342 140t-136 336.5t139.5 338zM324 192q98 -165 267 -165q131 0 200.5 105t69.5 258t-97.5 314t-262.5 161q-121 0 -190.5 -104.5t-69.5 -265t83 -303.5zM698 1067 q-4 -4 -7 -4t-7 4l-269 217q-55 47 -55 85t20.5 60.5t55.5 22.5t71 -49l213 -295q4 -4 4 -6t-4 -6z" />
<glyph unicode="&#xf3;" horiz-adv-x="1107" d="M214.5 787.5q139.5 141.5 334.5 141.5t339 -137.5t144 -339.5t-136.5 -340.5t-342.5 -138.5t-342 140t-136 336.5t139.5 338zM324 192q98 -165 267 -165q131 0 200.5 105t69.5 258t-97.5 314t-262.5 161q-121 0 -190.5 -104.5t-69.5 -265t83 -303.5zM422 1096q-4 4 -4 6 t4 6l213 295q36 49 71 49t55.5 -22.5t20.5 -60.5t-55 -85l-269 -217q-5 -3 -8 -3t-6 3z" />
<glyph unicode="&#xf4;" horiz-adv-x="1107" d="M214.5 787.5q139.5 141.5 334.5 141.5t339 -137.5t144 -339.5t-136.5 -340.5t-342.5 -138.5t-342 140t-136 336.5t139.5 338zM324 192q98 -165 267 -165q131 0 200.5 105t69.5 258t-97.5 314t-262.5 161q-121 0 -190.5 -104.5t-69.5 -265t83 -303.5zM574 1291 q-3 3 -11 12t-10 9t-9.5 -9t-10.5 -12l-214 -224q-4 -4 -9.5 -4t-15.5 13.5t-10 18.5t7 15l238 323q6 6 12.5 13t11.5 7q9 0 26 -22l248 -321q7 -11 7 -15.5t-10 -18t-14.5 -13.5t-8.5 4z" />
<glyph unicode="&#xf5;" horiz-adv-x="1102" d="M214.5 787.5q139.5 141.5 334.5 141.5t339 -137.5t144 -339.5t-136.5 -340.5t-342.5 -138.5t-342 140t-136 336.5t139.5 338zM324 192q98 -165 267 -165q131 0 200.5 105t69.5 258t-97.5 314t-262.5 161q-121 0 -190.5 -104.5t-69.5 -265t83 -303.5zM718 1252q63 0 80 69 q5 18 5 32.5t16 14.5h19q14 0 14 -56.5t-45 -116.5t-109.5 -60t-131.5 35q-128 69 -168.5 69t-69.5 -34.5t-29 -80.5q0 -12 -16 -12h-21q-8 0 -8 31q0 81 43 147.5t105.5 66.5t169 -52.5t146.5 -52.5z" />
<glyph unicode="&#xf6;" horiz-adv-x="1107" d="M214.5 787.5q139.5 141.5 334.5 141.5t339 -137.5t144 -339.5t-136.5 -340.5t-342.5 -138.5t-342 140t-136 336.5t139.5 338zM324 192q98 -165 267 -165q131 0 200.5 105t69.5 258t-97.5 314t-262.5 161q-121 0 -190.5 -104.5t-69.5 -265t83 -303.5zM876 1240 q0 -89 -70 -119q-22 -9 -58.5 -9t-71 33t-34.5 82.5t34.5 84t83 34.5t82.5 -34t34 -72zM360 1112q-50 0 -83.5 33.5t-33.5 82t33.5 83.5t83.5 35t83.5 -35t33.5 -83.5t-33.5 -82t-83.5 -33.5z" />
<glyph unicode="&#xf7;" horiz-adv-x="1049" d="M88 690h872v-127h-872v127zM538 154q-89 0 -119 71q-9 21 -9 57.5t33.5 71.5t82 35t83 -34.5t34.5 -84t-35 -83t-70 -33.5zM538 856q-89 0 -119 72q-9 22 -9 58.5t33 71t82.5 34.5t83.5 -34t34 -83.5t-34.5 -84t-70.5 -34.5z" />
<glyph unicode="&#xf8;" horiz-adv-x="1155" d="M579 -27q-159 0 -281 88l-175 -176l-63 65l170 172q-127 140 -127 332t139.5 333.5t319 141.5t317.5 -106l139 139l67 -62l-140 -140q115 -132 115 -321t-136.5 -327.5t-344.5 -138.5zM782 718q-103 147 -238.5 147t-205 -104.5t-69.5 -251.5t62 -277zM380 150 q92 -123 231 -123t208.5 105t69.5 240t-60 263z" />
<glyph unicode="&#xf9;" horiz-adv-x="1124" d="M754 88q-5 17 -13 11.5t-65 -34.5q-187 -93 -312 -93t-180 80q-20 30 -20 74v610q-3 29 -26 50q-31 26 -64.5 28t-33.5 20.5t16 22.5l229 66q12 4 23.5 4t11.5 -17v-671q0 -70 62 -108t158.5 -38t173.5 59q24 19 40 42v542q-3 29 -26 50q-31 26 -64.5 28t-33.5 20.5 t16 22.5l229 66q12 4 23.5 4t11.5 -20v-710q5 -44 25 -63t65 -19l58 4q6 0 6 -11.5t-15 -18.5l-266 -110q-12 -6 -20.5 -6t-8.5 25v90zM658 1067q-4 -4 -7 -4t-7 4l-269 217q-55 47 -55 85t20.5 60.5t55.5 22.5t71 -49l213 -295q4 -4 4 -6t-4 -6z" />
<glyph unicode="&#xfa;" horiz-adv-x="1122" d="M754 88q-5 17 -13 11.5t-65 -34.5q-187 -93 -312 -93t-180 80q-20 30 -20 74v610q-3 29 -26 50q-31 26 -64.5 28t-33.5 20.5t16 22.5l229 66q12 4 23.5 4t11.5 -17v-671q0 -70 62 -108t158.5 -38t173.5 59q24 19 40 42v542q-3 29 -26 50q-31 26 -64.5 28t-33.5 20.5 t16 22.5l229 66q12 4 23.5 4t11.5 -20v-710q5 -44 25 -63t65 -19l58 4q6 0 6 -11.5t-15 -18.5l-266 -110q-12 -6 -20.5 -6t-8.5 25v90zM452 1096q-4 4 -4 6t4 6l213 295q36 49 71 49t55.5 -22.5t20.5 -60.5t-55 -85l-269 -217q-5 -3 -8 -3t-6 3z" />
<glyph unicode="&#xfb;" horiz-adv-x="1122" d="M754 88q-5 17 -13 11.5t-65 -34.5q-187 -93 -312 -93t-180 80q-20 30 -20 74v610q-3 29 -26 50q-31 26 -64.5 28t-33.5 20.5t16 22.5l229 66q12 4 23.5 4t11.5 -17v-671q0 -70 62 -108t158.5 -38t173.5 59q24 19 40 42v542q-3 29 -26 50q-31 26 -64.5 28t-33.5 20.5 t16 22.5l229 66q12 4 23.5 4t11.5 -20v-710q5 -44 25 -63t65 -19l58 4q6 0 6 -11.5t-15 -18.5l-266 -110q-12 -6 -20.5 -6t-8.5 25v90zM519 1291q-3 3 -11 12t-10 9t-9.5 -9t-10.5 -12l-214 -224q-4 -4 -9.5 -4t-15.5 13.5t-10 18.5t7 15l238 323q6 6 12.5 13t11.5 7 q9 0 26 -22l248 -321q7 -11 7 -15.5t-10 -18t-14.5 -13.5t-8.5 4z" />
<glyph unicode="&#xfc;" horiz-adv-x="1122" d="M754 88q-5 17 -13 11.5t-65 -34.5q-187 -93 -312 -93t-180 80q-20 30 -20 74v610q-3 29 -26 50q-31 26 -64.5 28t-33.5 20.5t16 22.5l229 66q12 4 23.5 4t11.5 -17v-671q0 -70 62 -108t158.5 -38t173.5 59q24 19 40 42v542q-3 29 -26 50q-31 26 -64.5 28t-33.5 20.5 t16 22.5l229 66q12 4 23.5 4t11.5 -20v-710q5 -44 25 -63t65 -19l58 4q6 0 6 -11.5t-15 -18.5l-266 -110q-12 -6 -20.5 -6t-8.5 25v90zM856 1240q0 -89 -70 -119q-22 -9 -58.5 -9t-71 33t-34.5 82.5t34.5 84t83 34.5t82.5 -34t34 -72zM340 1112q-50 0 -83.5 33.5t-33.5 82 t33.5 83.5t83.5 35t83.5 -35t33.5 -83.5t-33.5 -82t-83.5 -33.5z" />
<glyph unicode="&#xfd;" horiz-adv-x="1097" d="M1046 900q11 -3 11 -14t-2 -14.5t-9.5 -6t-21 -4.5t-42.5 -7.5t-52 -40.5t-49 -97l-470 -1165l-65 -138q-25 -53 -105 -53q-35 0 -56 23t-21 54.5t15.5 46t36.5 23.5t43.5 16.5t50.5 34t33 39.5q168 376 168 393t-20 42l-330 689q-37 101 -127 130q-7 2 -17 3 q-42 4 -42 25t24 21h445q8 0 8 -15.5t-14 -21t-62 -5.5q-77 0 -77 -60l9 -24l259 -555q20 -51 40 3q2 5 25 65q136 345 152.5 399t16.5 81t-28.5 57t-78 30t-49.5 29q0 17 22 17h379zM482 1096q-4 4 -4 6t4 6l213 295q36 49 71 49t55.5 -22.5t20.5 -60.5t-55 -85l-269 -217 q-5 -3 -8 -3t-6 3z" />
<glyph unicode="&#xfe;" horiz-adv-x="1089" d="M823 105q-138 -132 -310 -132q-62 0 -169 23q-17 0 -18.5 -12t-2.5 -25v-427q0 -75 87 -100q38 -10 71 -14.5t42.5 -8.5t9.5 -15.5t-10 -13.5h-501q-10 2 -10 14q0 18 47 24q108 16 108 114v1867q0 42 -46 58q-20 7 -43 11.5t-36.5 8.5t-17 7.5t-3.5 15t15 19.5l255 120 q12 6 15 6q17 0 17 -24v-795q0 -11 11.5 -11t55.5 29q127 82 264 82q96 0 176 -78q105 -102 140 -284q10 -52 10 -110.5t-19 -123.5q-38 -129 -138 -225zM537 822q-136 0 -214 -78v-562q0 -50 17 -65q44 -38 135 -59q180 -41 280 86q71 91 71 220q0 251 -113 376 q-68 76 -176 82z" />
<glyph unicode="&#xff;" horiz-adv-x="1097" d="M1046 900q11 -3 11 -14t-2 -14.5t-9.5 -6t-21 -4.5t-42.5 -7.5t-52 -40.5t-49 -97l-470 -1165l-65 -138q-25 -53 -105 -53q-35 0 -56 23t-21 54.5t15.5 46t36.5 23.5t43.5 16.5t50.5 34t33 39.5q168 376 168 393t-20 42l-330 689q-37 101 -127 130q-7 2 -17 3 q-42 4 -42 25t24 21h445q8 0 8 -15.5t-14 -21t-62 -5.5q-77 0 -77 -60l9 -24l259 -555q20 -51 40 3q2 5 25 65q136 345 152.5 399t16.5 81t-28.5 57t-78 30t-49.5 29q0 17 22 17h379zM866 1240q0 -89 -70 -119q-22 -9 -58.5 -9t-71 33t-34.5 82.5t34.5 84t83 34.5t82.5 -34 t34 -72zM350 1112q-50 0 -83.5 33.5t-33.5 82t33.5 83.5t83.5 35t83.5 -35t33.5 -83.5t-33.5 -82t-83.5 -33.5z" />
<glyph unicode="&#x100;" horiz-adv-x="1457" d="M532 8q0 -8 -8 -8h-511q-8 0 -8 8v24q0 8 13 8q137 6 185 146l408 1181q1 2 1 5l-11 33q0 5 4 5h200q2 -1 5.5 -2t5.5 -6l423 -1187q14 -27 22.5 -49t19.5 -40q24 -41 79 -63q46 -23 84 -23q8 0 8 -9v-23q0 -8 -8 -8h-612q-8 0 -8 8v24q0 8 37 10t61 4q139 15 139 94 q0 6 -2 14l-151 426q-1 2 -4 9q-12 34 -42 34h-355q-30 0 -47 -33q-3 -7 -3 -8l-150 -439v-9q0 -26 27 -47q61 -47 164 -47h26q8 0 8 -8v-24zM828 734q18 0 18 15q0 8 -4 18l-149 410q-10 27 -15 27t-16 -28l-140 -409q-4 -10 -4 -21.5t15 -11.5h295zM396 1864h647v-129 h-647v129z" />
<glyph unicode="&#x101;" horiz-adv-x="872" d="M712.5 123.5q24.5 -15.5 56.5 -15.5t53.5 16.5t29.5 16.5t8 -21.5t-20 -36.5q-150 -110 -203 -110q-64 0 -104 133q-3 10 -5 9q-124 -93 -156 -112q-82 -47 -164.5 -15t-119.5 106q-18 38 -18 81q0 85 63 135t240 96q60 16 107 41t49.5 32t2.5 13v192q0 113 -88 159 q-29 15 -69.5 15t-82 -32t-41.5 -91l5 -39q-6 -12 -72 -40t-76 -30q-16 0 -16 38.5t23 85.5t65 86q98 91 224 91t205 -69.5t79 -165.5v-527q0 -26 24.5 -41.5zM264 110.5q37 -35.5 84.5 -35.5t115.5 40.5t68 83.5v203q0 11 -5 11t-7 -1l-232 -108q-36 -26 -48.5 -44 t-12.5 -66t37 -83.5zM100 1322h647v-129h-647v129z" />
<glyph unicode="&#x102;" horiz-adv-x="1457" d="M532 8q0 -8 -8 -8h-511q-8 0 -8 8v24q0 8 13 8q137 6 185 146l408 1181q1 2 1 5l-11 33q0 5 4 5h200q2 -1 5.5 -2t5.5 -6l423 -1187q14 -27 22.5 -49t19.5 -40q24 -41 79 -63q46 -23 84 -23q8 0 8 -9v-23q0 -8 -8 -8h-612q-8 0 -8 8v24q0 8 37 10t61 4q139 15 139 94 q0 6 -2 14l-151 426q-1 2 -4 9q-12 34 -42 34h-355q-30 0 -47 -33q-3 -7 -3 -8l-150 -439v-9q0 -26 27 -47q61 -47 164 -47h26q8 0 8 -8v-24zM828 734q18 0 18 15q0 8 -4 18l-149 410q-10 27 -15 27t-16 -28l-140 -409q-4 -10 -4 -21.5t15 -11.5h295zM528.5 1732.5 q-79.5 94.5 -79.5 217.5h31q0 -83 79 -138t158 -55t159.5 66.5t80.5 126.5h33q0 -115 -82 -213.5t-191 -98.5t-188.5 94.5z" />
<glyph unicode="&#x103;" horiz-adv-x="872" d="M712.5 123.5q24.5 -15.5 56.5 -15.5t53.5 16.5t29.5 16.5t8 -21.5t-20 -36.5q-150 -110 -203 -110q-64 0 -104 133q-3 10 -5 9q-124 -93 -156 -112q-82 -47 -164.5 -15t-119.5 106q-18 38 -18 81q0 85 63 135t240 96q60 16 107 41t49.5 32t2.5 13v192q0 113 -88 159 q-29 15 -69.5 15t-82 -32t-41.5 -91l5 -39q-6 -12 -72 -40t-76 -30q-16 0 -16 38.5t23 85.5t65 86q98 91 224 91t205 -69.5t79 -165.5v-527q0 -26 24.5 -41.5zM264 110.5q37 -35.5 84.5 -35.5t115.5 40.5t68 83.5v203q0 11 -5 11t-7 -1l-232 -108q-36 -26 -48.5 -44 t-12.5 -66t37 -83.5zM231.5 1190.5q-79.5 94.5 -79.5 217.5h31q0 -83 79 -138t158 -55t159.5 66.5t80.5 126.5h33q0 -115 -82 -213.5t-191 -98.5t-188.5 94.5z" />
<glyph unicode="&#x104;" horiz-adv-x="1457" d="M532 8q0 -8 -8 -8h-511q-8 0 -8 8v24q0 8 13 8q137 6 185 146l408 1181q1 2 1 5l-11 33q0 5 4 5h200q2 -1 5.5 -2t5.5 -6l423 -1187q14 -27 22.5 -49t19.5 -40q24 -41 79 -63q46 -23 84 -23q8 0 8 -9v-23q0 -8 -8 -8h-612q-8 0 -8 8v24q0 8 37 10t61 4q139 15 139 94 q0 6 -2 14l-151 426q-1 2 -4 9q-12 34 -42 34h-355q-30 0 -47 -33q-3 -7 -3 -8l-150 -439v-9q0 -26 27 -47q61 -47 164 -47h26q8 0 8 -8v-24zM828 734q18 0 18 15q0 8 -4 18l-149 410q-10 27 -15 27t-16 -28l-140 -409q-4 -10 -4 -21.5t15 -11.5h295zM1377 -449q32 0 32 -24 q0 -59 -148 -59t-207 95q-23 37 -23 90q0 95 62.5 191.5t145.5 155.5h82q-2 -1 -44 -48q-111 -124 -111 -258q0 -67 42 -107t109 -40z" />
<glyph unicode="&#x105;" horiz-adv-x="872" d="M712.5 123.5q24.5 -15.5 56.5 -15.5t53.5 16.5t29.5 16.5t8 -21.5t-20 -36.5q-150 -110 -203 -110q-64 0 -104 133q-3 10 -5 9q-124 -93 -156 -112q-82 -47 -164.5 -15t-119.5 106q-18 38 -18 81q0 85 63 135t240 96q60 16 107 41t49.5 32t2.5 13v192q0 113 -88 159 q-29 15 -69.5 15t-82 -32t-41.5 -91l5 -39q-6 -12 -72 -40t-76 -30q-16 0 -16 38.5t23 85.5t65 86q98 91 224 91t205 -69.5t79 -165.5v-527q0 -26 24.5 -41.5zM264 110.5q37 -35.5 84.5 -35.5t115.5 40.5t68 83.5v203q0 11 -5 11t-7 -1l-232 -108q-36 -26 -48.5 -44 t-12.5 -66t37 -83.5zM757 -449q32 0 32 -24q0 -59 -148 -59t-207 95q-23 37 -23 90q0 95 62.5 191.5t145.5 155.5h82q-2 -1 -44 -48q-111 -124 -111 -258q0 -67 42 -107t109 -40z" />
<glyph unicode="&#x106;" horiz-adv-x="1566" d="M1345 38q-5 -8 -24.5 -3.5t-45.5 4.5t-73.5 -10.5t-149.5 -33t-186 -22.5q-190 0 -368.5 89.5t-285.5 254t-107 381.5t107 393q156 258 470 336q100 25 200 25q137 0 325 -46q57 -14 96.5 -29t48.5 -15l30 8h31q12 0 12 -17v-311q0 -10 -18 -10t-21 4.5t-6 11t-6.5 13.5 t-7 13t-4.5 9q-150 301 -455 301q-275 0 -430 -175t-155 -463.5t170.5 -495.5t463.5 -207q160 0 291.5 95t206.5 233q2 6 12 6h13q10 0 10 -12t-6 -23zM722 1594q-4 4 -4 6t4 6l213 295q36 49 71 49t55.5 -22.5t20.5 -60.5t-55 -85l-269 -217q-5 -3 -8 -3t-6 3z" />
<glyph unicode="&#x107;" horiz-adv-x="934" d="M855 807q0 -70 -81 -70q-41 0 -69.5 23.5t-44 40t-32.5 30.5q-72 59 -175.5 13t-159.5 -196q-31 -83 -31 -165q0 -176 80 -287.5t245 -111.5q123 0 221 110q30 33 36 33t13 -6t7 -17.5t-6 -17.5q-153 -213 -385 -213q-168 0 -275.5 125t-107.5 286q1 298 144 429 q126 115 359 115q144 0 191 -29t66 -73q5 -10 5 -19zM412 1096q-4 4 -4 6t4 6l213 295q36 49 71 49t55.5 -22.5t20.5 -60.5t-55 -85l-269 -217q-5 -3 -8 -3t-6 3z" />
<glyph unicode="&#x108;" horiz-adv-x="1566" d="M1345 38q-5 -8 -24.5 -3.5t-45.5 4.5t-73.5 -10.5t-149.5 -33t-186 -22.5q-190 0 -368.5 89.5t-285.5 254t-107 381.5t107 393q156 258 470 336q100 25 200 25q137 0 325 -46q57 -14 96.5 -29t48.5 -15l30 8h31q12 0 12 -17v-311q0 -10 -18 -10t-21 4.5t-6 11t-6.5 13.5 t-7 13t-4.5 9q-150 301 -455 301q-275 0 -430 -175t-155 -463.5t170.5 -495.5t463.5 -207q160 0 291.5 95t206.5 233q2 6 12 6h13q10 0 10 -12t-6 -23zM886 1788q-3 3 -11 12t-10 9t-9.5 -9t-10.5 -12l-214 -224q-4 -4 -9.5 -4t-15.5 13.5t-10 18.5t7 15l238 323 q6 6 12.5 13t11.5 7q9 0 26 -22l248 -321q7 -11 7 -15.5t-10 -18t-14.5 -13.5t-8.5 4z" />
<glyph unicode="&#x109;" horiz-adv-x="934" d="M855 807q0 -70 -81 -70q-41 0 -69.5 23.5t-44 40t-32.5 30.5q-72 59 -175.5 13t-159.5 -196q-31 -83 -31 -165q0 -176 80 -287.5t245 -111.5q123 0 221 110q30 33 36 33t13 -6t7 -17.5t-6 -17.5q-153 -213 -385 -213q-168 0 -275.5 125t-107.5 286q1 298 144 429 q126 115 359 115q144 0 191 -29t66 -73q5 -10 5 -19zM536 1291q-3 3 -11 12t-10 9t-9.5 -9t-10.5 -12l-214 -224q-4 -4 -9.5 -4t-15.5 13.5t-10 18.5t7 15l238 323q6 6 12.5 13t11.5 7q9 0 26 -22l248 -321q7 -11 7 -15.5t-10 -18t-14.5 -13.5t-8.5 4z" />
<glyph unicode="&#x10a;" horiz-adv-x="1566" d="M1345 38q-5 -8 -24.5 -3.5t-45.5 4.5t-73.5 -10.5t-149.5 -33t-186 -22.5q-190 0 -368.5 89.5t-285.5 254t-107 381.5t107 393q156 258 470 336q100 25 200 25q137 0 325 -46q57 -14 96.5 -29t48.5 -15l30 8h31q12 0 12 -17v-311q0 -10 -18 -10t-21 4.5t-6 11t-6.5 13.5 t-7 13t-4.5 9q-150 301 -455 301q-275 0 -430 -175t-155 -463.5t170.5 -495.5t463.5 -207q160 0 291.5 95t206.5 233q2 6 12 6h13q10 0 10 -12t-6 -23zM987 1811q0 -89 -71 -119q-21 -9 -57.5 -9t-71 33t-34.5 82.5t34.5 84t83 34.5t82.5 -34t34 -72z" />
<glyph unicode="&#x10b;" horiz-adv-x="934" d="M855 807q0 -70 -81 -70q-41 0 -69.5 23.5t-44 40t-32.5 30.5q-72 59 -175.5 13t-159.5 -196q-31 -83 -31 -165q0 -176 80 -287.5t245 -111.5q123 0 221 110q30 33 36 33t13 -6t7 -17.5t-6 -17.5q-153 -213 -385 -213q-168 0 -275.5 125t-107.5 286q1 298 144 429 q126 115 359 115q144 0 191 -29t66 -73q5 -10 5 -19zM607 1240q0 -89 -71 -119q-21 -9 -57.5 -9t-71 33t-34.5 82.5t34.5 84t83 34.5t82.5 -34t34 -72z" />
<glyph unicode="&#x10c;" horiz-adv-x="1566" d="M1345 38q-5 -8 -24.5 -3.5t-45.5 4.5t-73.5 -10.5t-149.5 -33t-186 -22.5q-190 0 -368.5 89.5t-285.5 254t-107 381.5t107 393q156 258 470 336q100 25 200 25q137 0 325 -46q57 -14 96.5 -29t48.5 -15l30 8h31q12 0 12 -17v-311q0 -10 -18 -10t-21 4.5t-6 11t-6.5 13.5 t-7 13t-4.5 9q-150 301 -455 301q-275 0 -430 -175t-155 -463.5t170.5 -495.5t463.5 -207q160 0 291.5 95t206.5 233q2 6 12 6h13q10 0 10 -12t-6 -23zM1113 1946q4 4 8.5 4t14.5 -13.5t10 -18.5t-7 -15l-248 -321q-17 -22 -26 -22t-25 22l-237 321q-7 10 -7 15t10 18.5 t15.5 13.5t9.5 -4l214 -224q3 -3 10.5 -12t9.5 -9t10 9t11 12z" />
<glyph unicode="&#x10d;" horiz-adv-x="934" d="M855 807q0 -70 -81 -70q-41 0 -69.5 23.5t-44 40t-32.5 30.5q-72 59 -175.5 13t-159.5 -196q-31 -83 -31 -165q0 -176 80 -287.5t245 -111.5q123 0 221 110q30 33 36 33t13 -6t7 -17.5t-6 -17.5q-153 -213 -385 -213q-168 0 -275.5 125t-107.5 286q1 298 144 429 q126 115 359 115q144 0 191 -29t66 -73q5 -10 5 -19zM766 1449q4 4 8.5 4t14.5 -13.5t10 -18.5t-7 -15l-248 -321q-17 -22 -26 -22t-25 22l-237 321q-7 10 -7 15t10 18.5t15.5 13.5t9.5 -4l214 -224q3 -3 10.5 -12t9.5 -9t10 9t11 12z" />
<glyph unicode="&#x10e;" horiz-adv-x="1664" d="M45 1405q0 8 8 8h22l321 7q58 2 126 2h125q174 0 261.5 -13t172 -30.5t180 -79.5t165.5 -150q148 -188 148 -406t-114 -391q-164 -251 -475 -328q-99 -24 -203 -24h-729q-8 0 -8 8v28q0 8 8 8h22q182 0 182 116v1096q0 56 -43 84.5t-97 28.5h-64q-8 0 -8 8v28zM477 1375 q-25 0 -25 -27v-1223q0 -74 139 -77q41 -1 86 -1q319 0 501.5 179t182.5 476.5t-168.5 485t-443.5 187.5h-272zM963 1946q4 4 8.5 4t14.5 -13.5t10 -18.5t-7 -15l-248 -321q-17 -22 -26 -22t-25 22l-237 321q-7 10 -7 15t10 18.5t15.5 13.5t9.5 -4l214 -224q3 -3 10.5 -12 t9.5 -9t10 9t11 12z" />
<glyph unicode="&#x10f;" horiz-adv-x="1329" d="M741 870q10 0 12.5 0.5t6.5 12.5v516q0 42 -46 58q-20 7 -43 11.5t-36.5 8.5t-17 7.5t-3.5 15t15 19.5l255 120q12 6 15 6q17 0 17 -24v-1424q5 -44 25 -63t65 -19l58 4q6 0 6 -11.5t-15 -18.5l-266 -110q-12 -6 -20.5 -6t-8.5 25v91q0 10 -5 10q-7 0 -83 -45 q-233 -138 -393 -41q-128 78 -173 247q-21 79 -21 167.5t36.5 176t100.5 153.5q141 144 340 144q81 0 125 -15.5t54 -15.5zM320 191.5q84 -113.5 234 -113.5q66 0 136 32.5t70 49.5v516q0 19 -26 45q-80 110 -212.5 110t-209 -111.5t-76.5 -263t84 -265zM1318 1476 q0 -186 -175 -310q-40 -29 -61 -29q-14 0 -14 17.5t6 25t14 13.5t15.5 11t18.5 14q100 91 100 165q0 43 -37 43q-100 0 -133 63q-12 23 -12 64t36.5 74t78.5 33q78 0 120.5 -61.5t42.5 -122.5z" />
<glyph unicode="&#x111;" horiz-adv-x="1090" d="M741 870q10 0 12.5 0.5t6.5 12.5v261h-298q-25 0 -25 25v36q0 25 25 25h298v169q0 42 -46 58q-20 7 -43 11.5t-36.5 8.5t-17 7.5t-3.5 15t15 19.5l255 120q12 6 15 6q17 0 17 -24v-391h121q25 0 25 -25v-36q0 -25 -25 -25h-121v-947q5 -44 25 -63t65 -19l58 4 q6 0 6 -11.5t-15 -18.5l-266 -110q-12 -6 -20.5 -6t-8.5 25v91q0 10 -5 10q-7 0 -83 -45q-233 -138 -393 -41q-128 78 -173 247q-21 79 -21 167.5t36.5 176t100.5 153.5q141 144 340 144q81 0 125 -15.5t54 -15.5zM320 191.5q84 -113.5 234 -113.5q66 0 136 32.5t70 49.5 v516q0 19 -26 45q-80 110 -212.5 110t-209 -111.5t-76.5 -263t84 -265z" />
<glyph unicode="&#x112;" horiz-adv-x="1264" d="M7 8v28q0 8 8 8h22q42 3 86 3.5t80 10.5q82 24 82 120v1054q0 99 -117 126q-33 7 -67 12h-21q-8 0 -8 8v24q0 8 8 8h951q18 0 26 -6.5t10 -28.5l18 -290q0 -10 -15 -10t-22 9q-6 10 -15.5 73t-34.5 105t-88 53h-417q-13 0 -13 -13v-517q0 -10 10 -10h346q134 0 134 156 q0 8 8 8h24q8 0 8 -8v-428q0 -8 -8 -8h-24q-8 0 -8 8q0 148 -86 171q-24 6 -51 6h-343q-10 0 -10 -10v-487q0 -75 69 -85q20 -3 42 -3h333q103 0 160 91q41 65 50 149q3 28 30 28q12 0 12 -13l-33 -336q-6 -14 -14 -14h-1114q-8 0 -8 8zM296 1864h647v-129h-647v129z" />
<glyph unicode="&#x113;" horiz-adv-x="930" d="M231 527q-17 0 -17 -73q0 -155 92 -260t228.5 -105t262.5 118q2 2 5 2h5q6 0 11.5 -9.5t10.5 -12.5q-116 -141 -273 -195q-54 -19 -122 -19t-138 37.5t-120 98.5q-106 127 -106 316.5t115.5 345.5t317.5 156q145 0 237 -129.5t92 -227.5q0 -43 -21 -43h-580zM242 623 q0 -19 18 -19h377q26 0 26 31q0 72 -64.5 147.5t-141.5 75.5q-75 0 -136.5 -68t-78.5 -155v-12zM156 1322h647v-129h-647v129z" />
<glyph unicode="&#x114;" horiz-adv-x="1264" d="M7 8v28q0 8 8 8h22q42 3 86 3.5t80 10.5q82 24 82 120v1054q0 99 -117 126q-33 7 -67 12h-21q-8 0 -8 8v24q0 8 8 8h951q18 0 26 -6.5t10 -28.5l18 -290q0 -10 -15 -10t-22 9q-6 10 -15.5 73t-34.5 105t-88 53h-417q-13 0 -13 -13v-517q0 -10 10 -10h346q134 0 134 156 q0 8 8 8h24q8 0 8 -8v-428q0 -8 -8 -8h-24q-8 0 -8 8q0 148 -86 171q-24 6 -51 6h-343q-10 0 -10 -10v-487q0 -75 69 -85q20 -3 42 -3h333q103 0 160 91q41 65 50 149q3 28 30 28q12 0 12 -13l-33 -336q-6 -14 -14 -14h-1114q-8 0 -8 8zM428.5 1732.5 q-79.5 94.5 -79.5 217.5h31q0 -83 79 -138t158 -55t159.5 66.5t80.5 126.5h33q0 -115 -82 -213.5t-191 -98.5t-188.5 94.5z" />
<glyph unicode="&#x115;" horiz-adv-x="930" d="M231 527q-17 0 -17 -73q0 -155 92 -260t228.5 -105t262.5 118q2 2 5 2h5q6 0 11.5 -9.5t10.5 -12.5q-116 -141 -273 -195q-54 -19 -122 -19t-138 37.5t-120 98.5q-106 127 -106 316.5t115.5 345.5t317.5 156q145 0 237 -129.5t92 -227.5q0 -43 -21 -43h-580zM242 623 q0 -19 18 -19h377q26 0 26 31q0 72 -64.5 147.5t-141.5 75.5q-75 0 -136.5 -68t-78.5 -155v-12zM308.5 1190.5q-79.5 94.5 -79.5 217.5h31q0 -83 79 -138t158 -55t159.5 66.5t80.5 126.5h33q0 -115 -82 -213.5t-191 -98.5t-188.5 94.5z" />
<glyph unicode="&#x116;" horiz-adv-x="1264" d="M7 8v28q0 8 8 8h22q42 3 86 3.5t80 10.5q82 24 82 120v1054q0 99 -117 126q-33 7 -67 12h-21q-8 0 -8 8v24q0 8 8 8h951q18 0 26 -6.5t10 -28.5l18 -290q0 -10 -15 -10t-22 9q-6 10 -15.5 73t-34.5 105t-88 53h-417q-13 0 -13 -13v-517q0 -10 10 -10h346q134 0 134 156 q0 8 8 8h24q8 0 8 -8v-428q0 -8 -8 -8h-24q-8 0 -8 8q0 148 -86 171q-24 6 -51 6h-343q-10 0 -10 -10v-487q0 -75 69 -85q20 -3 42 -3h333q103 0 160 91q41 65 50 149q3 28 30 28q12 0 12 -13l-33 -336q-6 -14 -14 -14h-1114q-8 0 -8 8zM707 1811q0 -89 -71 -119 q-21 -9 -57.5 -9t-71 33t-34.5 82.5t34.5 84t83 34.5t82.5 -34t34 -72z" />
<glyph unicode="&#x117;" horiz-adv-x="917" d="M231 527q-17 0 -17 -73q0 -155 92 -260t228.5 -105t262.5 118q2 2 5 2h5q6 0 11.5 -9.5t10.5 -12.5q-116 -141 -273 -195q-54 -19 -122 -19t-138 37.5t-120 98.5q-106 127 -106 316.5t115.5 345.5t317.5 156q145 0 237 -129.5t92 -227.5q0 -43 -21 -43h-580zM242 623 q0 -19 18 -19h377q26 0 26 31q0 72 -64.5 147.5t-141.5 75.5q-75 0 -136.5 -68t-78.5 -155v-12zM617 1240q0 -89 -71 -119q-21 -9 -57.5 -9t-71 33t-34.5 82.5t34.5 84t83 34.5t82.5 -34t34 -72z" />
<glyph unicode="&#x118;" horiz-adv-x="1264" d="M7 8v28q0 8 8 8h22q42 3 86 3.5t80 10.5q82 24 82 120v1054q0 99 -117 126q-33 7 -67 12h-21q-8 0 -8 8v24q0 8 8 8h951q18 0 26 -6.5t10 -28.5l18 -290q0 -10 -15 -10t-22 9q-6 10 -15.5 73t-34.5 105t-88 53h-417q-13 0 -13 -13v-517q0 -10 10 -10h346q134 0 134 156 q0 8 8 8h24q8 0 8 -8v-428q0 -8 -8 -8h-24q-8 0 -8 8q0 148 -86 171q-24 6 -51 6h-343q-10 0 -10 -10v-487q0 -75 69 -85q20 -3 42 -3h333q103 0 160 91q41 65 50 149q3 28 30 28q12 0 12 -13l-33 -336q-6 -14 -14 -14h-1114q-8 0 -8 8zM1077 -449q32 0 32 -24 q0 -59 -148 -59t-207 95q-23 37 -23 90q0 95 62.5 191.5t145.5 155.5h82q-2 -1 -44 -48q-111 -124 -111 -258q0 -67 42 -107t109 -40z" />
<glyph unicode="&#x119;" horiz-adv-x="930" d="M231 527q-17 0 -17 -73q0 -155 92 -260t228.5 -105t262.5 118q2 2 5 2h5q6 0 11.5 -9.5t10.5 -12.5q-116 -141 -273 -195q-54 -19 -122 -19t-138 37.5t-120 98.5q-106 127 -106 316.5t115.5 345.5t317.5 156q145 0 237 -129.5t92 -227.5q0 -43 -21 -43h-580zM242 623 q0 -19 18 -19h377q26 0 26 31q0 72 -64.5 147.5t-141.5 75.5q-75 0 -136.5 -68t-78.5 -155v-12zM637 -449q32 0 32 -24q0 -59 -148 -59t-207 95q-23 37 -23 90q0 95 62.5 191.5t145.5 155.5h82q-2 -1 -44 -48q-111 -124 -111 -258q0 -67 42 -107t109 -40z" />
<glyph unicode="&#x11a;" horiz-adv-x="1264" d="M7 8v28q0 8 8 8h22q42 3 86 3.5t80 10.5q82 24 82 120v1054q0 99 -117 126q-33 7 -67 12h-21q-8 0 -8 8v24q0 8 8 8h951q18 0 26 -6.5t10 -28.5l18 -290q0 -10 -15 -10t-22 9q-6 10 -15.5 73t-34.5 105t-88 53h-417q-13 0 -13 -13v-517q0 -10 10 -10h346q134 0 134 156 q0 8 8 8h24q8 0 8 -8v-428q0 -8 -8 -8h-24q-8 0 -8 8q0 148 -86 171q-24 6 -51 6h-343q-10 0 -10 -10v-487q0 -75 69 -85q20 -3 42 -3h333q103 0 160 91q41 65 50 149q3 28 30 28q12 0 12 -13l-33 -336q-6 -14 -14 -14h-1114q-8 0 -8 8zM903 1946q4 4 8.5 4t14.5 -13.5 t10 -18.5t-7 -15l-248 -321q-17 -22 -26 -22t-25 22l-237 321q-7 10 -7 15t10 18.5t15.5 13.5t9.5 -4l214 -224q3 -3 10.5 -12t9.5 -9t10 9t11 12z" />
<glyph unicode="&#x11b;" horiz-adv-x="930" d="M231 527q-17 0 -17 -73q0 -155 92 -260t228.5 -105t262.5 118q2 2 5 2h5q6 0 11.5 -9.5t10.5 -12.5q-116 -141 -273 -195q-54 -19 -122 -19t-138 37.5t-120 98.5q-106 127 -106 316.5t115.5 345.5t317.5 156q145 0 237 -129.5t92 -227.5q0 -43 -21 -43h-580zM242 623 q0 -19 18 -19h377q26 0 26 31q0 72 -64.5 147.5t-141.5 75.5q-75 0 -136.5 -68t-78.5 -155v-12zM723 1449q4 4 8.5 4t14.5 -13.5t10 -18.5t-7 -15l-248 -321q-17 -22 -26 -22t-25 22l-237 321q-7 10 -7 15t10 18.5t15.5 13.5t9.5 -4l214 -224q3 -3 10.5 -12t9.5 -9t10 9 t11 12z" />
<glyph unicode="&#x11c;" horiz-adv-x="1621" d="M1560 620q11 0 11 -15.5t-11 -21.5q-27 -11 -55.5 -19t-52.5 -21q-55 -30 -55 -97v-325q0 -22 -105.5 -59t-171.5 -54q-309 -76 -552 16q-279 107 -395 383q-58 138 -58 274.5t27 229.5q82 284 344 437q171 100 359.5 100t400.5 -76q39 -14 44 -14h12l40 10h25 q11 0 11 -11v-333q0 -19 -22 -19h-4q-19 2 -26 51l-3 15q-100 313 -422 313q-258 0 -411.5 -195t-153.5 -464t154.5 -475.5t424.5 -206.5q139 0 229 43q35 17 54 43v274q0 93 -53 136.5t-195 43.5q-11 0 -11 18.5t11 18.5h610zM886 1788q-3 3 -11 12t-10 9t-9.5 -9 t-10.5 -12l-214 -224q-4 -4 -9.5 -4t-15.5 13.5t-10 18.5t7 15l238 323q6 6 12.5 13t11.5 7q9 0 26 -22l248 -321q7 -11 7 -15.5t-10 -18t-14.5 -13.5t-8.5 4z" />
<glyph unicode="&#x11d;" horiz-adv-x="1148" d="M819 831l268 12q23 0 30 -5t15 -34.5t8 -55.5t-5 -30t-20 -4h-222q6 -11 13 -23t18 -40t11 -86.5t-28.5 -122t-83.5 -112.5q-122 -110 -316 -110q-51 0 -112 19q-15 -16 -40 -29.5t-49 -27.5q-60 -34 -60 -68q0 -85 282 -87t370.5 -18.5t137.5 -65.5q77 -77 77 -176 q0 -85 -73 -175q-127 -159 -388 -212q-93 -19 -197 -19q-189 0 -287 68.5t-98 165.5q0 53 25 87.5t63.5 65t84.5 64t88 85.5q-96 8 -164.5 61t-68.5 104t27 75.5t66 42t82 32.5t75 39q-112 44 -173 121.5t-61 169.5q0 171 124.5 279t300.5 108t280 -98zM237 -261 q-15 -26 -15 -65.5t28.5 -83t77.5 -78.5q108 -80 260 -80t275.5 88.5t123.5 194t-102 141.5q-48 16 -247 20t-258 11q-26 -30 -53.5 -53t-51 -46t-38.5 -49zM700.5 794.5q-70.5 88.5 -186.5 88.5q-150 0 -212 -141q-24 -54 -24 -124q0 -143 59 -238q72 -114 189 -114t181 79 t64 220t-70.5 229.5zM546 1291q-3 3 -11 12t-10 9t-9.5 -9t-10.5 -12l-214 -224q-4 -4 -9.5 -4t-15.5 13.5t-10 18.5t7 15l238 323q6 6 12.5 13t11.5 7q9 0 26 -22l248 -321q7 -11 7 -15.5t-10 -18t-14.5 -13.5t-8.5 4z" />
<glyph unicode="&#x11e;" horiz-adv-x="1621" d="M1560 620q11 0 11 -15.5t-11 -21.5q-27 -11 -55.5 -19t-52.5 -21q-55 -30 -55 -97v-325q0 -22 -105.5 -59t-171.5 -54q-309 -76 -552 16q-279 107 -395 383q-58 138 -58 274.5t27 229.5q82 284 344 437q171 100 359.5 100t400.5 -76q39 -14 44 -14h12l40 10h25 q11 0 11 -11v-333q0 -19 -22 -19h-4q-19 2 -26 51l-3 15q-100 313 -422 313q-258 0 -411.5 -195t-153.5 -464t154.5 -475.5t424.5 -206.5q139 0 229 43q35 17 54 43v274q0 93 -53 136.5t-195 43.5q-11 0 -11 18.5t11 18.5h610zM658.5 1733.5q-79.5 94.5 -79.5 217.5h31 q0 -83 79 -138t158 -55t159.5 66.5t80.5 126.5h33q0 -115 -82 -213.5t-191 -98.5t-188.5 94.5z" />
<glyph unicode="&#x11f;" horiz-adv-x="1148" d="M819 831l268 12q23 0 30 -5t15 -34.5t8 -55.5t-5 -30t-20 -4h-222q6 -11 13 -23t18 -40t11 -86.5t-28.5 -122t-83.5 -112.5q-122 -110 -316 -110q-51 0 -112 19q-15 -16 -40 -29.5t-49 -27.5q-60 -34 -60 -68q0 -85 282 -87t370.5 -18.5t137.5 -65.5q77 -77 77 -176 q0 -85 -73 -175q-127 -159 -388 -212q-93 -19 -197 -19q-189 0 -287 68.5t-98 165.5q0 53 25 87.5t63.5 65t84.5 64t88 85.5q-96 8 -164.5 61t-68.5 104t27 75.5t66 42t82 32.5t75 39q-112 44 -173 121.5t-61 169.5q0 171 124.5 279t300.5 108t280 -98zM237 -261 q-15 -26 -15 -65.5t28.5 -83t77.5 -78.5q108 -80 260 -80t275.5 88.5t123.5 194t-102 141.5q-48 16 -247 20t-258 11q-26 -30 -53.5 -53t-51 -46t-38.5 -49zM700.5 794.5q-70.5 88.5 -186.5 88.5q-150 0 -212 -141q-24 -54 -24 -124q0 -143 59 -238q72 -114 189 -114t181 79 t64 220t-70.5 229.5zM379.5 1190.5q-79.5 94.5 -79.5 217.5h31q0 -83 79 -138t158 -55t159.5 66.5t80.5 126.5h33q0 -115 -82 -213.5t-191 -98.5t-188.5 94.5z" />
<glyph unicode="&#x120;" horiz-adv-x="1621" d="M1560 620q11 0 11 -15.5t-11 -21.5q-27 -11 -55.5 -19t-52.5 -21q-55 -30 -55 -97v-325q0 -22 -105.5 -59t-171.5 -54q-309 -76 -552 16q-279 107 -395 383q-58 138 -58 274.5t27 229.5q82 284 344 437q171 100 359.5 100t400.5 -76q39 -14 44 -14h12l40 10h25 q11 0 11 -11v-333q0 -19 -22 -19h-4q-19 2 -26 51l-3 15q-100 313 -422 313q-258 0 -411.5 -195t-153.5 -464t154.5 -475.5t424.5 -206.5q139 0 229 43q35 17 54 43v274q0 93 -53 136.5t-195 43.5q-11 0 -11 18.5t11 18.5h610zM947 1811q0 -89 -71 -119q-21 -9 -57.5 -9 t-71 33t-34.5 82.5t34.5 84t83 34.5t82.5 -34t34 -72z" />
<glyph unicode="&#x121;" horiz-adv-x="1148" d="M819 831l268 12q23 0 30 -5t15 -34.5t8 -55.5t-5 -30t-20 -4h-222q6 -11 13 -23t18 -40t11 -86.5t-28.5 -122t-83.5 -112.5q-122 -110 -316 -110q-51 0 -112 19q-15 -16 -40 -29.5t-49 -27.5q-60 -34 -60 -68q0 -85 282 -87t370.5 -18.5t137.5 -65.5q77 -77 77 -176 q0 -85 -73 -175q-127 -159 -388 -212q-93 -19 -197 -19q-189 0 -287 68.5t-98 165.5q0 53 25 87.5t63.5 65t84.5 64t88 85.5q-96 8 -164.5 61t-68.5 104t27 75.5t66 42t82 32.5t75 39q-112 44 -173 121.5t-61 169.5q0 171 124.5 279t300.5 108t280 -98zM237 -261 q-15 -26 -15 -65.5t28.5 -83t77.5 -78.5q108 -80 260 -80t275.5 88.5t123.5 194t-102 141.5q-48 16 -247 20t-258 11q-26 -30 -53.5 -53t-51 -46t-38.5 -49zM700.5 794.5q-70.5 88.5 -186.5 88.5q-150 0 -212 -141q-24 -54 -24 -124q0 -143 59 -238q72 -114 189 -114t181 79 t64 220t-70.5 229.5zM637 1240q0 -89 -71 -119q-21 -9 -57.5 -9t-71 33t-34.5 82.5t34.5 84t83 34.5t82.5 -34t34 -72z" />
<glyph unicode="&#x122;" horiz-adv-x="1621" d="M1560 620q11 0 11 -15.5t-11 -21.5q-27 -11 -55.5 -19t-52.5 -21q-55 -30 -55 -97v-325q0 -22 -105.5 -59t-171.5 -54q-309 -76 -552 16q-279 107 -395 383q-58 138 -58 274.5t27 229.5q82 284 344 437q171 100 359.5 100t400.5 -76q39 -14 44 -14h12l40 10h25 q11 0 11 -11v-333q0 -19 -22 -19h-4q-19 2 -26 51l-3 15q-100 313 -422 313q-258 0 -411.5 -195t-153.5 -464t154.5 -475.5t424.5 -206.5q139 0 229 43q35 17 54 43v274q0 93 -53 136.5t-195 43.5q-11 0 -11 18.5t11 18.5h610zM1009 -301q0 -186 -175 -311q-40 -28 -60 -28 q-15 0 -15 27q0 16 21.5 30.5t31.5 24.5q101 90 101 164q0 29 -11.5 35t-49.5 6t-79.5 29t-41.5 85t27 80q46 42 88 42q78 0 120.5 -61.5t42.5 -122.5z" />
<glyph unicode="&#x123;" horiz-adv-x="1148" d="M819 831l268 12q23 0 30 -5t15 -34.5t8 -55.5t-5 -30t-20 -4h-222q6 -11 13 -23t18 -40t11 -86.5t-28.5 -122t-83.5 -112.5q-122 -110 -316 -110q-51 0 -112 19q-15 -16 -40 -29.5t-49 -27.5q-60 -34 -60 -68q0 -85 282 -87t370.5 -18.5t137.5 -65.5q77 -77 77 -176 q0 -85 -73 -175q-127 -159 -388 -212q-93 -19 -197 -19q-189 0 -287 68.5t-98 165.5q0 53 25 87.5t63.5 65t84.5 64t88 85.5q-96 8 -164.5 61t-68.5 104t27 75.5t66 42t82 32.5t75 39q-112 44 -173 121.5t-61 169.5q0 171 124.5 279t300.5 108t280 -98zM237 -261 q-15 -26 -15 -65.5t28.5 -83t77.5 -78.5q108 -80 260 -80t275.5 88.5t123.5 194t-102 141.5q-48 16 -247 20t-258 11q-26 -30 -53.5 -53t-51 -46t-38.5 -49zM700.5 794.5q-70.5 88.5 -186.5 88.5q-150 0 -212 -141q-24 -54 -24 -124q0 -143 59 -238q72 -114 189 -114t181 79 t64 220t-70.5 229.5zM410 1306q0 186 175 310q40 29 61 29q14 0 14 -17.5t-6 -25t-14 -13.5t-15.5 -11t-18.5 -14q-100 -91 -100 -165q0 -43 37 -43q100 0 133 -63q12 -23 12 -64t-36.5 -74t-78.5 -33q-78 0 -120.5 61.5t-42.5 122.5z" />
<glyph unicode="&#x124;" horiz-adv-x="1712" d="M1457 181q0 -135 187 -141q8 0 8 -8v-24q0 -8 -8 -8h-636q-8 0 -8 8v24q0 8 50 8t114 22q98 32 98 108v477q0 10 -3 13t-13 3h-788q-10 0 -13 -3t-3 -13v-487q0 -120 177 -120q8 0 8 -8v-24q0 -8 -7 -8h-552q-8 0 -8 8v24q0 8 20 8q167 0 167 143v1067q0 117 -139 124 q-21 1 -21 9v19q0 8 7 8h502q8 0 8 -8v-19q0 -6 -19 -6q-143 0 -143 -141v-462q0 -10 3 -13t13 -3h788q10 0 13 3t3 13v478q-2 9 -2.5 16.5t-3.5 23.5q-7 34 -71 55.5t-145 27.5q-8 0 -8 8v19q0 8 7 8h577q8 0 8 -8v-19q0 -6 -19 -6q-148 0 -148 -141v-1055zM877 1788 q-3 3 -11 12t-10 9t-9.5 -9t-10.5 -12l-214 -224q-4 -4 -9.5 -4t-15.5 13.5t-10 18.5t7 15l238 323q6 6 12.5 13t11.5 7q9 0 26 -22l248 -321q7 -11 7 -15.5t-10 -18t-14.5 -13.5t-8.5 4z" />
<glyph unicode="&#x125;" horiz-adv-x="1124" d="M565 1903q-2 0 -11.5 -9t-24.5 -22.5t-41 -36.5t-64 -57q-97 -87 -102.5 -87t-15.5 11.5t-10 16.5t7 12l238 274q6 5 12.5 11t11.5 6q8 0 26 -18l248 -273q7 -9 7 -13t-10 -15.5t-14.5 -11.5t-8.5 4zM341 774q0 -24 7 -24t10 3.5t42 46.5q113 126 229 126q152 0 223 -68 q87 -86 87 -289v-417q0 -98 108 -114q47 -6 47 -21t-10 -17h-446q-10 2 -10 14q0 18 47 24q108 16 108 114v407q0 147 -21 191q-40 88 -167 88q-78 0 -166 -66.5t-88 -146.5v-473q0 -98 108 -114q47 -6 47 -21t-10 -17h-446q-10 2 -10 14q0 18 47 24q108 16 108 114v1247 q0 42 -46 58q-20 7 -43 11.5t-36.5 8.5t-17 7.5t-3.5 15t15 19.5l255 120q12 6 15 6q17 0 17 -24v-847z" />
<glyph unicode="&#x126;" horiz-adv-x="1712" d="M1457 181q0 -135 187 -141q8 0 8 -8v-24q0 -8 -8 -8h-636q-8 0 -8 8v24q0 8 50 8t114 22q98 32 98 108v477q0 10 -3 13t-13 3h-788q-10 0 -13 -3t-3 -13v-487q0 -120 177 -120q8 0 8 -8v-24q0 -8 -7 -8h-552q-8 0 -8 8v24q0 8 20 8q167 0 167 143v869h-128q-42 0 -42 25 v36q0 25 42 25h128v112q0 117 -139 124q-21 1 -21 9v19q0 8 7 8h502q8 0 8 -8v-19q0 -6 -19 -6q-143 0 -143 -141v-98h820v114q-2 9 -2.5 16.5t-3.5 23.5q-7 34 -71 55.5t-145 27.5q-8 0 -8 8v19q0 8 7 8h577q8 0 8 -8v-19q0 -6 -19 -6q-148 0 -148 -141v-98h126 q41 0 41 -25v-36q0 -25 -41 -25h-126v-871zM442 774q0 -10 3 -13t13 -3h788q10 0 13 3t3 13v278h-820v-278z" />
<glyph unicode="&#x127;" horiz-adv-x="1124" d="M341 774q0 -24 7 -24t10 3.5t42 46.5q113 126 229 126q152 0 223 -68q87 -86 87 -289v-417q0 -98 108 -114q47 -6 47 -21t-10 -17h-446q-10 2 -10 14q0 18 47 24q108 16 108 114v407q0 147 -21 191q-40 88 -167 88q-78 0 -166 -66.5t-88 -146.5v-473q0 -98 108 -114 q47 -6 47 -21t-10 -17h-446q-10 2 -10 14q0 18 47 24q108 16 108 114v992h-112q-25 0 -25 25v36q0 25 25 25h112v169q0 42 -46 58q-20 7 -43 11.5t-36.5 8.5t-17 7.5t-3.5 15t15 19.5l255 120q12 6 15 6q17 0 17 -24v-391h307q25 0 25 -25v-36q0 -25 -25 -25h-307v-370z" />
<glyph unicode="&#x128;" horiz-adv-x="699" d="M252 1250q0 120 -138 120q-22 0 -22 8v24q0 8 8 8h501q8 0 8 -8v-24q0 -8 -44 -8t-81 -28t-37 -115v-1067q0 -120 139 -120q21 0 21 -8v-24q0 -8 -8 -8h-501q-8 0 -8 8v24q0 8 44 8t81 28t37 115v1067zM518 1812q63 0 80 69q5 18 5 32.5t16 14.5h19q14 0 14 -56.5 t-45 -116.5t-109.5 -60t-131.5 35q-128 69 -168.5 69t-69.5 -34.5t-29 -80.5q0 -12 -16 -12h-21q-8 0 -8 31q0 81 43 147.5t105.5 66.5t169 -52.5t146.5 -52.5z" />
<glyph unicode="&#x129;" horiz-adv-x="576" d="M459 1252q63 0 80 69q5 18 5 32.5t16 14.5h19q14 0 14 -56.5t-45 -116.5t-109.5 -60t-131.5 35q-128 69 -168.5 69t-69.5 -34.5t-29 -80.5q0 -12 -16 -12h-21q-8 0 -8 31q0 81 43 147.5t105.5 66.5t169 -52.5t146.5 -52.5zM479 38q47 -6 47 -24q0 -12 -10 -14h-446 q-10 2 -10 14q0 18 47 24q108 16 108 114v529q0 42 -46 58q-20 7 -43 11.5t-36.5 8.5t-17 7.5t-3.5 15t15 19.5l255 120q12 6 15 6q17 0 17 -24v-751q0 -98 108 -114z" />
<glyph unicode="&#x12a;" horiz-adv-x="699" d="M252 1250q0 120 -138 120q-22 0 -22 8v24q0 8 8 8h501q8 0 8 -8v-24q0 -8 -44 -8t-81 -28t-37 -115v-1067q0 -120 139 -120q21 0 21 -8v-24q0 -8 -8 -8h-501q-8 0 -8 8v24q0 8 44 8t81 28t37 115v1067zM26 1864h647v-129h-647v129z" />
<glyph unicode="&#x12b;" horiz-adv-x="603" d="M496 38q47 -6 47 -24q0 -12 -10 -14h-446q-10 2 -10 14q0 18 47 24q108 16 108 114v529q0 42 -46 58q-20 7 -43 11.5t-36.5 8.5t-17 7.5t-3.5 15t15 19.5l255 120q12 6 15 6q17 0 17 -24v-751q0 -98 108 -114zM-46 1322h647v-129h-647v129z" />
<glyph unicode="&#x12c;" horiz-adv-x="699" d="M252 1250q0 120 -138 120q-22 0 -22 8v24q0 8 8 8h501q8 0 8 -8v-24q0 -8 -44 -8t-81 -28t-37 -115v-1067q0 -120 139 -120q21 0 21 -8v-24q0 -8 -8 -8h-501q-8 0 -8 8v24q0 8 44 8t81 28t37 115v1067zM158.5 1733.5q-79.5 94.5 -79.5 217.5h31q0 -83 79 -138t158 -55 t159.5 66.5t80.5 126.5h33q0 -115 -82 -213.5t-191 -98.5t-188.5 94.5z" />
<glyph unicode="&#x12d;" horiz-adv-x="581" d="M479 38q47 -6 47 -24q0 -12 -10 -14h-446q-10 2 -10 14q0 18 47 24q108 16 108 114v529q0 42 -46 58q-20 7 -43 11.5t-36.5 8.5t-17 7.5t-3.5 15t15 19.5l255 120q12 6 15 6q17 0 17 -24v-751q0 -98 108 -114zM79.5 1190.5q-79.5 94.5 -79.5 217.5h31q0 -83 79 -138 t158 -55t159.5 66.5t80.5 126.5h33q0 -115 -82 -213.5t-191 -98.5t-188.5 94.5z" />
<glyph unicode="&#x12e;" horiz-adv-x="699" d="M252 1250q0 120 -138 120q-22 0 -22 8v24q0 8 8 8h501q8 0 8 -8v-24q0 -8 -44 -8t-81 -28t-37 -115v-1067q0 -120 139 -120q21 0 21 -8v-24q0 -8 -8 -8h-501q-8 0 -8 8v24q0 8 44 8t81 28t37 115v1067zM537 -449q32 0 32 -24q0 -59 -148 -59t-207 95q-23 37 -23 90 q0 95 62.5 191.5t145.5 155.5h82q-2 -1 -44 -48q-111 -124 -111 -258q0 -67 42 -107t109 -40z" />
<glyph unicode="&#x12f;" horiz-adv-x="576" d="M70 0q-10 2 -10 14q0 18 47 24q108 16 108 114v529q0 42 -46 58q-20 7 -43 11.5t-36.5 8.5t-17 7.5t-3.5 15t15 19.5l255 120q12 6 15 6q17 0 17 -24v-751q0 -98 108 -114q47 -6 47 -21t-10 -17h-446zM205.5 1234q-31.5 26 -31.5 72.5t30 73.5t71.5 27t70 -32t28.5 -69 t-27 -67.5t-68.5 -30.5t-73 26zM438 -449q32 0 32 -24q0 -59 -148 -59t-207 95q-23 37 -23 90q0 95 62.5 191.5t145.5 155.5h82q-2 -1 -44 -48q-111 -124 -111 -258q0 -67 42 -107t109 -40z" />
<glyph unicode="&#x130;" horiz-adv-x="699" d="M252 1250q0 120 -138 120q-22 0 -22 8v24q0 8 8 8h501q8 0 8 -8v-24q0 -8 -44 -8t-81 -28t-37 -115v-1067q0 -120 139 -120q21 0 21 -8v-24q0 -8 -8 -8h-501q-8 0 -8 8v24q0 8 44 8t81 28t37 115v1067zM467 1811q0 -89 -71 -119q-21 -9 -57.5 -9t-71 33t-34.5 82.5 t34.5 84t83 34.5t82.5 -34t34 -72z" />
<glyph unicode="&#x131;" horiz-adv-x="576" d="M479 38q47 -6 47 -24q0 -12 -10 -14h-446q-10 2 -10 14q0 18 47 24q108 16 108 114v529q0 42 -46 58q-20 7 -43 11.5t-36.5 8.5t-17 7.5t-3.5 15t15 19.5l255 120q12 6 15 6q17 0 17 -24v-751q0 -98 108 -114z" />
<glyph unicode="&#x132;" horiz-adv-x="1392" d="M252 1250q0 120 -138 120q-22 0 -22 8v24q0 8 8 8h501q8 0 8 -8v-24q0 -8 -44 -8t-81 -28t-37 -115v-1067q0 -120 139 -120q21 0 21 -8v-24q0 -8 -8 -8h-501q-8 0 -8 8v24q0 8 44 8t81 28t37 115v1067zM1302 1378q0 -8 -41 -8t-81 -28.5t-40 -114.5v-1237 q0 -223 -127 -415q-87 -133 -218 -187q-67 -28 -138.5 -28t-139.5 32t-68 72t32 66.5t66 26.5t56 -7t38.5 -17.5t29 -23t35 -30t61.5 -17.5q77 0 117.5 64.5t50.5 152t10 221.5v1350q0 101 -113 116q-36 4 -81 4q-8 0 -8 8v24q0 8 8 8h543q8 0 8 -8v-24z" />
<glyph unicode="&#x133;" horiz-adv-x="1104" d="M70 0q-10 2 -10 14q0 18 47 24q108 16 108 114v529q0 42 -46 58q-20 7 -43 11.5t-36.5 8.5t-17 7.5t-3.5 15t15 19.5l255 120q12 6 15 6q17 0 17 -24v-751q0 -98 108 -114q47 -6 47 -21t-10 -17h-446zM205.5 1234q-31.5 26 -31.5 72.5t30 73.5t71.5 27t70 -32t28.5 -69 t-27 -67.5t-68.5 -30.5t-73 26zM629 -543q106 25 106 226v998q0 42 -46 58q-20 7 -43 11.5t-36.5 8.5t-17 7.5t-3.5 15t15 19.5l255 120q12 6 15 6q17 0 17 -24v-1030q0 -160 -66 -291q-23 -45 -55 -82q-88 -118 -232 -134q-48 -6 -101.5 -6t-106.5 40.5t-57 87.5 q0 54 53 80q17 8 30 8q23 0 138 -88q41 -31 135 -31zM712 1234q-32 26 -32 72.5t30 73.5t72 27t70.5 -32t28.5 -69t-27 -67.5t-68.5 -30.5t-73.5 26z" />
<glyph unicode="&#x134;" horiz-adv-x="693" d="M603 1378q0 -8 -41 -8t-81 -28.5t-40 -114.5v-1237q0 -223 -127 -415q-87 -133 -218 -187q-67 -28 -138.5 -28t-139.5 32t-68 72t32 66.5t66 26.5t56 -7t38.5 -17.5t29 -23t35 -30t61.5 -17.5q77 0 117.5 64.5t50.5 152t10 221.5v1350q0 101 -113 116q-36 4 -81 4 q-8 0 -8 8v24q0 8 8 8h543q8 0 8 -8v-24zM341 1788q-3 3 -11 12t-10 9t-9.5 -9t-10.5 -12l-214 -224q-4 -4 -9.5 -4t-15.5 13.5t-10 18.5t7 15l238 323q6 6 12.5 13t11.5 7q9 0 26 -22l248 -321q7 -11 7 -15.5t-10 -18t-14.5 -13.5t-8.5 4z" />
<glyph unicode="&#x135;" horiz-adv-x="577" d="M305 1291q-3 3 -11 12t-10 9t-9.5 -9t-10.5 -12l-214 -224q-4 -4 -9.5 -4t-15.5 13.5t-10 18.5t7 15l238 323q6 6 12.5 13t11.5 7q9 0 26 -22l248 -321q7 -11 7 -15.5t-10 -18t-14.5 -13.5t-8.5 4zM109 -543q106 25 106 226v998q0 42 -46 58q-20 7 -43 11.5t-36.5 8.5 t-17 7.5t-3.5 15t15 19.5l255 120q12 6 15 6q17 0 17 -24v-1030q0 -160 -66 -291q-23 -45 -55 -82q-88 -118 -232 -134q-48 -6 -101.5 -6t-106.5 40.5t-57 87.5q0 54 53 80q17 8 30 8q23 0 138 -88q41 -31 135 -31z" />
<glyph unicode="&#x136;" horiz-adv-x="1524" d="M643 8q0 -8 -8 -8h-588q-7 0 -7 8v19q0 8 42.5 9t104 31.5t61.5 92.5v1090q0 113 -200 125q-8 0 -8 8v19q0 8 7 8h588q8 0 8 -8v-19q0 -6 -41.5 -6t-91.5 -24q-67 -32 -67 -105v-441q0 -88 17 -88q43 0 109 54.5t117 112.5t102.5 137.5t71.5 108.5q75 106 75 159.5 t-46 71.5q-30 12 -86 12h-10q-8 0 -8 8v19q0 8 8 8h578q8 0 8 -8v-19q0 -12 -12 -12q-128 -4 -187 -33.5t-94.5 -64.5t-77.5 -106q-128 -217 -255 -347q-54 -55 -56 -68q5 -10 82 -80q192 -176 403 -477q79 -115 207 -142q85 -20 107.5 -20t22.5 -8v-17q0 -8 -8 -8h-654 q-8 0 -8 8v19q0 8 34 11q113 10 113 66q-7 56 -201 277q-35 39 -73 87q-152 187 -250 187h-19q-10 0 -10 -14v-468q0 -140 192 -140q8 0 8 -8v-17zM889 -301q0 -186 -175 -311q-40 -28 -60 -28q-15 0 -15 27q0 16 21.5 30.5t31.5 24.5q101 90 101 164q0 29 -11.5 35t-49.5 6 t-79.5 29t-41.5 85t27 80q46 42 88 42q78 0 120.5 -61.5t42.5 -122.5z" />
<glyph unicode="&#x137;" horiz-adv-x="1096" d="M367 479q-12 0 -12 -49v-278q0 -98 108 -114q47 -6 47 -22t-10 -16h-446q-10 2 -10 14q0 18 47 24q108 16 108 114v1247q0 42 -46 58q-20 7 -43 11.5t-36.5 8.5t-17 7.5t-3.5 15t15 19.5l255 120q12 6 15 6q17 0 17 -24v-998q8 -29 21 -34t28 -5q29 0 95.5 45.5 t120.5 102t54 78t-19 27t-42.5 8t-42.5 8t-19 26.5t41 21h381q35 0 35 -23q0 -12 -23 -19t-89 -21.5t-105 -45.5l-287 -224q0 -13 19 -32l411 -433q40 -41 82 -53.5t56 -16.5t14 -14q0 -18 -16 -18h-439q-10 0 -10 12q0 18 25 23q75 14 75 51q0 11 -15 29t-28 35l-309 327 q0 1 -1 2h-1zM719 -301q0 -186 -175 -311q-40 -28 -60 -28q-15 0 -15 27q0 16 21.5 30.5t31.5 24.5q101 90 101 164q0 29 -11.5 35t-49.5 6t-79.5 29t-41.5 85t27 80q46 42 88 42q78 0 120.5 -61.5t42.5 -122.5z" />
<glyph unicode="&#x138;" horiz-adv-x="1096" d="M367 479q-12 0 -12 -49v-278q0 -98 108 -114q47 -6 47 -20.5t-10 -17.5h-446q-10 2 -10 14q0 18 47 24q108 16 108 114v578q0 42 -46 58q-20 7 -43 11.5t-36.5 8.5t-17 7.5t-3.5 15t15 19.5l255 120q12 6 15 6q17 0 17 -24v-329q8 -29 21 -34t28 -5q29 0 95.5 45.5 t120.5 102t54 78t-19 27t-42.5 8t-42.5 8t-19 26.5t41 21h381q35 0 35 -23q0 -12 -23 -19t-89 -21.5t-105 -45.5l-287 -224q0 -13 19 -32l411 -433q40 -41 82 -53.5t56 -16.5t14 -14q0 -18 -16 -18h-429q-20 0 -20 18q0 11 15.5 17t34.5 12q50 16 50 39q0 14 -15 30.5 t-28 33.5l-309 327q0 1 -1 2h-1z" />
<glyph unicode="&#x139;" horiz-adv-x="1239" d="M48 0q-8 0 -8 8v24q0 8 8 8h24q86 0 150 36q26 15 43 46.5t17 70.5v1058q0 62 -80 95q-56 24 -119 24h-22q-8 0 -8 8v24q0 8 8 8h677q8 0 8 -8v-24q0 -8 -8 -8h-43q-103 0 -182 -29q-23 -8 -29.5 -26.5t-6.5 -63.5v-1109q2 -17 18 -32t36 -15h395q89 0 175 105 q23 28 57 74.5t42 52.5q32 24 32 -1q0 -6 -3 -12l-151 -296q-9 -18 -21 -18h-1009zM292 1594q-4 4 -4 6t4 6l213 295q36 49 71 49t55.5 -22.5t20.5 -60.5t-55 -85l-269 -217q-5 -3 -8 -3t-6 3z" />
<glyph unicode="&#x13a;" horiz-adv-x="521" d="M439 38q47 -6 47 -24q0 -12 -10 -14h-446q-10 2 -10 14q0 18 47 24q108 16 108 114v1247q0 42 -46 58q-20 7 -43 11.5t-36.5 8.5t-17 7.5t-3.5 15t15 19.5l255 120q12 6 15 6q17 0 17 -24v-1469q0 -98 108 -114zM66 1756q0 4 4 8l282 230q37 30 69 30t50.5 -23t18.5 -46 q0 -66 -80 -100l-316 -140q-1 -1 -6 -1t-7 5z" />
<glyph unicode="&#x13b;" horiz-adv-x="1239" d="M48 0q-8 0 -8 8v24q0 8 8 8h24q86 0 150 36q26 15 43 46.5t17 70.5v1058q0 62 -80 95q-56 24 -119 24h-22q-8 0 -8 8v24q0 8 8 8h677q8 0 8 -8v-24q0 -8 -8 -8h-43q-103 0 -182 -29q-23 -8 -29.5 -26.5t-6.5 -63.5v-1109q2 -17 18 -32t36 -15h395q89 0 175 105 q23 28 57 74.5t42 52.5q32 24 32 -1q0 -6 -3 -12l-151 -296q-9 -18 -21 -18h-1009zM769 -301q0 -186 -175 -311q-40 -28 -60 -28q-15 0 -15 27q0 16 21.5 30.5t31.5 24.5q101 90 101 164q0 29 -11.5 35t-49.5 6t-79.5 29t-41.5 85t27 80q46 42 88 42q78 0 120.5 -61.5 t42.5 -122.5z" />
<glyph unicode="&#x13c;" horiz-adv-x="521" d="M439 38q47 -6 47 -24q0 -12 -10 -14h-446q-10 2 -10 14q0 18 47 24q108 16 108 114v1247q0 42 -46 58q-20 7 -43 11.5t-36.5 8.5t-17 7.5t-3.5 15t15 19.5l255 120q12 6 15 6q17 0 17 -24v-1469q0 -98 108 -114zM399 -301q0 -186 -175 -311q-40 -28 -60 -28q-15 0 -15 27 q0 16 21.5 30.5t31.5 24.5q101 90 101 164q0 29 -11.5 35t-49.5 6t-79.5 29t-41.5 85t27 80q46 42 88 42q78 0 120.5 -61.5t42.5 -122.5z" />
<glyph unicode="&#x13d;" horiz-adv-x="1239" d="M48 0q-8 0 -8 8v24q0 8 8 8h24q86 0 150 36q26 15 43 46.5t17 70.5v1058q0 62 -80 95q-56 24 -119 24h-22q-8 0 -8 8v24q0 8 8 8h677q8 0 8 -8v-24q0 -8 -8 -8h-43q-103 0 -182 -29q-23 -8 -29.5 -26.5t-6.5 -63.5v-1109q2 -17 18 -32t36 -15h395q89 0 175 105 q23 28 57 74.5t42 52.5q32 24 32 -1q0 -6 -3 -12l-151 -296q-9 -18 -21 -18h-1009zM1188 1226q0 -186 -175 -310q-40 -29 -61 -29q-14 0 -14 17.5t6 25t14 13.5t15.5 11t18.5 14q100 91 100 165q0 43 -37 43q-100 0 -133 63q-12 23 -12 64t36.5 74t78.5 33q78 0 120.5 -61.5 t42.5 -122.5z" />
<glyph unicode="&#x13e;" horiz-adv-x="747" d="M439 38q47 -6 47 -24q0 -12 -10 -14h-446q-10 2 -10 14q0 18 47 24q108 16 108 114v1247q0 42 -46 58q-20 7 -43 11.5t-36.5 8.5t-17 7.5t-3.5 15t15 19.5l255 120q12 6 15 6q17 0 17 -24v-1469q0 -98 108 -114zM778 1459q0 -186 -175 -310q-40 -29 -61 -29 q-14 0 -14 17.5t6 25t14 13.5t15.5 11t18.5 14q100 91 100 165q0 43 -37 43q-100 0 -133 63q-12 23 -12 64t36.5 74t78.5 33q78 0 120.5 -61.5t42.5 -122.5z" />
<glyph unicode="&#x13f;" horiz-adv-x="1239" d="M48 0q-8 0 -8 8v24q0 8 8 8h24q86 0 150 36q26 15 43 46.5t17 70.5v1058q0 62 -80 95q-56 24 -119 24h-22q-8 0 -8 8v24q0 8 8 8h677q8 0 8 -8v-24q0 -8 -8 -8h-43q-103 0 -182 -29q-23 -8 -29.5 -26.5t-6.5 -63.5v-1109q2 -17 18 -32t36 -15h395q89 0 175 105 q23 28 57 74.5t42 52.5q32 24 32 -1q0 -6 -3 -12l-151 -296q-9 -18 -21 -18h-1009zM1017 671q0 -89 -71 -119q-21 -9 -57.5 -9t-71 33t-34.5 82.5t34.5 84t83 34.5t82.5 -34t34 -72z" />
<glyph unicode="&#x140;" horiz-adv-x="783" d="M439 38q47 -6 47 -24q0 -12 -10 -14h-446q-10 2 -10 14q0 18 47 24q108 16 108 114v1247q0 42 -46 58q-20 7 -43 11.5t-36.5 8.5t-17 7.5t-3.5 15t15 19.5l255 120q12 6 15 6q17 0 17 -24v-1469q0 -98 108 -114zM777 691q0 -89 -71 -119q-21 -9 -57.5 -9t-71 33 t-34.5 82.5t34.5 84t83 34.5t82.5 -34t34 -72z" />
<glyph unicode="&#x141;" horiz-adv-x="1239" d="M41 32q0 8 8 8h24q86 0 151 36q25 15 42 46.5t17 70.5v402l-163 -114q-5 -5 -16 -5t-19 11l-21 29q-5 8 -5 18t12 18l212 148v551q0 62 -79 95q-57 24 -120 24h-22q-8 0 -8 8v24q0 8 8 8h677q8 0 8 -8v-24q0 -8 -8 -8h-43q-103 0 -182 -29q-23 -8 -29.5 -26.5t-6.5 -63.5 v-414l312 218q5 5 16 5t19 -11l21 -29q2 -4 4.5 -7t2.5 -11.5t-14 -17.5l-361 -253v-589q2 -17 18 -32t36 -15h395q89 0 175 105q23 28 57 74.5t46 55.5t20 9t8 -9.5t-3 -15.5l-151 -296q-9 -18 -21 -18h-1009q-8 0 -8 8v24z" />
<glyph unicode="&#x142;" horiz-adv-x="569" d="M74 555q-8 -6 -18.5 -4.5t-16.5 9.5l-22 30q-4 10 -4 19t11 16l199 139v635q0 42 -46 58q-20 7 -43 11.5t-36.5 8.5t-17 7.5t-3.5 15t15 19.5l255 120q12 6 15 6q17 0 17 -24v-747l178 125q21 13 35 -6l20 -29q6 -8 6 -17.5t-10 -17.5l-229 -161v-616q0 -98 108 -114 q47 -6 47 -21t-10 -17h-446q-10 2 -10 14q0 18 47 24q108 16 108 114v507z" />
<glyph unicode="&#x143;" horiz-adv-x="1747" d="M68 0q-8 0 -8 8v24q0 8 10 8h23q55 0 75 10q74 36 74 198v1039q0 67 -130 80q-29 3 -40.5 3t-11.5 8v24q0 8 8 8h366l949 -1049q5 -5 7 -7.5t6.5 -2.5t4.5 9v689q0 199 -33 260t-133 61h-51q-8 0 -8 8v24q0 8 8 8h520q8 0 8 -8v-24q0 -8 -29.5 -8t-97 -34t-67.5 -84 v-1223q0 -22 -6 -31.5t-28.5 -9.5t-33.5 9t-26 26l-1031 1143q-10 10 -18 10q-5 0 -5 -10v-998q0 -91 144 -120q40 -8 61 -8t21 -8v-24q0 -8 -8 -8h-520zM782 1594q-4 4 -4 6t4 6l213 295q36 49 71 49t55.5 -22.5t20.5 -60.5t-55 -85l-269 -217q-5 -3 -8 -3t-6 3z" />
<glyph unicode="&#x144;" horiz-adv-x="1168" d="M670 315l-2 211q0 129 -22 181t-56 78.5t-91.5 26.5t-243.5 -90q-25 -15 -26 -28v-538q0 -101 108 -116q47 -7 47 -22.5t-10 -17.5h-446q-10 2 -10 14q0 19 47 26q108 15 108 116v574q0 42 -46 58q-20 7 -43 11.5t-36.5 8.5t-17 7.5t-3.5 15t15 19.5l255 120q12 6 15 6 q17 0 17 -24v-156q3 -10 8 -10q6 0 43 18q86 43 173 83t144 40q231 0 231 -421l-9 -292v-58q0 -78 78 -102q33 -11 63.5 -15.5t40 -8.5t9.5 -16t-10 -14h-482q-10 2 -10 14q0 19 47 26q107 15 107 124q8 50 8 151zM442 1096q-4 4 -4 6t4 6l213 295q36 49 71 49t55.5 -22.5 t20.5 -60.5t-55 -85l-269 -217q-5 -3 -8 -3t-6 3z" />
<glyph unicode="&#x145;" horiz-adv-x="1747" d="M68 0q-8 0 -8 8v24q0 8 10 8h23q55 0 75 10q74 36 74 198v1039q0 67 -130 80q-29 3 -40.5 3t-11.5 8v24q0 8 8 8h366l949 -1049q5 -5 7 -7.5t6.5 -2.5t4.5 9v689q0 199 -33 260t-133 61h-51q-8 0 -8 8v24q0 8 8 8h520q8 0 8 -8v-24q0 -8 -29.5 -8t-97 -34t-67.5 -84 v-1223q0 -22 -6 -31.5t-28.5 -9.5t-33.5 9t-26 26l-1031 1143q-10 10 -18 10q-5 0 -5 -10v-998q0 -91 144 -120q40 -8 61 -8t21 -8v-24q0 -8 -8 -8h-520zM1069 -301q0 -186 -175 -311q-40 -28 -60 -28q-15 0 -15 27q0 16 21.5 30.5t31.5 24.5q101 90 101 164q0 29 -11.5 35 t-49.5 6t-79.5 29t-41.5 85t27 80q46 42 88 42q78 0 120.5 -61.5t42.5 -122.5z" />
<glyph unicode="&#x146;" horiz-adv-x="1164" d="M804 315l-2 211q0 129 -22 181t-56 78.5t-91.5 26.5t-243.5 -90q-25 -15 -26 -28v-538q0 -101 108 -116q47 -7 47 -22.5t-10 -17.5h-446q-10 2 -10 14q0 19 47 26q108 15 108 116v574q0 42 -46 58q-20 7 -43 11.5t-36.5 8.5t-17 7.5t-3.5 15t15 19.5l255 120q12 6 15 6 q17 0 17 -24v-156q3 -10 8 -10q6 0 43 18q86 43 173 83t144 40q231 0 231 -421l-9 -292v-58q0 -78 78 -102q33 -11 63.5 -15.5t40 -8.5t9.5 -16t-10 -14h-482q-10 2 -10 14q0 19 47 26q107 15 107 124q8 50 8 151zM744 -301q0 -186 -175 -311q-40 -28 -60 -28q-15 0 -15 27 q0 16 21.5 30.5t31.5 24.5q101 90 101 164q0 29 -11.5 35t-49.5 6t-79.5 29t-41.5 85t27 80q46 42 88 42q78 0 120.5 -61.5t42.5 -122.5z" />
<glyph unicode="&#x147;" horiz-adv-x="1747" d="M68 0q-8 0 -8 8v24q0 8 10 8h23q55 0 75 10q74 36 74 198v1039q0 67 -130 80q-29 3 -40.5 3t-11.5 8v24q0 8 8 8h366l949 -1049q5 -5 7 -7.5t6.5 -2.5t4.5 9v689q0 199 -33 260t-133 61h-51q-8 0 -8 8v24q0 8 8 8h520q8 0 8 -8v-24q0 -8 -29.5 -8t-97 -34t-67.5 -84 v-1223q0 -22 -6 -31.5t-28.5 -9.5t-33.5 9t-26 26l-1031 1143q-10 10 -18 10q-5 0 -5 -10v-998q0 -91 144 -120q40 -8 61 -8t21 -8v-24q0 -8 -8 -8h-520zM1153 1946q4 4 8.5 4t14.5 -13.5t10 -18.5t-7 -15l-248 -321q-17 -22 -26 -22t-25 22l-237 321q-7 10 -7 15t10 18.5 t15.5 13.5t9.5 -4l214 -224q3 -3 10.5 -12t9.5 -9t10 9t11 12z" />
<glyph unicode="&#x148;" horiz-adv-x="1164" d="M804 315l-2 211q0 129 -22 181t-56 78.5t-91.5 26.5t-243.5 -90q-25 -15 -26 -28v-538q0 -101 108 -116q47 -7 47 -22.5t-10 -17.5h-446q-10 2 -10 14q0 19 47 26q108 15 108 116v574q0 42 -46 58q-20 7 -43 11.5t-36.5 8.5t-17 7.5t-3.5 15t15 19.5l255 120q12 6 15 6 q17 0 17 -24v-156q3 -10 8 -10q6 0 43 18q86 43 173 83t144 40q231 0 231 -421l-9 -292v-58q0 -78 78 -102q33 -11 63.5 -15.5t40 -8.5t9.5 -16t-10 -14h-482q-10 2 -10 14q0 19 47 26q107 15 107 124q8 50 8 151zM828 1449q4 4 8.5 4t14.5 -13.5t10 -18.5t-7 -15l-248 -321 q-17 -22 -26 -22t-25 22l-237 321q-7 10 -7 15t10 18.5t15.5 13.5t9.5 -4l214 -224q3 -3 10.5 -12t9.5 -9t10 9t11 12z" />
<glyph unicode="&#x149;" horiz-adv-x="1164" d="M804 315l-2 211q0 129 -22 181t-56 78.5t-91.5 26.5t-243.5 -90q-25 -15 -26 -28v-538q0 -101 108 -116q47 -7 47 -22.5t-10 -17.5h-446q-10 2 -10 14q0 19 47 26q108 15 108 116v574q0 42 -46 58q-20 7 -43 11.5t-36.5 8.5t-17 7.5t-3.5 15t15 19.5l255 120q12 6 15 6 q17 0 17 -24v-156q3 -10 8 -10q6 0 43 18q86 43 173 83t144 40q231 0 231 -421l-9 -292v-58q0 -78 78 -102q33 -11 63.5 -15.5t40 -8.5t9.5 -16t-10 -14h-482q-10 2 -10 14q0 19 47 26q107 15 107 124q8 50 8 151zM204 1226q0 -186 -175 -310q-40 -29 -61 -29 q-14 0 -14 17.5t6 25t14 13.5t15.5 11t18.5 14q100 91 100 165q0 43 -37 43q-100 0 -133 63q-12 23 -12 64t36.5 74t78.5 33q78 0 120.5 -61.5t42.5 -122.5z" />
<glyph unicode="&#x14a;" horiz-adv-x="1747" d="M68 0q-8 0 -8 8v24q0 8 10 8h23q55 0 75 10q74 36 74 198v1039q-11 83 -174 83q-8 0 -8 8v24q0 8 8 8h366l949 -1049q5 -5 7 -7.5t6.5 -2.5t4.5 9v689q0 99 -3.5 157t-19.5 90.5t-49.5 47t-93.5 26.5h-51q-8 0 -8 8v24q0 8 8 8h520q8 0 8 -8v-24q0 -8 -29.5 -8t-97 -34 t-67.5 -84v-1411q0 -178 -36 -266q-16 -41 -46 -75q-88 -118 -232 -134q-48 -6 -101.5 -6t-106.5 40.5t-57 87.5q0 54 53 80q17 8 30 8q23 0 138 -88q41 -31 135 -31q106 25 106 226v408l-1008 1075q-10 10 -18 10q-5 0 -5 -10v-998q0 -91 144 -120q40 -8 61 -8t21 -8v-24 q0 -8 -8 -8h-520z" />
<glyph unicode="&#x14b;" horiz-adv-x="1157" d="M698 -543q106 25 106 226v668l-2 175q0 129 -18.5 180.5t-37.5 75.5q-42 50 -106.5 50t-250.5 -90q-25 -15 -26 -28v-558q0 -101 108 -116q47 -7 47 -22.5t-10 -17.5h-446q-10 2 -10 14q0 19 47 26q108 15 108 116v574q0 42 -46 58q-20 7 -43 11.5t-36.5 8.5t-17 7.5 t-3.5 15t15 19.5l255 120q12 6 15 6q17 0 17 -24v-156q3 -10 8 -10t7.5 1t8.5 3l219 110q52 27 117 27q107 0 161 -77q78 -109 78 -344l-2 -292v-341q0 -160 -66 -291q-23 -45 -55 -82q-88 -118 -231 -134q-49 -6 -102.5 -6t-106.5 40.5t-57 87.5q0 54 54 80q16 8 29 8 q23 0 138 -88q41 -31 135 -31z" />
<glyph unicode="&#x14c;" horiz-adv-x="1770" d="M1092 3q-103 -30 -183 -30q-164 0 -313 53q-204 74 -328 219q-158 185 -158 469q0 205 105 373.5t290.5 266.5t399 98t382.5 -95t271 -261t102 -359.5t-101 -368t-277 -282.5q-87 -53 -190 -83zM393.5 416.5q73.5 -163.5 210.5 -266.5t317 -103q256 0 399 196 q129 177 129 452t-158 474q-77 97 -188.5 155.5t-225 58.5t-186 -25t-131.5 -68.5t-104 -103.5t-75 -130q-61 -144 -61 -310t73.5 -329.5zM586 1864h647v-129h-647v129z" />
<glyph unicode="&#x14d;" horiz-adv-x="1107" d="M214.5 787.5q139.5 141.5 334.5 141.5t339 -137.5t144 -339.5t-136.5 -340.5t-342.5 -138.5t-342 140t-136 336.5t139.5 338zM324 192q98 -165 267 -165q131 0 200.5 105t69.5 258t-97.5 314t-262.5 161q-121 0 -190.5 -104.5t-69.5 -265t83 -303.5zM226 1322h647v-129 h-647v129z" />
<glyph unicode="&#x14e;" horiz-adv-x="1770" d="M1092 3q-103 -30 -183 -30q-164 0 -313 53q-204 74 -328 219q-158 185 -158 469q0 205 105 373.5t290.5 266.5t399 98t382.5 -95t271 -261t102 -359.5t-101 -368t-277 -282.5q-87 -53 -190 -83zM393.5 416.5q73.5 -163.5 210.5 -266.5t317 -103q256 0 399 196 q129 177 129 452t-158 474q-77 97 -188.5 155.5t-225 58.5t-186 -25t-131.5 -68.5t-104 -103.5t-75 -130q-61 -144 -61 -310t73.5 -329.5zM698.5 1732.5q-79.5 94.5 -79.5 217.5h31q0 -83 79 -138t158 -55t159.5 66.5t80.5 126.5h33q0 -115 -82 -213.5t-191 -98.5 t-188.5 94.5z" />
<glyph unicode="&#x14f;" horiz-adv-x="1102" d="M214.5 787.5q139.5 141.5 334.5 141.5t339 -137.5t144 -339.5t-136.5 -340.5t-342.5 -138.5t-342 140t-136 336.5t139.5 338zM324 192q98 -165 267 -165q131 0 200.5 105t69.5 258t-97.5 314t-262.5 161q-121 0 -190.5 -104.5t-69.5 -265t83 -303.5zM348.5 1190.5 q-79.5 94.5 -79.5 217.5h31q0 -83 79 -138t158 -55t159.5 66.5t80.5 126.5h33q0 -115 -82 -213.5t-191 -98.5t-188.5 94.5z" />
<glyph unicode="&#x150;" horiz-adv-x="1770" d="M1092 3q-103 -30 -183 -30q-164 0 -313 53q-204 74 -328 219q-158 185 -158 469q0 205 105 373.5t290.5 266.5t399 98t382.5 -95t271 -261t102 -359.5t-101 -368t-277 -282.5q-87 -53 -190 -83zM393.5 416.5q73.5 -163.5 210.5 -266.5t317 -103q256 0 399 196 q129 177 129 452t-158 474q-77 97 -188.5 155.5t-225 58.5t-186 -25t-131.5 -68.5t-104 -103.5t-75 -130q-61 -144 -61 -310t73.5 -329.5zM757 1594q-4 4 -4 6t4 6l213 295q36 49 71 49t55.5 -22.5t20.5 -60.5t-55 -85l-269 -217q-5 -3 -8 -3t-6 3zM1027 1594q-4 4 -4 6t4 6 l213 295q36 49 71 49t55.5 -22.5t20.5 -60.5t-55 -85l-269 -217q-5 -3 -8 -3t-6 3z" />
<glyph unicode="&#x151;" horiz-adv-x="1107" d="M214.5 787.5q139.5 141.5 334.5 141.5t339 -137.5t144 -339.5t-136.5 -340.5t-342.5 -138.5t-342 140t-136 336.5t139.5 338zM324 192q98 -165 267 -165q131 0 200.5 105t69.5 258t-97.5 314t-262.5 161q-121 0 -190.5 -104.5t-69.5 -265t83 -303.5zM387 1096q-4 4 -4 6 t4 6l213 295q36 49 71 49t55.5 -22.5t20.5 -60.5t-55 -85l-269 -217q-5 -3 -8 -3t-6 3zM657 1096q-4 4 -4 6t4 6l213 295q36 49 71 49t55.5 -22.5t20.5 -60.5t-55 -85l-269 -217q-5 -3 -8 -3t-6 3z" />
<glyph unicode="&#x152;" horiz-adv-x="2111" d="M921 1432l290 -22h667q18 0 26 -7t10 -29l18 -289q0 -10 -15 -10t-21 9q-7 10 -16.5 73t-34.5 105t-88 53h-417q-13 0 -13 -13v-518q0 -10 10 -10h356q124 0 124 156q0 8 8 8h24q8 0 8 -8v-428q0 -8 -8 -8h-24q-8 0 -8 8q0 148 -85 170q-25 7 -52 7h-343q-10 0 -10 -10 v-486q0 -75 69 -85q20 -3 42 -3h333q103 0 160 91q41 65 50 149q3 28 30 28q12 0 12 -13l-33 -336q-6 -14 -14 -14h-858q-58 0 -119 -8t-166.5 -8t-170.5 14q-114 25 -218 94q-140 93 -224 228q-110 176 -110 387.5t104.5 374.5t289.5 256.5t417 93.5zM354.5 980.5 q-34.5 -110.5 -34.5 -211.5q0 -188 73 -348t210 -261t318 -101q102 0 162 13q49 30 49 106v1054q0 58 -42 91q-103 40 -236 40t-232 -51t-166 -136t-101.5 -195.5z" />
<glyph unicode="&#x153;" horiz-adv-x="1650" d="M899 138q-135 -165 -347.5 -165t-344.5 136t-132 327.5t136.5 328t310.5 136.5q236 0 379 -173q122 199 347 199q106 0 172 -41q63 -34 132 -180q28 -59 28 -94t-24 -35h-580q-16 0 -16 -41v-45q0 -306 230 -387q53 -18 100 -18q88 0 157 51q19 8 57 40t43 32h5 q6 0 10.5 -6t9.5 -9q0 -21 -37 -51q-24 -30 -90 -74q-130 -96 -250 -96q-181 0 -296 165zM273 283.5q37 -112.5 114.5 -185t197.5 -72.5t186.5 101.5t66.5 250.5t-94.5 305t-254.5 156q-117 0 -185 -102t-68 -221.5t37 -232zM987 643q0 -19 18 -19h367q26 0 26 31 q0 73 -59.5 138t-136.5 65t-137.5 -59.5t-77.5 -143.5v-12z" />
<glyph unicode="&#x154;" horiz-adv-x="1419" d="M52 0q-8 0 -8 20v12q0 8 8 8q6 0 19 2t27 4t26 4.5t17 3.5q102 23 102 116v1056q0 86 -69 122q-41 22 -88 22h-38q-8 0 -8 8v24q0 8 12 8l549 15h101q177 -12 296.5 -128.5t119.5 -287t-142 -265.5q-44 -29 -95 -52l303 -495q79 -130 212 -183q11 -3 11 -14 q0 -25 -33 -25q-225 0 -358 171q-29 38 -58 85l-259 406l-238 11h-8q-15 0 -15 -14v-461q0 -55 31 -82t107 -37q20 -3 49 -8.5t39.5 -5.5t10.5 -8v-24q0 -8 -8 -8h-615zM493.5 1371.5q-13.5 -0.5 -34.5 -1t-21 -16.5v-606l2 -30q3 -21 19 -22l102 -6q281 0 339 200 q19 63 19 144q0 158 -98.5 249t-251.5 91q-14 0 -26 -0.5l-24 -1t-25.5 -1zM462 1594q-4 4 -4 6t4 6l213 295q36 49 71 49t55.5 -22.5t20.5 -60.5t-55 -85l-269 -217q-5 -3 -8 -3t-6 3z" />
<glyph unicode="&#x155;" horiz-adv-x="747" d="M678 717q-12 2 -35 13q-83 38 -130 38t-98.5 -58.5t-51.5 -105.5v-452q0 -75 87 -100q38 -10 71 -14.5t42.5 -8.5t9.5 -15.5t-10 -13.5h-501q-10 2 -10 14q0 18 47 24q108 16 108 114v529q0 42 -46 58q-20 7 -43 11.5t-36.5 8.5t-17 7.5t-3.5 15t15 19.5l255 120 q12 6 15 6q17 0 17 -24v-162q0 -12 6 -12q8 0 41 47q95 133 157 133q35 0 107.5 -28t72.5 -47q0 -23 -23 -70t-46 -47zM252 1096q-4 4 -4 6t4 6l213 295q36 49 71 49t55.5 -22.5t20.5 -60.5t-55 -85l-269 -217q-5 -3 -8 -3t-6 3z" />
<glyph unicode="&#x156;" horiz-adv-x="1419" d="M52 0q-8 0 -8 20v12q0 8 8 8q6 0 19 2t27 4t26 4.5t17 3.5q102 23 102 116v1056q0 86 -69 122q-41 22 -88 22h-38q-8 0 -8 8v24q0 8 12 8l549 15h101q177 -12 296.5 -128.5t119.5 -287t-142 -265.5q-44 -29 -95 -52l303 -495q79 -130 212 -183q11 -3 11 -14 q0 -25 -33 -25q-225 0 -358 171q-29 38 -58 85l-259 406l-238 11h-8q-15 0 -15 -14v-461q0 -55 31 -82t107 -37q20 -3 49 -8.5t39.5 -5.5t10.5 -8v-24q0 -8 -8 -8h-615zM493.5 1371.5q-13.5 -0.5 -34.5 -1t-21 -16.5v-606l2 -30q3 -21 19 -22l102 -6q281 0 339 200 q19 63 19 144q0 158 -98.5 249t-251.5 91q-14 0 -26 -0.5l-24 -1t-25.5 -1zM889 -301q0 -186 -175 -311q-40 -28 -60 -28q-15 0 -15 27q0 16 21.5 30.5t31.5 24.5q101 90 101 164q0 29 -11.5 35t-49.5 6t-79.5 29t-41.5 85t27 80q46 42 88 42q78 0 120.5 -61.5t42.5 -122.5z " />
<glyph unicode="&#x157;" horiz-adv-x="747" d="M678 717q-12 2 -35 13q-83 38 -130 38t-98.5 -58.5t-51.5 -105.5v-452q0 -75 87 -100q38 -10 71 -14.5t42.5 -8.5t9.5 -15.5t-10 -13.5h-501q-10 2 -10 14q0 18 47 24q108 16 108 114v529q0 42 -46 58q-20 7 -43 11.5t-36.5 8.5t-17 7.5t-3.5 15t15 19.5l255 120 q12 6 15 6q17 0 17 -24v-162q0 -12 6 -12q8 0 41 47q95 133 157 133q35 0 107.5 -28t72.5 -47q0 -23 -23 -70t-46 -47zM499 -301q0 -186 -175 -311q-40 -28 -60 -28q-15 0 -15 27q0 16 21.5 30.5t31.5 24.5q101 90 101 164q0 29 -11.5 35t-49.5 6t-79.5 29t-41.5 85t27 80 q46 42 88 42q78 0 120.5 -61.5t42.5 -122.5z" />
<glyph unicode="&#x158;" horiz-adv-x="1419" d="M52 0q-8 0 -8 20v12q0 8 8 8q6 0 19 2t27 4t26 4.5t17 3.5q102 23 102 116v1056q0 86 -69 122q-41 22 -88 22h-38q-8 0 -8 8v24q0 8 12 8l549 15h101q177 -12 296.5 -128.5t119.5 -287t-142 -265.5q-44 -29 -95 -52l303 -495q79 -130 212 -183q11 -3 11 -14 q0 -25 -33 -25q-225 0 -358 171q-29 38 -58 85l-259 406l-238 11h-8q-15 0 -15 -14v-461q0 -55 31 -82t107 -37q20 -3 49 -8.5t39.5 -5.5t10.5 -8v-24q0 -8 -8 -8h-615zM493.5 1371.5q-13.5 -0.5 -34.5 -1t-21 -16.5v-606l2 -30q3 -21 19 -22l102 -6q281 0 339 200 q19 63 19 144q0 158 -98.5 249t-251.5 91q-14 0 -26 -0.5l-24 -1t-25.5 -1zM913 1946q4 4 8.5 4t14.5 -13.5t10 -18.5t-7 -15l-248 -321q-17 -22 -26 -22t-25 22l-237 321q-7 10 -7 15t10 18.5t15.5 13.5t9.5 -4l214 -224q3 -3 10.5 -12t9.5 -9t10 9t11 12z" />
<glyph unicode="&#x159;" horiz-adv-x="747" d="M678 717q-12 2 -35 13q-83 38 -130 38t-98.5 -58.5t-51.5 -105.5v-452q0 -75 87 -100q38 -10 71 -14.5t42.5 -8.5t9.5 -15.5t-10 -13.5h-501q-10 2 -10 14q0 18 47 24q108 16 108 114v529q0 42 -46 58q-20 7 -43 11.5t-36.5 8.5t-17 7.5t-3.5 15t15 19.5l255 120 q12 6 15 6q17 0 17 -24v-162q0 -12 6 -12q8 0 41 47q95 133 157 133q35 0 107.5 -28t72.5 -47q0 -23 -23 -70t-46 -47zM613 1449q4 4 8.5 4t14.5 -13.5t10 -18.5t-7 -15l-248 -321q-17 -22 -26 -22t-25 22l-237 321q-7 10 -7 15t10 18.5t15.5 13.5t9.5 -4l214 -224 q3 -3 10.5 -12t9.5 -9t10 9t11 12z" />
<glyph unicode="&#x15a;" horiz-adv-x="1026" d="M844 1398q10 0 10 -22l26 -213q4 -20 4 -25.5t-15.5 -5.5t-19.5 4t-8 13.5t-9.5 21.5t-11.5 24q-21 46 -66 91q-110 106 -248 106q-83 0 -157 -54t-74 -127.5t27.5 -127.5t72.5 -100t103 -88t118 -85q159 -111 226 -190q105 -122 114 -274q0 -170 -130.5 -271.5 t-303.5 -101.5q-111 0 -176.5 22.5t-90.5 32.5t-36.5 10t-14.5 -1l-49 -10q-13 0 -16 21q-29 248 -29 263.5t2.5 21t13.5 5.5q28 0 51 -80q105 -225 349 -225q112 0 191.5 68t79.5 177q0 174 -208 324q-59 42 -170 117t-177 150q-103 116 -103 258.5t113.5 233.5t260.5 91 q76 0 167.5 -26t127.5 -35zM362 1594q-4 4 -4 6t4 6l213 295q36 49 71 49t55.5 -22.5t20.5 -60.5t-55 -85l-269 -217q-5 -3 -8 -3t-6 3z" />
<glyph unicode="&#x15b;" horiz-adv-x="685" d="M555 684q0 -22 -16.5 -22t-25.5 24q-24 66 -71.5 117t-117.5 51q-92 0 -124 -92q-10 -31 -10 -64t42 -73.5t138 -96.5t140 -95q100 -89 100 -206t-86 -185.5t-200 -68.5q-61 0 -110.5 16.5t-57 16.5t-24 -16.5t-26.5 -16.5h-17q-6 0 -15 108t-9 128t3.5 22t11.5 2 t13.5 -5t9.5 -12.5t6.5 -15.5t12.5 -30q68 -145 210 -145q63 0 101 46.5t38 103.5t-30 96t-74.5 71t-96.5 62q-202 118 -202 261q0 107 92 184.5t189 77.5t143.5 -21t54.5 -35.5t8 -94.5v-92zM172 1096q-4 4 -4 6t4 6l213 295q36 49 71 49t55.5 -22.5t20.5 -60.5t-55 -85 l-269 -217q-5 -3 -8 -3t-6 3z" />
<glyph unicode="&#x15c;" horiz-adv-x="1026" d="M844 1398q10 0 10 -22l26 -213q4 -20 4 -25.5t-15.5 -5.5t-19.5 4t-8 13.5t-9.5 21.5t-11.5 24q-21 46 -66 91q-110 106 -248 106q-83 0 -157 -54t-74 -127.5t27.5 -127.5t72.5 -100t103 -88t118 -85q159 -111 226 -190q105 -122 114 -274q0 -170 -130.5 -271.5 t-303.5 -101.5q-111 0 -176.5 22.5t-90.5 32.5t-36.5 10t-14.5 -1l-49 -10q-13 0 -16 21q-29 248 -29 263.5t2.5 21t13.5 5.5q28 0 51 -80q105 -225 349 -225q112 0 191.5 68t79.5 177q0 174 -208 324q-59 42 -170 117t-177 150q-103 116 -103 258.5t113.5 233.5t260.5 91 q76 0 167.5 -26t127.5 -35zM526 1788q-3 3 -11 12t-10 9t-9.5 -9t-10.5 -12l-214 -224q-4 -4 -9.5 -4t-15.5 13.5t-10 18.5t7 15l238 323q6 6 12.5 13t11.5 7q9 0 26 -22l248 -321q7 -11 7 -15.5t-10 -18t-14.5 -13.5t-8.5 4z" />
<glyph unicode="&#x15d;" horiz-adv-x="685" d="M555 684q0 -22 -16.5 -22t-25.5 24q-24 66 -71.5 117t-117.5 51q-92 0 -124 -92q-10 -31 -10 -64t42 -73.5t138 -96.5t140 -95q100 -89 100 -206t-86 -185.5t-200 -68.5q-61 0 -110.5 16.5t-57 16.5t-24 -16.5t-26.5 -16.5h-17q-6 0 -15 108t-9 128t3.5 22t11.5 2 t13.5 -5t9.5 -12.5t6.5 -15.5t12.5 -30q68 -145 210 -145q63 0 101 46.5t38 103.5t-30 96t-74.5 71t-96.5 62q-202 118 -202 261q0 107 92 184.5t189 77.5t143.5 -21t54.5 -35.5t8 -94.5v-92zM326 1291q-3 3 -11 12t-10 9t-9.5 -9t-10.5 -12l-214 -224q-4 -4 -9.5 -4 t-15.5 13.5t-10 18.5t7 15l238 323q6 6 12.5 13t11.5 7q9 0 26 -22l248 -321q7 -11 7 -15.5t-10 -18t-14.5 -13.5t-8.5 4z" />
<glyph unicode="&#x15e;" horiz-adv-x="1026" d="M844 1398q10 0 10 -22l26 -213q4 -20 4 -25.5t-15.5 -5.5t-19.5 4t-8 13.5t-9.5 21.5t-11.5 24q-21 46 -66 91q-110 106 -248 106q-83 0 -157 -54t-74 -127.5t27.5 -127.5t72.5 -100t103 -88t118 -85q159 -111 226 -190q105 -122 114 -274q0 -170 -130.5 -271.5 t-303.5 -101.5q-111 0 -176.5 22.5t-90.5 32.5t-36.5 10t-14.5 -1l-49 -10q-13 0 -16 21q-29 248 -29 263.5t2.5 21t13.5 5.5q28 0 51 -80q105 -225 349 -225q112 0 191.5 68t79.5 177q0 174 -208 324q-59 42 -170 117t-177 150q-103 116 -103 258.5t113.5 233.5t260.5 91 q76 0 167.5 -26t127.5 -35zM286 -532q-56 0 -56 43q0 19 14.5 24t38 9t70 13t90 36.5t43.5 77t-50 79t-100 35.5l174 215h101l-132 -154q72 -19 106 -67t34 -84q-16 -194 -333 -227z" />
<glyph unicode="&#x15f;" horiz-adv-x="685" d="M555 684q0 -22 -16.5 -22t-25.5 24q-24 66 -71.5 117t-117.5 51q-92 0 -124 -92q-10 -31 -10 -64t42 -73.5t138 -96.5t140 -95q100 -89 100 -206t-86 -185.5t-200 -68.5q-61 0 -110.5 16.5t-57 16.5t-24 -16.5t-26.5 -16.5h-17q-6 0 -15 108t-9 128t3.5 22t11.5 2 t13.5 -5t9.5 -12.5t6.5 -15.5t12.5 -30q68 -145 210 -145q63 0 101 46.5t38 103.5t-30 96t-74.5 71t-96.5 62q-202 118 -202 261q0 107 92 184.5t189 77.5t143.5 -21t54.5 -35.5t8 -94.5v-92zM117 -532q-56 0 -56 43q0 19 14.5 24t38 9t70 13t90 36.5t43.5 77t-50 79 t-100 35.5l174 215h101l-132 -154q72 -19 106 -67t34 -84q-16 -194 -333 -227z" />
<glyph unicode="&#x160;" horiz-adv-x="1026" d="M844 1398q10 0 10 -22l26 -213q4 -20 4 -25.5t-15.5 -5.5t-19.5 4t-8 13.5t-9.5 21.5t-11.5 24q-21 46 -66 91q-110 106 -248 106q-83 0 -157 -54t-74 -127.5t27.5 -127.5t72.5 -100t103 -88t118 -85q159 -111 226 -190q105 -122 114 -274q0 -170 -130.5 -271.5 t-303.5 -101.5q-111 0 -176.5 22.5t-90.5 32.5t-36.5 10t-14.5 -1l-49 -10q-13 0 -16 21q-29 248 -29 263.5t2.5 21t13.5 5.5q28 0 51 -80q105 -225 349 -225q112 0 191.5 68t79.5 177q0 174 -208 324q-59 42 -170 117t-177 150q-103 116 -103 258.5t113.5 233.5t260.5 91 q76 0 167.5 -26t127.5 -35zM743 1946q4 4 8.5 4t14.5 -13.5t10 -18.5t-7 -15l-248 -321q-17 -22 -26 -22t-25 22l-237 321q-7 10 -7 15t10 18.5t15.5 13.5t9.5 -4l214 -224q3 -3 10.5 -12t9.5 -9t10 9t11 12z" />
<glyph unicode="&#x161;" horiz-adv-x="685" d="M555 684q0 -22 -16.5 -22t-25.5 24q-24 66 -71.5 117t-117.5 51q-92 0 -124 -92q-10 -31 -10 -64t42 -73.5t138 -96.5t140 -95q100 -89 100 -206t-86 -185.5t-200 -68.5q-61 0 -110.5 16.5t-57 16.5t-24 -16.5t-26.5 -16.5h-17q-6 0 -15 108t-9 128t3.5 22t11.5 2 t13.5 -5t9.5 -12.5t6.5 -15.5t12.5 -30q68 -145 210 -145q63 0 101 46.5t38 103.5t-30 96t-74.5 71t-96.5 62q-202 118 -202 261q0 107 92 184.5t189 77.5t143.5 -21t54.5 -35.5t8 -94.5v-92zM593 1449q4 4 8.5 4t14.5 -13.5t10 -18.5t-7 -15l-248 -321q-17 -22 -26 -22 t-25 22l-237 321q-7 10 -7 15t10 18.5t15.5 13.5t9.5 -4l214 -224q3 -3 10.5 -12t9.5 -9t10 9t11 12z" />
<glyph unicode="&#x162;" horiz-adv-x="1502" d="M399 32q0 8 9 8h28q98 0 157.5 42t59.5 98v1107q0 21 -8.5 23.5t-20.5 4.5h-384q-93 -20 -122 -143q-16 -66 -19 -84.5t-11 -18.5h-18q-6 0 -6 4v33l37 312q6 31 20 31t30 -19.5t61 -19.5h1078q43 0 52 10t17 19.5t20.5 9.5t16 -10t5.5 -21l37 -312v-33q0 -4 -6 -4h-18 q-8 0 -11 15q-16 100 -46 158.5t-95 72.5h-385q-12 -2 -20.5 -4.5t-8.5 -23.5v-1107q0 -56 59.5 -98t157.5 -42h29q8 0 8 -8v-24q0 -8 -8 -8h-687q-8 0 -8 8v24zM889 -301q0 -186 -175 -311q-40 -28 -60 -28q-15 0 -15 27q0 16 21.5 30.5t31.5 24.5q101 90 101 164 q0 29 -11.5 35t-49.5 6t-79.5 29t-41.5 85t27 80q46 42 88 42q78 0 120.5 -61.5t42.5 -122.5z" />
<glyph unicode="&#x163;" horiz-adv-x="637" d="M313 769q-6 0 -6 -9v-552q0 -60 26.5 -94t67.5 -34t71.5 13.5t53 29.5t40.5 29.5t32 13.5t14 -7q0 -24 -5 -31q-120 -155 -231.5 -155t-168 70.5t-56.5 168.5v557h-75q-28 0 -29.5 18t5.5 23q53 34 146 122q10 11 27 33t49.5 60t49.5 38t17 -14q0 -2 -34 -131 q0 -18 16 -19h255q44 0 44 -124q0 -6 -8 -6h-301zM479 -301q0 -186 -175 -311q-40 -28 -60 -28q-15 0 -15 27q0 16 21.5 30.5t31.5 24.5q101 90 101 164q0 29 -11.5 35t-49.5 6t-79.5 29t-41.5 85t27 80q46 42 88 42q78 0 120.5 -61.5t42.5 -122.5z" />
<glyph unicode="&#x164;" horiz-adv-x="1502" d="M399 32q0 8 9 8h28q98 0 157.5 42t59.5 98v1107q0 21 -8.5 23.5t-20.5 4.5h-384q-93 -20 -122 -143q-16 -66 -19 -84.5t-11 -18.5h-18q-6 0 -6 4v33l37 312q6 31 20 31t30 -19.5t61 -19.5h1078q43 0 52 10t17 19.5t20.5 9.5t16 -10t5.5 -21l37 -312v-33q0 -4 -6 -4h-18 q-8 0 -11 15q-16 100 -46 158.5t-95 72.5h-385q-12 -2 -20.5 -4.5t-8.5 -23.5v-1107q0 -56 59.5 -98t157.5 -42h29q8 0 8 -8v-24q0 -8 -8 -8h-687q-8 0 -8 8v24zM993 1946q4 4 8.5 4t14.5 -13.5t10 -18.5t-7 -15l-248 -321q-17 -22 -26 -22t-25 22l-237 321q-7 10 -7 15 t10 18.5t15.5 13.5t9.5 -4l214 -224q3 -3 10.5 -12t9.5 -9t10 9t11 12z" />
<glyph unicode="&#x165;" horiz-adv-x="637" d="M313 769q-6 0 -6 -9v-552q0 -60 26.5 -94t67.5 -34t71.5 13.5t53 29.5t40.5 29.5t32 13.5t14 -7q0 -24 -5 -31q-120 -155 -231.5 -155t-168 70.5t-56.5 168.5v557h-75q-28 0 -29.5 18t5.5 23q53 34 146 122q10 11 27 33t49.5 60t49.5 38t17 -14q0 -2 -34 -131 q0 -18 16 -19h255q44 0 44 -124q0 -6 -8 -6h-301zM698 1316q0 -186 -175 -310q-40 -29 -61 -29q-14 0 -14 17.5t6 25t14 13.5t15.5 11t18.5 14q100 91 100 165q0 43 -37 43q-100 0 -133 63q-12 23 -12 64t36.5 74t78.5 33q78 0 120.5 -61.5t42.5 -122.5z" />
<glyph unicode="&#x166;" horiz-adv-x="1502" d="M399 32q0 8 9 8h28q98 0 157.5 42t59.5 98v484h-327q-25 0 -25 25v36q0 25 25 25h327v537q0 21 -8.5 23.5t-20.5 4.5h-384q-93 -20 -122 -143q-16 -66 -19 -84.5t-11 -18.5h-18q-6 0 -6 4v33l37 312q6 31 20 31t30 -19.5t61 -19.5h1078q43 0 52 10t17 19.5t20.5 9.5 t16 -10t5.5 -21l37 -312v-33q0 -4 -6 -4h-18q-8 0 -11 15q-16 100 -46 158.5t-95 72.5h-385q-12 -2 -20.5 -4.5t-8.5 -23.5v-537h327q25 0 25 -25v-36q0 -25 -25 -25h-327v-484q0 -56 59.5 -98t157.5 -42h29q8 0 8 -8v-24q0 -8 -8 -8h-687q-8 0 -8 8v24z" />
<glyph unicode="&#x167;" horiz-adv-x="691" d="M355 769q-6 0 -6 -9v-260h298q25 0 25 -25v-36q0 -25 -25 -25h-298v-206q0 -60 26.5 -94t67.5 -34t71.5 13.5t53 29.5t40.5 29.5t32 13.5t14 -7q0 -24 -5 -31q-120 -155 -231.5 -155t-168 70.5t-56.5 168.5v202h-121q-25 0 -25 25v36q0 25 25 25h121v269h-75 q-28 0 -29.5 18t5.5 23q53 34 146 122q10 11 27 33t49.5 60t49.5 38t17 -14q0 -2 -34 -131q0 -18 16 -19h255q44 0 44 -124q0 -6 -8 -6h-301z" />
<glyph unicode="&#x168;" horiz-adv-x="1672" d="M574 1370q-168 0 -168 -134v-716q0 -198 131 -323.5t336 -125.5q213 0 349.5 114.5t136.5 317.5v636q0 95 -17 132q-43 99 -194 99q-8 0 -8 8v24q0 8 8 8h492q8 0 8 -8v-24q0 -8 -22 -8q-131 0 -160 -102q-5 -17 -5 -32v-655q0 -439 -336 -565q-113 -43 -225 -43 q-401 0 -591 210q-98 108 -98 267v800q0 85 -103 112q-30 8 -51 8t-21 8v24q0 8 7 8h542q8 0 8 -8v-24q0 -8 -19 -8zM1058 1812q63 0 80 69q5 18 5 32.5t16 14.5h19q14 0 14 -56.5t-45 -116.5t-109.5 -60t-131.5 35q-128 69 -168.5 69t-69.5 -34.5t-29 -80.5q0 -12 -16 -12 h-21q-8 0 -8 31q0 81 43 147.5t105.5 66.5t169 -52.5t146.5 -52.5z" />
<glyph unicode="&#x169;" horiz-adv-x="1124" d="M754 88q-5 17 -13 11.5t-65 -34.5q-187 -93 -312 -93t-180 80q-20 30 -20 74v610q-3 29 -26 50q-31 26 -64.5 28t-33.5 20.5t16 22.5l229 66q12 4 23.5 4t11.5 -17v-671q0 -70 62 -108t158.5 -38t173.5 59q24 19 40 42v542q-3 29 -26 50q-31 26 -64.5 28t-33.5 20.5 t16 22.5l229 66q12 4 23.5 4t11.5 -20v-710q5 -44 25 -63t65 -19l58 4q6 0 6 -11.5t-15 -18.5l-266 -110q-12 -6 -20.5 -6t-8.5 25v90zM708 1252q63 0 80 69q5 18 5 32.5t16 14.5h19q14 0 14 -56.5t-45 -116.5t-109.5 -60t-131.5 35q-128 69 -168.5 69t-69.5 -34.5 t-29 -80.5q0 -12 -16 -12h-21q-8 0 -8 31q0 81 43 147.5t105.5 66.5t169 -52.5t146.5 -52.5z" />
<glyph unicode="&#x16a;" horiz-adv-x="1672" d="M574 1370q-168 0 -168 -134v-716q0 -198 131 -323.5t336 -125.5q213 0 349.5 114.5t136.5 317.5v636q0 95 -17 132q-43 99 -194 99q-8 0 -8 8v24q0 8 8 8h492q8 0 8 -8v-24q0 -8 -22 -8q-131 0 -160 -102q-5 -17 -5 -32v-655q0 -439 -336 -565q-113 -43 -225 -43 q-401 0 -591 210q-98 108 -98 267v800q0 85 -103 112q-30 8 -51 8t-21 8v24q0 8 7 8h542q8 0 8 -8v-24q0 -8 -19 -8zM546 1864h647v-129h-647v129z" />
<glyph unicode="&#x16b;" horiz-adv-x="1124" d="M754 88q-5 17 -13 11.5t-65 -34.5q-187 -93 -312 -93t-180 80q-20 30 -20 74v610q-3 29 -26 50q-31 26 -64.5 28t-33.5 20.5t16 22.5l229 66q12 4 23.5 4t11.5 -17v-671q0 -70 62 -108t158.5 -38t173.5 59q24 19 40 42v542q-3 29 -26 50q-31 26 -64.5 28t-33.5 20.5 t16 22.5l229 66q12 4 23.5 4t11.5 -20v-710q5 -44 25 -63t65 -19l58 4q6 0 6 -11.5t-15 -18.5l-266 -110q-12 -6 -20.5 -6t-8.5 25v90zM226 1322h647v-129h-647v129z" />
<glyph unicode="&#x16c;" horiz-adv-x="1672" d="M574 1370q-168 0 -168 -134v-716q0 -198 131 -323.5t336 -125.5q213 0 349.5 114.5t136.5 317.5v636q0 95 -17 132q-43 99 -194 99q-8 0 -8 8v24q0 8 8 8h492q8 0 8 -8v-24q0 -8 -22 -8q-131 0 -160 -102q-5 -17 -5 -32v-655q0 -439 -336 -565q-113 -43 -225 -43 q-401 0 -591 210q-98 108 -98 267v800q0 85 -103 112q-30 8 -51 8t-21 8v24q0 8 7 8h542q8 0 8 -8v-24q0 -8 -19 -8zM678.5 1732.5q-79.5 94.5 -79.5 217.5h31q0 -83 79 -138t158 -55t159.5 66.5t80.5 126.5h33q0 -115 -82 -213.5t-191 -98.5t-188.5 94.5z" />
<glyph unicode="&#x16d;" horiz-adv-x="1122" d="M754 88q-5 17 -13 11.5t-65 -34.5q-187 -93 -312 -93t-180 80q-20 30 -20 74v610q-3 29 -26 50q-31 26 -64.5 28t-33.5 20.5t16 22.5l229 66q12 4 23.5 4t11.5 -17v-671q0 -70 62 -108t158.5 -38t173.5 59q24 19 40 42v542q-3 29 -26 50q-31 26 -64.5 28t-33.5 20.5 t16 22.5l229 66q12 4 23.5 4t11.5 -20v-710q5 -44 25 -63t65 -19l58 4q6 0 6 -11.5t-15 -18.5l-266 -110q-12 -6 -20.5 -6t-8.5 25v90zM348.5 1190.5q-79.5 94.5 -79.5 217.5h31q0 -83 79 -138t158 -55t159.5 66.5t80.5 126.5h33q0 -115 -82 -213.5t-191 -98.5t-188.5 94.5z " />
<glyph unicode="&#x16e;" horiz-adv-x="1672" d="M574 1370q-168 0 -168 -134v-716q0 -198 131 -323.5t336 -125.5q213 0 349.5 114.5t136.5 317.5v636q0 95 -17 132q-43 99 -194 99q-8 0 -8 8v24q0 8 8 8h492q8 0 8 -8v-24q0 -8 -22 -8q-131 0 -160 -102q-5 -17 -5 -32v-655q0 -439 -336 -565q-113 -43 -225 -43 q-401 0 -591 210q-98 108 -98 267v800q0 85 -103 112q-30 8 -51 8t-21 8v24q0 8 7 8h542q8 0 8 -8v-24q0 -8 -19 -8zM749.5 1929q53.5 55 130.5 55t130.5 -55t53.5 -130t-54 -129t-130 -54t-130 54t-54 129t53.5 130zM891 1914q-85 0 -116 -71q-9 -20 -9 -55.5t33 -68.5 t79.5 -33t81 32.5t34.5 80t-34 81.5t-69 34z" />
<glyph unicode="&#x16f;" horiz-adv-x="1124" d="M754 88q-5 17 -13 11.5t-65 -34.5q-187 -93 -312 -93t-180 80q-20 30 -20 74v610q-3 29 -26 50q-31 26 -64.5 28t-33.5 20.5t16 22.5l229 66q12 4 23.5 4t11.5 -17v-671q0 -70 62 -108t158.5 -38t173.5 59q24 19 40 42v542q-3 29 -26 50q-31 26 -64.5 28t-33.5 20.5 t16 22.5l229 66q12 4 23.5 4t11.5 -20v-710q5 -44 25 -63t65 -19l58 4q6 0 6 -11.5t-15 -18.5l-266 -110q-12 -6 -20.5 -6t-8.5 25v90zM409.5 1392q53.5 55 130.5 55t130.5 -55t53.5 -130t-54 -129t-130 -54t-130 54t-54 129t53.5 130zM551 1377q-85 0 -116 -71 q-9 -20 -9 -55.5t33 -68.5t79.5 -33t81 32.5t34.5 80t-34 81.5t-69 34z" />
<glyph unicode="&#x170;" horiz-adv-x="1672" d="M574 1370q-168 0 -168 -134v-716q0 -198 131 -323.5t336 -125.5q213 0 349.5 114.5t136.5 317.5v636q0 95 -17 132q-43 99 -194 99q-8 0 -8 8v24q0 8 8 8h492q8 0 8 -8v-24q0 -8 -22 -8q-131 0 -160 -102q-5 -17 -5 -32v-655q0 -439 -336 -565q-113 -43 -225 -43 q-401 0 -591 210q-98 108 -98 267v800q0 85 -103 112q-30 8 -51 8t-21 8v24q0 8 7 8h542q8 0 8 -8v-24q0 -8 -19 -8zM637 1594q-4 4 -4 6t4 6l213 295q36 49 71 49t55.5 -22.5t20.5 -60.5t-55 -85l-269 -217q-5 -3 -8 -3t-6 3zM907 1594q-4 4 -4 6t4 6l213 295q36 49 71 49 t55.5 -22.5t20.5 -60.5t-55 -85l-269 -217q-5 -3 -8 -3t-6 3z" />
<glyph unicode="&#x171;" horiz-adv-x="1124" d="M754 88q-5 17 -13 11.5t-65 -34.5q-187 -93 -312 -93t-180 80q-20 30 -20 74v610q-3 29 -26 50q-31 26 -64.5 28t-33.5 20.5t16 22.5l229 66q12 4 23.5 4t11.5 -17v-671q0 -70 62 -108t158.5 -38t173.5 59q24 19 40 42v542q-3 29 -26 50q-31 26 -64.5 28t-33.5 20.5 t16 22.5l229 66q12 4 23.5 4t11.5 -20v-710q5 -44 25 -63t65 -19l58 4q6 0 6 -11.5t-15 -18.5l-266 -110q-12 -6 -20.5 -6t-8.5 25v90zM297 1096q-4 4 -4 6t4 6l213 295q36 49 71 49t55.5 -22.5t20.5 -60.5t-55 -85l-269 -217q-5 -3 -8 -3t-6 3zM567 1096q-4 4 -4 6t4 6 l213 295q36 49 71 49t55.5 -22.5t20.5 -60.5t-55 -85l-269 -217q-5 -3 -8 -3t-6 3z" />
<glyph unicode="&#x172;" horiz-adv-x="1672" d="M574 1370q-168 0 -168 -134v-716q0 -198 131 -323.5t336 -125.5q213 0 349.5 114.5t136.5 317.5v636q0 95 -17 132q-43 99 -194 99q-8 0 -8 8v24q0 8 8 8h492q8 0 8 -8v-24q0 -8 -22 -8q-131 0 -160 -102q-5 -17 -5 -32v-655q0 -439 -336 -565q-113 -43 -225 -43 q-401 0 -591 210q-98 108 -98 267v800q0 85 -103 112q-30 8 -51 8t-21 8v24q0 8 7 8h542q8 0 8 -8v-24q0 -8 -19 -8zM1147 -449q32 0 32 -24q0 -59 -148 -59t-207 95q-23 37 -23 90q0 95 62.5 191.5t145.5 155.5h82q-2 -1 -44 -48q-111 -124 -111 -258q0 -67 42 -107 t109 -40z" />
<glyph unicode="&#x173;" horiz-adv-x="1124" d="M754 88q-5 17 -13 11.5t-65 -34.5q-187 -93 -312 -93t-180 80q-20 30 -20 74v610q-3 29 -26 50q-31 26 -64.5 28t-33.5 20.5t16 22.5l229 66q12 4 23.5 4t11.5 -17v-671q0 -70 62 -108t158.5 -38t173.5 59q24 19 40 42v542q-3 29 -26 50q-31 26 -64.5 28t-33.5 20.5 t16 22.5l229 66q12 4 23.5 4t11.5 -20v-710q5 -44 25 -63t65 -19l58 4q6 0 6 -11.5t-15 -18.5l-266 -110q-12 -6 -20.5 -6t-8.5 25v90zM896 -449q32 0 32 -24q0 -59 -148 -59t-207 95q-23 37 -23 90q0 95 62.5 191.5t145.5 155.5h82q-2 -1 -44 -48q-111 -124 -111 -258 q0 -67 42 -107t109 -40z" />
<glyph unicode="&#x174;" horiz-adv-x="2274" d="M552 1370q-120 0 -120 -92q0 -17 6.5 -36t11.5 -40l383 -922q5 -10 16 -10t18 11l221 520l-195 471q-18 45 -150 86q-39 12 -50.5 12t-11.5 8v24q0 8 8 8h916q8 0 8 -8v-24q0 -8 -8 -8h-37q-96 0 -146 -94q-17 -32 -35 -75l-130 -305l256 -616q5 -10 16 -10t18 11 l423 995q12 28 12 50q0 44 -115 44h-62q-8 0 -8 8v24q0 8 8 8h445q8 0 8 -8v-24q0 -8 -8 -8h-47q-44 0 -66.5 -30.5t-63.5 -124.5l-514 -1207q-11 -24 -23 -29.5t-35 -5.5h-47q-24 0 -32 22l-270 654l-273 -641q-11 -24 -23 -29.5t-35 -5.5h-47q-24 0 -31 23l-530 1276 q-16 39 -99 68.5t-102.5 29.5t-19.5 8v24q0 8 8 8h570q8 0 8 -8v-24q0 -8 -8 -8h-18zM1302 1323q0 42 -86 46q-87 -5 -100 -61q-4 -14 -4 -30.5t6.5 -35.5t11.5 -40l63 -153l97 227q12 28 12 47zM1196 1788q-3 3 -11 12t-10 9t-9.5 -9t-10.5 -12l-214 -224q-4 -4 -9.5 -4 t-15.5 13.5t-10 18.5t7 15l238 323q6 6 12.5 13t11.5 7q9 0 26 -22l248 -321q7 -11 7 -15.5t-10 -18t-14.5 -13.5t-8.5 4z" />
<glyph unicode="&#x175;" horiz-adv-x="1642" d="M1601 900q11 -3 11 -14t-3 -16t-44 -11t-58.5 -23.5t-31 -39.5t-23.5 -45.5t-19 -42.5l-273 -706q-12 -29 -22 -29h-79q-10 0 -22 31l-222 601l-233 -603q-12 -29 -22 -29h-79q-10 0 -22 31l-265 717q-37 101 -127 130q-7 2 -17 3q-42 4 -42 25t24 21h445q8 0 8 -15.5 t-11 -20.5q-18 -7 -62 -6q-73 2 -73 -60l2 -24l203 -555q20 -51 40 3q2 5 83.5 210t104.5 289q-37 101 -127 130q-7 2 -17 3q-42 4 -42 25t24 21h445q8 0 8 -15.5t-11 -20.5q-18 -7 -62 -6q-73 2 -73 -60l2 -24l203 -555q20 -51 40 3l26 65q123 308 145.5 380.5t22.5 99.5 t-29 56.5t-78 29.5t-49 30q0 17 22 17h379zM836 1291q-3 3 -11 12t-10 9t-9.5 -9t-10.5 -12l-214 -224q-4 -4 -9.5 -4t-15.5 13.5t-10 18.5t7 15l238 323q6 6 12.5 13t11.5 7q9 0 26 -22l248 -321q7 -11 7 -15.5t-10 -18t-14.5 -13.5t-8.5 4z" />
<glyph unicode="&#x176;" horiz-adv-x="1527" d="M526 0q-34 0 -34 20v10q0 16 29.5 19.5t38.5 4.5q76 8 107 37.5t31 88.5v331q0 7 -3 15l-409 652q-96 153 -190 176q-5 1 -18 4t-58 10q-16 3 -16 22.5t15 19.5h572q17 0 17 -20t-17 -20q-67 -7 -89 -14q-50 -18 -50 -64q0 -24 12 -43l338 -540q11 -16 13.5 -20.5 t11 -4.5t26.5 29l270 459q12 24 27.5 51.5t15.5 56.5q0 73 -100 86q-36 5 -39 11t-3 15q0 18 17 18h467q14 0 14 -14t-4.5 -19t-12 -7.5t-16.5 -4t-39 -8.5q-70 -17 -152 -111q-9 -11 -10 -13l-395 -680v-373q0 -54 30.5 -85t103 -40.5t72.5 -23.5v-11q0 -20 -34 -20h-539z M826 1788q-3 3 -11 12t-10 9t-9.5 -9t-10.5 -12l-214 -224q-4 -4 -9.5 -4t-15.5 13.5t-10 18.5t7 15l238 323q6 6 12.5 13t11.5 7q9 0 26 -22l248 -321q7 -11 7 -15.5t-10 -18t-14.5 -13.5t-8.5 4z" />
<glyph unicode="&#x177;" horiz-adv-x="1097" d="M1046 900q11 -3 11 -14t-2 -14.5t-9.5 -6t-21 -4.5t-42.5 -7.5t-52 -40.5t-49 -97l-470 -1165l-65 -138q-25 -53 -105 -53q-35 0 -56 23t-21 54.5t15.5 46t36.5 23.5t43.5 16.5t50.5 34t33 39.5q168 376 168 393t-20 42l-330 689q-37 101 -127 130q-7 2 -17 3 q-42 4 -42 25t24 21h445q8 0 8 -15.5t-14 -21t-62 -5.5q-77 0 -77 -60l9 -24l259 -555q20 -51 40 3q2 5 25 65q136 345 152.5 399t16.5 81t-28.5 57t-78 30t-49.5 29q0 17 22 17h379zM546 1291q-3 3 -11 12t-10 9t-9.5 -9t-10.5 -12l-214 -224q-4 -4 -9.5 -4t-15.5 13.5 t-10 18.5t7 15l238 323q6 6 12.5 13t11.5 7q9 0 26 -22l248 -321q7 -11 7 -15.5t-10 -18t-14.5 -13.5t-8.5 4z" />
<glyph unicode="&#x178;" horiz-adv-x="1527" d="M526 0q-34 0 -34 20v10q0 16 29.5 19.5t38.5 4.5q76 8 107 37.5t31 88.5v331q0 7 -3 15l-409 652q-96 153 -190 176q-5 1 -18 4t-58 10q-16 3 -16 22.5t15 19.5h572q17 0 17 -20t-17 -20q-67 -7 -89 -14q-50 -18 -50 -64q0 -24 12 -43l338 -540q11 -16 13.5 -20.5 t11 -4.5t26.5 29l270 459q12 24 27.5 51.5t15.5 56.5q0 73 -100 86q-36 5 -39 11t-3 15q0 18 17 18h467q14 0 14 -14t-4.5 -19t-12 -7.5t-16.5 -4t-39 -8.5q-70 -17 -152 -111q-9 -11 -10 -13l-395 -680v-373q0 -54 30.5 -85t103 -40.5t72.5 -23.5v-11q0 -20 -34 -20h-539z M1126 1811q0 -89 -70 -119q-22 -9 -58.5 -9t-71 33t-34.5 82.5t34.5 84t83 34.5t82.5 -34t34 -72zM610 1683q-50 0 -83.5 33.5t-33.5 82t33.5 83.5t83.5 35t83.5 -35t33.5 -83.5t-33.5 -82t-83.5 -33.5z" />
<glyph unicode="&#x179;" horiz-adv-x="1460" d="M95 0q-18 0 -18 34t16 52l935 1209q4 5 4 12.5t-20 7.5h-607q-83 0 -135 -57q-18 -19 -26.5 -43.5t-20 -83.5t-15.5 -63.5t-18.5 -4.5t-18.5 6l15 307q0 34 23 34h1086q16 0 16 -32t-13 -51l-899 -1163q-3 -5 -11.5 -17t-8.5 -20q0 -27 46 -27h705q48 0 97 40.5 t70.5 108.5t29.5 164q3 15 20 15t17 -12v-47l-21 -310q-1 -11 -1 -21q0 -38 -28 -38h-1219zM652 1594q-4 4 -4 6t4 6l213 295q36 49 71 49t55.5 -22.5t20.5 -60.5t-55 -85l-269 -217q-5 -3 -8 -3t-6 3z" />
<glyph unicode="&#x17a;" horiz-adv-x="915" d="M310.5 116q-3.5 -5 -3.5 -12.5t6 -7.5h385q63 0 110 79q33 55 44.5 67t25 12t13.5 -12l-74 -196q-2 -4 -7.5 -25t-20.5 -21h-705q-22 0 -22 20q0 14 6 25l503 690q10 14 17.5 24t9 22t-132.5 12h-205q-81 0 -115 -101q-9 -27 -20.5 -64.5t-28.5 -37.5q-10 0 -10 4l57 334 q3 12 16.5 12t25.5 -20.5t29 -22.5q75 -10 205 -10t421 6q10 -3 10 -24.5t-16 -34.5l-516 -707q-4 -6 -7.5 -11zM382 1096q-4 4 -4 6t4 6l213 295q36 49 71 49t55.5 -22.5t20.5 -60.5t-55 -85l-269 -217q-5 -3 -8 -3t-6 3z" />
<glyph unicode="&#x17b;" horiz-adv-x="1460" d="M95 0q-18 0 -18 34t16 52l935 1209q4 5 4 12.5t-20 7.5h-607q-83 0 -135 -57q-18 -19 -26.5 -43.5t-20 -83.5t-15.5 -63.5t-18.5 -4.5t-18.5 6l15 307q0 34 23 34h1086q16 0 16 -32t-13 -51l-899 -1163q-3 -5 -11.5 -17t-8.5 -20q0 -27 46 -27h705q48 0 97 40.5 t70.5 108.5t29.5 164q3 15 20 15t17 -12v-47l-21 -310q-1 -11 -1 -21q0 -38 -28 -38h-1219zM907 1811q0 -89 -71 -119q-21 -9 -57.5 -9t-71 33t-34.5 82.5t34.5 84t83 34.5t82.5 -34t34 -72z" />
<glyph unicode="&#x17c;" horiz-adv-x="915" d="M310.5 116q-3.5 -5 -3.5 -12.5t6 -7.5h385q63 0 110 79q33 55 44.5 67t25 12t13.5 -12l-74 -196q-2 -4 -7.5 -25t-20.5 -21h-705q-22 0 -22 20q0 14 6 25l503 690q10 14 17.5 24t9 22t-132.5 12h-205q-81 0 -115 -101q-9 -27 -20.5 -64.5t-28.5 -37.5q-10 0 -10 4l57 334 q3 12 16.5 12t25.5 -20.5t29 -22.5q75 -10 205 -10t421 6q10 -3 10 -24.5t-16 -34.5l-516 -707q-4 -6 -7.5 -11zM597 1240q0 -89 -71 -119q-21 -9 -57.5 -9t-71 33t-34.5 82.5t34.5 84t83 34.5t82.5 -34t34 -72z" />
<glyph unicode="&#x17d;" horiz-adv-x="1460" d="M95 0q-18 0 -18 34t16 52l935 1209q4 5 4 12.5t-20 7.5h-607q-83 0 -135 -57q-18 -19 -26.5 -43.5t-20 -83.5t-15.5 -63.5t-18.5 -4.5t-18.5 6l15 307q0 34 23 34h1086q16 0 16 -32t-13 -51l-899 -1163q-3 -5 -11.5 -17t-8.5 -20q0 -27 46 -27h705q48 0 97 40.5 t70.5 108.5t29.5 164q3 15 20 15t17 -12v-47l-21 -310q-1 -11 -1 -21q0 -38 -28 -38h-1219zM973 1946q4 4 8.5 4t14.5 -13.5t10 -18.5t-7 -15l-248 -321q-17 -22 -26 -22t-25 22l-237 321q-7 10 -7 15t10 18.5t15.5 13.5t9.5 -4l214 -224q3 -3 10.5 -12t9.5 -9t10 9t11 12z " />
<glyph unicode="&#x17e;" horiz-adv-x="915" d="M310.5 116q-3.5 -5 -3.5 -12.5t6 -7.5h385q63 0 110 79q33 55 44.5 67t25 12t13.5 -12l-74 -196q-2 -4 -7.5 -25t-20.5 -21h-705q-22 0 -22 20q0 14 6 25l503 690q10 14 17.5 24t9 22t-132.5 12h-205q-81 0 -115 -101q-9 -27 -20.5 -64.5t-28.5 -37.5q-10 0 -10 4l57 334 q3 12 16.5 12t25.5 -20.5t29 -22.5q75 -10 205 -10t421 6q10 -3 10 -24.5t-16 -34.5l-516 -707q-4 -6 -7.5 -11zM733 1449q4 4 8.5 4t14.5 -13.5t10 -18.5t-7 -15l-248 -321q-17 -22 -26 -22t-25 22l-237 321q-7 10 -7 15t10 18.5t15.5 13.5t9.5 -4l214 -224q3 -3 10.5 -12 t9.5 -9t10 9t11 12z" />
<glyph unicode="&#x17f;" horiz-adv-x="659" d="M652 16q0 -16 -18 -16h-549q-10 2 -10 14q0 18 47 24q108 16 108 114v606q0 11 -12 11h-109q-12 0 -23 7.5t-11 20t11 19.5q18 10 81 27t63 56v33q0 360 156 554q87 109 265 168q54 18 107 18t124 -27.5t71 -66.5q0 -8 -2.5 -14t-5.5 -15l-41 -88q-8 -16 -19 -16 q-3 0 -43 31.5t-84.5 58t-104.5 26.5q-117 0 -177 -60t-75 -135.5t-15 -166.5v-1027q0 -143 248 -143q18 -2 18 -13z" />
<glyph unicode="&#x180;" horiz-adv-x="1099" d="M315 837q0 -31 14.5 -31t127.5 65q132 56 201 56t132 -40t108 -105q92 -134 92 -325t-132.5 -337.5t-349.5 -146.5q-141 0 -260 34q-35 10 -59.5 16t-27 12.5t-2.5 15.5v1093h-122q-25 0 -25 25v36q0 25 25 25h122v169q0 42 -46 58q-20 7 -43 11.5t-36.5 8.5t-17 7.5 t-3.5 15t15 19.5l255 120q12 6 15 6q17 0 17 -24v-391h297q25 0 25 -25v-36q0 -25 -25 -25h-297v-307zM527 805q-89 0 -200 -64q-12 -7 -12 -24v-473q10 -91 79 -142t151 -51q144 0 222.5 114t78.5 260t-80 263t-239 117z" />
<glyph unicode="&#x186;" horiz-adv-x="1566" d="M249 38q5 -8 24.5 -3.5t45.5 4.5t73.5 -10.5t149.5 -33t186 -22.5q190 0 368.5 89.5t285.5 254t107 381.5t-107 393q-156 258 -470 336q-100 25 -200 25q-137 0 -325 -46q-57 -14 -96.5 -29t-48.5 -15l-30 8h-31q-12 0 -12 -17v-311q0 -10 18 -10t21 4.5t6 11t6.5 13.5 t7 13t4.5 9q150 301 455 301q275 0 430 -175t155 -463.5t-170.5 -495.5t-463.5 -207q-160 0 -291.5 95t-206.5 233q-2 6 -12 6h-13q-10 0 -10 -12t6 -23z" />
<glyph unicode="&#x192;" horiz-adv-x="988" d="M988 1276q0 -70 -82 -70q-40 0 -68.5 23.5t-43.5 40.5q-60 63 -100 63q-81 0 -124 -76q-64 -113 -88 -448h232l-21 -74h-221q-2 -32 -6.5 -66t-11.5 -91q-27 -245 -46 -345q-90 -501 -296 -501q-143 0 -189.5 27.5t-68.5 74.5q-4 9 -4 19q0 69 81 69q29 0 48 -23 t30 -38.5t31.5 -38.5t56.5 -23q66 0 118 140.5t76 438.5q7 93 17.5 187.5t12.5 169.5h-166l22 74h160q90 588 389 588q144 0 191 -29t67 -73q4 -10 4 -19z" />
<glyph unicode="&#x195;" horiz-adv-x="1655" d="M341 774q0 -24 7 -24t10 3.5t42 46.5t97.5 84.5t142.5 41.5q177 0 248 -120q51 -88 51 -237v-419q0 -71 105 -98q37 -9 88 -9q92 0 150 70t85 163.5t27 200t-22 170.5q-35 99 -152 153q-26 12 -26 35t46 57t70 34q122 0 200 -166q55 -119 55 -246q0 -244 -130.5 -392.5 t-313 -148.5t-251.5 55q-50 36 -68.5 72.5t-18.5 51.5v407q0 147 -21 191q-40 88 -167 88q-78 0 -166 -66.5t-88 -146.5v-473q0 -98 108 -114q47 -6 47 -21t-10 -17h-446q-10 2 -10 14q0 18 47 24q108 16 108 114v1247q0 42 -46 58q-20 7 -43 11.5t-36.5 8.5t-17 7.5 t-3.5 15t15 19.5l255 120q12 6 15 6q17 0 17 -24v-847z" />
<glyph unicode="&#x197;" horiz-adv-x="701" d="M447 160q0 -120 139 -120q21 0 21 -8v-24q0 -8 -8 -8h-501q-8 0 -8 8v24q0 8 44 8t81 28t37 115v481h-192q-25 0 -25 25v36q0 25 25 25h192v500q0 120 -138 120q-22 0 -22 8v24q0 8 8 8h501q8 0 8 -8v-24q0 -8 -44 -8t-81 -28t-37 -115v-477h188q25 0 25 -25v-36 q0 -25 -25 -25h-188v-504z" />
<glyph unicode="&#x199;" horiz-adv-x="1096" d="M463 38q47 -6 47 -26q0 -12 -10 -12h-446q-10 2 -10 14q0 18 47 24q108 16 108 114v1002q0 149 86 223.5t231 74.5t194 -80q17 -27 17 -61.5t-7 -56t-30 -21.5t-37.5 20.5t-30.5 44.5q-45 66 -90 66q-85 0 -131 -48t-46 -141v-552q8 -29 21 -34t28 -5q29 0 95.5 45.5 t120.5 102t54 78t-19 27t-42.5 8t-42.5 8t-19 26.5t41 21h381q35 0 35 -23q0 -12 -23 -19t-89 -21.5t-105 -45.5l-287 -224q0 -13 19 -32l411 -433q40 -41 82 -53.5t56 -16.5t14 -14q0 -18 -16 -18h-439q-10 0 -10 12q0 18 25 23q75 14 75 51q0 11 -15 29t-28 35l-309 327 q0 1 -1 2h-1q-12 0 -12 -49v-278q0 -98 108 -114z" />
<glyph unicode="&#x19a;" horiz-adv-x="649" d="M14 689v36q0 25 25 25h208v649q0 42 -46 58q-20 7 -43 11.5t-36.5 8.5t-17 7.5t-3.5 15t15 19.5l255 120q12 6 15 6q17 0 17 -24v-871h211q25 0 25 -25v-36q0 -25 -25 -25h-211v-512q0 -98 108 -114q47 -6 47 -21t-10 -17h-446q-10 2 -10 14q0 18 47 24q108 16 108 114 v512h-208q-25 0 -25 25z" />
<glyph unicode="&#x19e;" horiz-adv-x="1164" d="M804 315l-2 211q0 129 -18.5 180.5t-37.5 75.5q-42 50 -106.5 50t-250.5 -90q-25 -15 -26 -28v-558q0 -101 108 -116q47 -7 47 -22.5t-10 -17.5h-446q-10 2 -10 14q0 19 47 26q108 15 108 116v574q0 42 -46 58q-20 7 -43 11.5t-36.5 8.5t-17 7.5t-3.5 15t15 19.5l255 120 q12 6 15 6q17 0 17 -24v-156q3 -10 8 -10t7.5 1t8.5 3l219 110q52 27 117 27q107 0 161 -77q78 -109 78 -344l-9 -912v-58q0 -78 78 -102q33 -11 63.5 -15.5t40 -8.5t9.5 -16t-10 -14h-482q-10 2 -10 14t11.5 17t35.5 8.5t48 14.5q59 29 59 108v2q7 56 7 512l1 210v49z" />
<glyph unicode="&#x1a6;" horiz-adv-x="1419" d="M243 1485q0 120 -139 120q-21 0 -21 8v24q0 8 8 8h501q8 0 8 -8v-24q0 -8 -44 -8t-81 -27.5t-37 -115.5v-40q81 3 163 3h101q177 -12 296.5 -128.5t119.5 -287t-142 -265.5q-44 -29 -95 -52q11 -13 107.5 -174.5t108.5 -180.5t28.5 -44.5t33.5 -52t42 -66t77 -87 t89 -61.5t38.5 -17.5t1.5 -8.5q0 -25 -37 -25q-138 0 -293 105q-62 71 -119 151l-256 402q-3 3 -5 4l-236 11h-8q-15 0 -15 -14v-461q0 -55 31 -82t107 -37q20 -3 49 -8.5t39.5 -5.5t10.5 -8v-24q0 -8 -8 -8h-615q-8 0 -8 20v12q0 8 8 8q6 0 19 2t27 4t26 4.5t17 3.5 q102 23 102 116v1056q1 3 3 11h-3v248zM493.5 1371.5q-13.5 -0.5 -33 -1t-22.5 -14.5v-608l2 -30q3 -21 19 -22l102 -6q281 0 339 200q19 63 19 144q0 158 -98.5 249t-251.5 91q-14 0 -26 -0.5l-24 -1t-25.5 -1z" />
<glyph unicode="&#x1b5;" horiz-adv-x="1460" d="M95 0q-18 0 -18 34t16 52l447 578h-246q-25 0 -25 25v36q0 25 25 25h312l422 545q4 5 4 12.5t-20 7.5h-607q-83 0 -135 -57q-18 -19 -26.5 -43.5t-20 -83.5t-15.5 -63.5t-18.5 -4.5t-18.5 6l15 307q0 34 23 34h1086q16 0 16 -32t-13 -51l-446 -577h291q25 0 25 -25v-36 q0 -25 -25 -25h-358l-386 -500q-3 -5 -11.5 -17t-8.5 -20q0 -27 46 -27h705q48 0 97 40.5t70.5 108.5t29.5 164q3 15 20 15t17 -12v-47l-21 -310q-1 -11 -1 -21q0 -38 -28 -38h-1219z" />
<glyph unicode="&#x1b6;" horiz-adv-x="915" d="M310.5 116q-3.5 -5 -3.5 -12.5t6 -7.5h385q63 0 110 79q33 55 44.5 67t25 12t13.5 -12l-74 -196q-2 -4 -7.5 -25t-20.5 -21h-705q-22 0 -22 20q0 14 6 25l269 369h-165q-25 0 -25 25v36q0 25 25 25h227l172 235q10 14 17.5 24t9 22t-132.5 12h-205q-81 0 -115 -101 q-9 -27 -20.5 -64.5t-28.5 -37.5q-10 0 -10 4l57 334q3 12 16.5 12t25.5 -20.5t29 -22.5q75 -10 205 -10t421 6q10 -3 10 -24.5t-16 -34.5l-244 -334h157q25 0 25 -25v-36q0 -25 -25 -25h-220l-209 -287q-4 -6 -7.5 -11z" />
<glyph unicode="&#x1b7;" horiz-adv-x="1039" d="M654 1305h-392q-81 0 -115 -101q-9 -27 -20.5 -64.5t-28.5 -37.5q-10 0 -10 4l57 334q3 12 16.5 12t25.5 -20.5t29 -22.5q75 -10 229 -10t442 6q10 -3 10 -23t-16 -36l-422 -502q6 6 75 6q179 0 260 -68q110 -93 110 -351q0 -148 -91.5 -266.5t-258.5 -166.5 q-88 -25 -194 -25t-208 55.5t-102 142.5q0 29 21 49t48 20q36 -6 68.5 -43.5t53.5 -62.5q81 -96 171 -96q199 0 296 251q32 85 32 152q0 267 -120 319q-53 23 -129.5 23t-131 -14.5t-89 -46t-48.5 -31.5t-31.5 30.5t-17.5 37.5t1 8q89 62 245.5 226.5t206.5 238t28 73.5z " />
<glyph unicode="&#x1bf;" horiz-adv-x="1069" d="M323 796q0 -11 11.5 -11t18.5 7q142 134 301 134q148 0 224 -99t76 -244q0 -61 -47 -144.5t-132 -204t-132 -170.5t-92.5 -91.5t-86.5 -76.5t-72 -66q-69 -67 -69 -120v-136q0 -77 -98 -121q-42 -18 -99.5 -45t-81.5 -38l-25 -11q-7 0 -7 6v42q0 8 43 25.5t77.5 49.5 t34.5 105v1144q0 42 -46 58q-20 7 -43 11.5t-36.5 8.5t-17 7.5t-3.5 15.5t15 20q90 42 139 65l73 35q37 16 42 18.5t9.5 4.5t6.5 2q17 0 17 -24v-157zM323 126l1 -216v-36q33 0 171 172q297 369 297 547q0 108 -58 169.5t-159 61.5q-102 -10 -174 -60.5t-75 -61t-3 -110.5 v-466z" />
<glyph unicode="&#x1c0;" horiz-adv-x="431" d="M150 1645h131v-1680h-131v1680z" />
<glyph unicode="&#x1c1;" horiz-adv-x="772" d="M150 1645h131v-1680h-131v1680zM491 1645h131v-1680h-131v1680z" />
<glyph unicode="&#x1c2;" horiz-adv-x="1070" d="M461 1089v556h131v-556h428v-127h-428v-223h428v-127h-428v-639h-131v639h-411v127h411v223h-411v127h411z" />
<glyph unicode="&#x1c3;" horiz-adv-x="489" d="M130 92q0 48 33.5 81.5t80.5 33.5t81 -36t34 -83t-32 -81t-80.5 -34t-82.5 34t-34 85zM280 1493q20 0 41 -1t26 -15v-52l-74 -962q-5 -39 -30 -39q-26 0 -31 39l-74 962v52q0 14 15 14l90 2h37z" />
<glyph unicode="&#x1d1;" horiz-adv-x="1770" d="M1092 3q-103 -30 -183 -30q-164 0 -313 53q-204 74 -328 219q-158 185 -158 469q0 205 105 373.5t290.5 266.5t399 98t382.5 -95t271 -261t102 -359.5t-101 -368t-277 -282.5q-87 -53 -190 -83zM393.5 416.5q73.5 -163.5 210.5 -266.5t317 -103q256 0 399 196 q129 177 129 452t-158 474q-77 97 -188.5 155.5t-225 58.5t-186 -25t-131.5 -68.5t-104 -103.5t-75 -130q-61 -144 -61 -310t73.5 -329.5zM1127 1959q4 4 8.5 4t14.5 -13.5t10 -18.5t-7 -15l-248 -321q-17 -22 -26 -22t-25 22l-237 321q-7 10 -7 15t10 18.5t15.5 13.5 t9.5 -4l214 -224q3 -3 10.5 -12t9.5 -9t10 9t11 12z" />
<glyph unicode="&#x1d2;" horiz-adv-x="1107" d="M214.5 787.5q139.5 141.5 334.5 141.5t339 -137.5t144 -339.5t-136.5 -340.5t-342.5 -138.5t-342 140t-136 336.5t139.5 338zM324 192q98 -165 267 -165q131 0 200.5 105t69.5 258t-97.5 314t-262.5 161q-121 0 -190.5 -104.5t-69.5 -265t83 -303.5zM795 1449q4 4 8.5 4 t14.5 -13.5t10 -18.5t-7 -15l-248 -321q-17 -22 -26 -22t-25 22l-237 321q-7 10 -7 15t10 18.5t15.5 13.5t9.5 -4l214 -224q3 -3 10.5 -12t9.5 -9t10 9t11 12z" />
<glyph unicode="&#x1d3;" horiz-adv-x="1672" d="M574 1370q-168 0 -168 -134v-716q0 -198 131 -323.5t336 -125.5q213 0 349.5 114.5t136.5 317.5v636q0 95 -17 132q-43 99 -194 99q-8 0 -8 8v24q0 8 8 8h492q8 0 8 -8v-24q0 -8 -22 -8q-131 0 -160 -102q-5 -17 -5 -32v-655q0 -439 -336 -565q-113 -43 -225 -43 q-401 0 -591 210q-98 108 -98 267v800q0 85 -103 112q-30 8 -51 8t-21 8v24q0 8 7 8h542q8 0 8 -8v-24q0 -8 -19 -8zM1078 1959q4 4 8.5 4t14.5 -13.5t10 -18.5t-7 -15l-248 -321q-17 -22 -26 -22t-25 22l-237 321q-7 10 -7 15t10 18.5t15.5 13.5t9.5 -4l214 -224 q3 -3 10.5 -12t9.5 -9t10 9t11 12z" />
<glyph unicode="&#x1d4;" horiz-adv-x="1124" d="M754 88q-5 17 -13 11.5t-65 -34.5q-187 -93 -312 -93t-180 80q-20 30 -20 74v610q-3 29 -26 50q-31 26 -64.5 28t-33.5 20.5t16 22.5l229 66q12 4 23.5 4t11.5 -17v-671q0 -70 62 -108t158.5 -38t173.5 59q24 19 40 42v542q-3 29 -26 50q-31 26 -64.5 28t-33.5 20.5 t16 22.5l229 66q12 4 23.5 4t11.5 -20v-710q5 -44 25 -63t65 -19l58 4q6 0 6 -11.5t-15 -18.5l-266 -110q-12 -6 -20.5 -6t-8.5 25v90zM804 1449q4 4 8.5 4t14.5 -13.5t10 -18.5t-7 -15l-248 -321q-17 -22 -26 -22t-25 22l-237 321q-7 10 -7 15t10 18.5t15.5 13.5t9.5 -4 l214 -224q3 -3 10.5 -12t9.5 -9t10 9t11 12z" />
<glyph unicode="&#x1d5;" horiz-adv-x="1672" d="M574 1370q-168 0 -168 -134v-716q0 -198 131 -323.5t336 -125.5q213 0 349.5 114.5t136.5 317.5v636q0 95 -17 132q-43 99 -194 99q-8 0 -8 8v24q0 8 8 8h492q8 0 8 -8v-24q0 -8 -22 -8q-131 0 -160 -102q-5 -17 -5 -32v-655q0 -439 -336 -565q-113 -43 -225 -43 q-401 0 -591 210q-98 108 -98 267v800q0 85 -103 112q-30 8 -51 8t-21 8v24q0 8 7 8h542q8 0 8 -8v-24q0 -8 -19 -8zM1156 1692q0 -89 -70 -119q-22 -9 -58.5 -9t-71 33t-34.5 82.5t34.5 84t83 34.5t82.5 -34t34 -72zM640 1564q-50 0 -83.5 33.5t-33.5 82t33.5 83.5t83.5 35 t83.5 -35t33.5 -83.5t-33.5 -82t-83.5 -33.5zM512 2024h647v-129h-647v129z" />
<glyph unicode="&#x1d6;" horiz-adv-x="1122" d="M754 88q-5 17 -13 11.5t-65 -34.5q-187 -93 -312 -93t-180 80q-20 30 -20 74v610q-3 29 -26 50q-31 26 -64.5 28t-33.5 20.5t16 22.5l229 66q12 4 23.5 4t11.5 -17v-671q0 -70 62 -108t158.5 -38t173.5 59q24 19 40 42v542q-3 29 -26 50q-31 26 -64.5 28t-33.5 20.5 t16 22.5l229 66q12 4 23.5 4t11.5 -20v-710q5 -44 25 -63t65 -19l58 4q6 0 6 -11.5t-15 -18.5l-266 -110q-12 -6 -20.5 -6t-8.5 25v90zM856 1240q0 -89 -70 -119q-22 -9 -58.5 -9t-71 33t-34.5 82.5t34.5 84t83 34.5t82.5 -34t34 -72zM340 1112q-50 0 -83.5 33.5t-33.5 82 t33.5 83.5t83.5 35t83.5 -35t33.5 -83.5t-33.5 -82t-83.5 -33.5zM237 1644h647v-129h-647v129z" />
<glyph unicode="&#x1dd;" horiz-adv-x="930" d="M674 323q17 0 17 43q0 204 -61 296q-31 47 -74 81q-90 71 -191 71t-203 -78q-28 -22 -42 -33.5t-17 -11.5h-5q-6 0 -11.5 9.5t-10.5 12.5q67 84 173.5 149t197.5 65q170 0 279 -131.5t109 -300.5q0 -210 -115.5 -366t-317.5 -156q-106 0 -172 41q-63 34 -132 180 q-28 59 -28 94t24 35h580zM663 257q0 19 -18 19h-367q-26 0 -26 -31q0 -73 59.5 -138t136.5 -65t137.5 59.5t77.5 143.5v12z" />
<glyph unicode="&#x1e2;" horiz-adv-x="1930" d="M518 0h-502q-12 0 -14 5t-2 18.5t18.5 21t50.5 13.5t48.5 18.5t29.5 29.5t24.5 38t81 131.5t163.5 263.5t164 267q166 271 225 370t59 129.5t-28 49t-67 18.5h-108q-3 0 -8 5.5t-5 11.5q0 20 18 20h1031q18 0 26 -7t10 -29l18 -289q0 -10 -15 -10t-22 9q-6 10 -15.5 73 t-34.5 105t-88 53h-417q-13 0 -13 -13v-518q0 -10 10 -10h346q124 0 124 156q0 8 8 8h24q8 0 8 -8v-428q0 -8 -8 -8h-24q-8 0 -8 8q0 148 -86 170q-24 7 -51 7h-333q-10 0 -10 -10v-486q0 -75 69 -85q20 -3 42 -3h333q103 0 160 91q41 65 50 149q3 28 30 28q12 0 12 -13 l-33 -336q-6 -14 -14 -14h-1115q-30 0 -30 20.5t38 23.5t86 4q177 4 177 130v445h-320q-26 0 -49 -33q-5 -7 -6 -8l-265 -439q-3 -9 -3 -27q0 -37 80 -59q46 -12 124 -16q24 -5 24 -23t-18 -18zM635 750q-9 -17 -9 -21q0 -13 32 -13h293v469q-7 19 -11 19q-9 0 -24 -8 t-19 -20zM826 1864h647v-129h-647v129z" />
<glyph unicode="&#x1e3;" horiz-adv-x="1378" d="M704 577q-16 0 -16 -41v-45q0 -306 230 -387q53 -18 100 -18q88 0 157 51q19 8 57 40t43 32h5q6 0 10.5 -6t9.5 -9q0 -21 -37 -51q-24 -30 -90 -74q-130 -96 -250 -96q-153 0 -263 121q-33 37 -57 81q-82 -87 -223 -173q-83 -50 -169 -17t-123 107q-18 38 -18 81 q0 85 63 135t240 96q60 16 107 41t49.5 32t2.5 13v192q0 108 -83.5 153t-152.5 -8q-45 -35 -45 -94l5 -39q-6 -12 -72 -40t-76 -30q-16 0 -16 39q0 78 82 153.5t145.5 92t132.5 16.5q97 0 178 -96q20 -23 34 -51q121 149 312 149q106 0 172 -41q63 -34 132 -180 q28 -59 28 -94t-24 -35h-580zM715 643q0 -19 18 -19h367q26 0 26 31q0 73 -59.5 138t-136.5 65t-137.5 -59.5t-77.5 -143.5v-12zM264 108.5q37 -35.5 84.5 -35.5t115.5 40.5t68 83.5v203q0 11 -5 11t-7 -1l-232 -108q-36 -26 -48.5 -44t-12.5 -66t37 -83.5zM346 1322h647 v-129h-647v129z" />
<glyph unicode="&#x1e4;" horiz-adv-x="1621" d="M1378 1024q0 -19 -22 -19h-4q-19 2 -26 51l-3 15q-100 313 -422 313q-258 0 -411.5 -195t-153.5 -464t154.5 -475.5t424.5 -206.5q139 0 229 43q35 17 54 43v165h-343q-21 0 -21 25v36q0 25 21 25h343v23q0 93 -53 136.5t-195 43.5q-11 0 -11 18.5t11 18.5h610 q11 0 11 -15.5t-11 -21.5q-27 -11 -55.5 -19t-52.5 -21q-55 -30 -55 -97v-66h180q21 0 21 -25v-36q0 -25 -21 -25h-180v-173q0 -22 -105.5 -59t-171.5 -54q-309 -76 -552 16q-279 107 -395 383q-58 138 -58 274.5t27 229.5q82 284 344 437q171 100 359.5 100t400.5 -76 q39 -14 44 -14h12l40 10h25q11 0 11 -11v-333z" />
<glyph unicode="&#x1e5;" horiz-adv-x="1148" d="M819 831l268 12q23 0 30 -5t15 -34.5t8 -55.5t-5 -30t-20 -4h-222q6 -11 13 -23t18 -40t11 -86.5t-28.5 -122t-83.5 -112.5q-122 -110 -316 -110q-51 0 -112 19q-15 -16 -40 -29.5t-49 -27.5q-60 -34 -60 -68q0 -85 282 -87t370.5 -18.5t137.5 -65.5q77 -77 77 -176 l-1 -17h46q25 0 25 -25v-36q0 -25 -25 -25h-71q-59 -122 -224.5 -212.5t-416.5 -90.5q-180 0 -278 68.5t-98 165.5q0 38 14 69h-61q-25 0 -25 25v36q0 25 25 25h138q38 30 83 63t87 84q-96 8 -164.5 61t-68.5 104t27 75.5t66 42t82 32.5t75 39q-112 44 -173 121.5t-61 169.5 q0 171 124.5 279t300.5 108t280 -98zM700.5 794.5q-70.5 88.5 -186.5 88.5q-150 0 -212 -141q-24 -54 -24 -124q0 -143 59 -238q72 -114 189 -114t181 79t64 220t-70.5 229.5zM831 -501q113 67 146 165h-755q8 -87 114.5 -159.5t244 -72.5t250.5 67zM380 -113 q-19 -22 -68.5 -66t-67.5 -71h740q-11 56 -56.5 85t-83.5 32t-72 5q-86 3 -209.5 5.5t-182.5 9.5z" />
<glyph unicode="&#x1e6;" horiz-adv-x="1621" d="M1560 620q11 0 11 -15.5t-11 -21.5q-27 -11 -55.5 -19t-52.5 -21q-55 -30 -55 -97v-325q0 -22 -105.5 -59t-171.5 -54q-309 -76 -552 16q-279 107 -395 383q-58 138 -58 274.5t27 229.5q82 284 344 437q171 100 359.5 100t400.5 -76q39 -14 44 -14h12l40 10h25 q11 0 11 -11v-333q0 -19 -22 -19h-4q-19 2 -26 51l-3 15q-100 313 -422 313q-258 0 -411.5 -195t-153.5 -464t154.5 -475.5t424.5 -206.5q139 0 229 43q35 17 54 43v274q0 93 -53 136.5t-195 43.5q-11 0 -11 18.5t11 18.5h610zM1083 1946q4 4 8.5 4t14.5 -13.5t10 -18.5 t-7 -15l-248 -321q-17 -22 -26 -22t-25 22l-237 321q-7 10 -7 15t10 18.5t15.5 13.5t9.5 -4l214 -224q3 -3 10.5 -12t9.5 -9t10 9t11 12z" />
<glyph unicode="&#x1e7;" horiz-adv-x="1148" d="M819 831l268 12q23 0 30 -5t15 -34.5t8 -55.5t-5 -30t-20 -4h-222q6 -11 13 -23t18 -40t11 -86.5t-28.5 -122t-83.5 -112.5q-122 -110 -316 -110q-51 0 -112 19q-15 -16 -40 -29.5t-49 -27.5q-60 -34 -60 -68q0 -85 282 -87t370.5 -18.5t137.5 -65.5q77 -77 77 -176 q0 -85 -73 -175q-127 -159 -388 -212q-93 -19 -197 -19q-189 0 -287 68.5t-98 165.5q0 53 25 87.5t63.5 65t84.5 64t88 85.5q-96 8 -164.5 61t-68.5 104t27 75.5t66 42t82 32.5t75 39q-112 44 -173 121.5t-61 169.5q0 171 124.5 279t300.5 108t280 -98zM237 -261 q-15 -26 -15 -65.5t28.5 -83t77.5 -78.5q108 -80 260 -80t275.5 88.5t123.5 194t-102 141.5q-48 16 -247 20t-258 11q-26 -30 -53.5 -53t-51 -46t-38.5 -49zM700.5 794.5q-70.5 88.5 -186.5 88.5q-150 0 -212 -141q-24 -54 -24 -124q0 -143 59 -238q72 -114 189 -114t181 79 t64 220t-70.5 229.5zM803 1449q4 4 8.5 4t14.5 -13.5t10 -18.5t-7 -15l-248 -321q-17 -22 -26 -22t-25 22l-237 321q-7 10 -7 15t10 18.5t15.5 13.5t9.5 -4l214 -224q3 -3 10.5 -12t9.5 -9t10 9t11 12z" />
<glyph unicode="&#x1ea;" horiz-adv-x="1770" d="M1092 3q-103 -30 -183 -30q-164 0 -313 53q-204 74 -328 219q-158 185 -158 469q0 205 105 373.5t290.5 266.5t399 98t382.5 -95t271 -261t102 -359.5t-101 -368t-277 -282.5q-87 -53 -190 -83zM393.5 416.5q73.5 -163.5 210.5 -266.5t317 -103q256 0 399 196 q129 177 129 452t-158 474q-77 97 -188.5 155.5t-225 58.5t-186 -25t-131.5 -68.5t-104 -103.5t-75 -130q-61 -144 -61 -310t73.5 -329.5zM1118 -449q32 0 32 -24q0 -59 -148 -59t-207 95q-23 37 -23 90q0 95 62.5 191.5t145.5 155.5h82q-2 -1 -44 -48q-111 -124 -111 -258 q0 -67 42 -107t109 -40z" />
<glyph unicode="&#x1eb;" horiz-adv-x="1107" d="M214.5 787.5q139.5 141.5 334.5 141.5t339 -137.5t144 -339.5t-136.5 -340.5t-342.5 -138.5t-342 140t-136 336.5t139.5 338zM324 192q98 -165 267 -165q131 0 200.5 105t69.5 258t-97.5 314t-262.5 161q-121 0 -190.5 -104.5t-69.5 -265t83 -303.5zM756 -449 q32 0 32 -24q0 -59 -148 -59t-207 95q-23 37 -23 90q0 95 62.5 191.5t145.5 155.5h82q-2 -1 -44 -48q-111 -124 -111 -258q0 -67 42 -107t109 -40z" />
<glyph unicode="&#x1ec;" horiz-adv-x="1770" d="M1092 3q-103 -30 -183 -30q-164 0 -313 53q-204 74 -328 219q-158 185 -158 469q0 205 105 373.5t290.5 266.5t399 98t382.5 -95t271 -261t102 -359.5t-101 -368t-277 -282.5q-87 -53 -190 -83zM393.5 416.5q73.5 -163.5 210.5 -266.5t317 -103q256 0 399 196 q129 177 129 452t-158 474q-77 97 -188.5 155.5t-225 58.5t-186 -25t-131.5 -68.5t-104 -103.5t-75 -130q-61 -144 -61 -310t73.5 -329.5zM1118 -449q32 0 32 -24q0 -59 -148 -59t-207 95q-23 37 -23 90q0 95 62.5 191.5t145.5 155.5h82q-2 -1 -44 -48q-111 -124 -111 -258 q0 -67 42 -107t109 -40zM586 1864h647v-129h-647v129z" />
<glyph unicode="&#x1ed;" horiz-adv-x="1102" d="M214.5 787.5q139.5 141.5 334.5 141.5t339 -137.5t144 -339.5t-136.5 -340.5t-342.5 -138.5t-342 140t-136 336.5t139.5 338zM324 192q98 -165 267 -165q131 0 200.5 105t69.5 258t-97.5 314t-262.5 161q-121 0 -190.5 -104.5t-69.5 -265t83 -303.5zM756 -449 q32 0 32 -24q0 -59 -148 -59t-207 95q-23 37 -23 90q0 95 62.5 191.5t145.5 155.5h82q-2 -1 -44 -48q-111 -124 -111 -258q0 -67 42 -107t109 -40zM226 1322h647v-129h-647v129z" />
<glyph unicode="&#x1f0;" horiz-adv-x="577" d="M504 1449q4 4 8.5 4t14.5 -13.5t10 -18.5t-7 -15l-248 -321q-17 -22 -26 -22t-25 22l-237 321q-7 10 -7 15t10 18.5t15.5 13.5t9.5 -4l214 -224q3 -3 10.5 -12t9.5 -9t10 9t11 12zM109 -543q106 25 106 226v998q0 42 -46 58q-20 7 -43 11.5t-36.5 8.5t-17 7.5t-3.5 15 t15 19.5l255 120q12 6 15 6q17 0 17 -24v-1030q0 -160 -66 -291q-23 -45 -55 -82q-88 -118 -232 -134q-48 -6 -101.5 -6t-106.5 40.5t-57 87.5q0 54 53 80q17 8 30 8q23 0 138 -88q41 -31 135 -31z" />
<glyph unicode="&#x1f4;" horiz-adv-x="1621" d="M1560 620q11 0 11 -15.5t-11 -21.5q-27 -11 -55.5 -19t-52.5 -21q-55 -30 -55 -97v-325q0 -22 -105.5 -59t-171.5 -54q-309 -76 -552 16q-279 107 -395 383q-58 138 -58 274.5t27 229.5q82 284 344 437q171 100 359.5 100t400.5 -76q39 -14 44 -14h12l40 10h25 q11 0 11 -11v-333q0 -19 -22 -19h-4q-19 2 -26 51l-3 15q-100 313 -422 313q-258 0 -411.5 -195t-153.5 -464t154.5 -475.5t424.5 -206.5q139 0 229 43q35 17 54 43v274q0 93 -53 136.5t-195 43.5q-11 0 -11 18.5t11 18.5h610zM822 1595q-4 4 -4 6t4 6l213 295q36 49 71 49 t55.5 -22.5t20.5 -60.5t-55 -85l-269 -217q-5 -3 -8 -3t-6 3z" />
<glyph unicode="&#x1f5;" horiz-adv-x="1148" d="M819 831l268 12q23 0 30 -5t15 -34.5t8 -55.5t-5 -30t-20 -4h-222q6 -11 13 -23t18 -40t11 -86.5t-28.5 -122t-83.5 -112.5q-122 -110 -316 -110q-51 0 -112 19q-15 -16 -40 -29.5t-49 -27.5q-60 -34 -60 -68q0 -85 282 -87t370.5 -18.5t137.5 -65.5q77 -77 77 -176 q0 -85 -73 -175q-127 -159 -388 -212q-93 -19 -197 -19q-189 0 -287 68.5t-98 165.5q0 53 25 87.5t63.5 65t84.5 64t88 85.5q-96 8 -164.5 61t-68.5 104t27 75.5t66 42t82 32.5t75 39q-112 44 -173 121.5t-61 169.5q0 171 124.5 279t300.5 108t280 -98zM237 -261 q-15 -26 -15 -65.5t28.5 -83t77.5 -78.5q108 -80 260 -80t275.5 88.5t123.5 194t-102 141.5q-48 16 -247 20t-258 11q-26 -30 -53.5 -53t-51 -46t-38.5 -49zM700.5 794.5q-70.5 88.5 -186.5 88.5q-150 0 -212 -141q-24 -54 -24 -124q0 -143 59 -238q72 -114 189 -114t181 79 t64 220t-70.5 229.5zM516 1096q-4 4 -4 6t4 6l213 295q36 49 71 49t55.5 -22.5t20.5 -60.5t-55 -85l-269 -217q-5 -3 -8 -3t-6 3z" />
<glyph unicode="&#x1f6;" horiz-adv-x="2272" d="M1605 1387q-148 0 -148 -141v-1002q0 -156 189 -176q54 -5 104 -5q91 0 150 54t85 127t26 134q0 149 -23 213q-34 99 -152 153q-25 12 -25 25t19 37q52 64 99 64q120 0 197 -166q56 -119 56 -246q0 -240 -127.5 -362.5t-313.5 -122.5q-244 0 -361.5 62.5t-117.5 174.5 v447q0 10 -3 13t-13 3h-788q-10 0 -13 -3t-3 -13v-487q0 -120 177 -120q8 0 8 -8v-24q0 -8 -7 -8h-552q-8 0 -8 8v24q0 8 20 8q167 0 167 143v1067q0 117 -139 124q-21 1 -21 9v19q0 8 7 8h502q8 0 8 -8v-19q0 -6 -19 -6q-143 0 -143 -141v-462q0 -10 3 -13t13 -3h788 q10 0 13 3t3 13v478q-2 9 -2.5 16.5t-3.5 23.5q-7 34 -71 55.5t-145 27.5q-8 0 -8 8v19q0 8 7 8h577q8 0 8 -8v-19q0 -6 -19 -6z" />
<glyph unicode="&#x1f7;" horiz-adv-x="1246" d="M409 1218q0 -13 12.5 -13t86 47.5t146 84.5t158.5 37q171 0 262.5 -117.5t91.5 -293.5q0 -74 -53 -168t-158.5 -244.5t-162 -210.5t-111 -110t-104 -92t-87.5 -80q-81 -81 -81 -143v-213q0 -92 -118 -145q-17 -8 -42 -19t-52 -24t-54.5 -25.5t-49 -22.5t-49.5 -23 q-9 0 -9 8v50q0 10 49.5 30t89.5 59t40 127v1442q0 66 -106 83q-44 8 -56.5 14t-12.5 21.5t18 23.5l313 145q5 2 10.5 4.5t7.5 2.5q21 0 21 -28v-207zM665 1249q-79 -10 -179 -82q-30 -21 -53.5 -38t-23.5 -40v-886q0 -45 1 -69v-22q38 0 204 206q357 443 357 656 q0 130 -70 204t-190 74z" />
<glyph unicode="&#x1fa;" horiz-adv-x="1457" d="M608 1814q0 3 3 6l226 184q28 24 54 24t41 -18.5t15 -43.5q0 -45 -64 -73l-253 -112q0 -1 -4 -1t-6 4zM563 1600q0 60 42.5 104t104.5 44q60 0 103.5 -43.5t43.5 -104.5q0 -62 -44 -104.5t-103 -42.5q-61 0 -104 43t-43 104zM718 1692q-69 0 -92 -57q-7 -17 -7 -45 t26 -54.5t64 -26.5t65 27t27 64t-27.5 64.5t-55.5 27.5zM532 8q0 -8 -8 -8h-511q-8 0 -8 8v24q0 8 13 8q137 6 185 146l408 1181q1 2 1 5l-11 33q0 5 4 5h200q2 -1 5.5 -2t5.5 -6l423 -1187q14 -27 22.5 -49t19.5 -40q24 -41 79 -63q46 -23 84 -23q8 0 8 -9v-23q0 -8 -8 -8 h-612q-8 0 -8 8v24q0 8 37 10t61 4q139 15 139 94q0 6 -2 14l-151 426q-1 2 -4 9q-12 34 -42 34h-355q-30 0 -47 -33q-3 -7 -3 -8l-150 -439v-9q0 -26 27 -47q61 -47 164 -47h26q8 0 8 -8v-24zM828 734q18 0 18 15q0 8 -4 18l-149 410q-10 27 -15 27t-16 -28l-140 -409 q-4 -10 -4 -21.5t15 -11.5h295z" />
<glyph unicode="&#x1fb;" horiz-adv-x="872" d="M712.5 123.5q24.5 -15.5 56.5 -15.5t53.5 16.5t29.5 16.5t8 -21.5t-20 -36.5q-150 -110 -203 -110q-64 0 -104 133q-3 10 -5 9q-124 -93 -156 -112q-82 -47 -164.5 -15t-119.5 106q-18 38 -18 81q0 85 63 135t240 96q60 16 107 41t49.5 32t2.5 13v192q0 113 -88 159 q-29 15 -69.5 15t-82 -32t-41.5 -91l5 -39q-6 -12 -72 -40t-76 -30q-16 0 -16 38.5t23 85.5t65 86q98 91 224 91t205 -69.5t79 -165.5v-527q0 -26 24.5 -41.5zM264 110.5q37 -35.5 84.5 -35.5t115.5 40.5t68 83.5v203q0 11 -5 11t-7 -1l-232 -108q-36 -26 -48.5 -44 t-12.5 -66t37 -83.5zM290.5 1392q53.5 55 130.5 55t130.5 -55t53.5 -130t-54 -129t-130 -54t-130 54t-54 129t53.5 130zM432 1377q-85 0 -116 -71q-9 -20 -9 -55.5t33 -68.5t79.5 -33t81 32.5t34.5 80t-34 81.5t-69 34zM302 1556q-4 4 -4 6t4 6l213 295q36 49 71 49 t55.5 -22.5t20.5 -60.5t-55 -85l-269 -217q-5 -3 -8 -3t-6 3z" />
<glyph unicode="&#x1fc;" horiz-adv-x="1930" d="M518 0h-502q-12 0 -14 5t-2 18.5t18.5 21t50.5 13.5t48.5 18.5t29.5 29.5t24.5 38t81 131.5t163.5 263.5t164 267q166 271 225 370t59 129.5t-28 49t-67 18.5h-108q-3 0 -8 5.5t-5 11.5q0 20 18 20h1031q18 0 26 -7t10 -29l18 -289q0 -10 -15 -10t-22 9q-6 10 -15.5 73 t-34.5 105t-88 53h-417q-13 0 -13 -13v-518q0 -10 10 -10h346q124 0 124 156q0 8 8 8h24q8 0 8 -8v-428q0 -8 -8 -8h-24q-8 0 -8 8q0 148 -86 170q-24 7 -51 7h-333q-10 0 -10 -10v-486q0 -75 69 -85q20 -3 42 -3h333q103 0 160 91q41 65 50 149q3 28 30 28q12 0 12 -13 l-33 -336q-6 -14 -14 -14h-1115q-30 0 -30 20.5t38 23.5t86 4q177 4 177 130v445h-320q-26 0 -49 -33q-5 -7 -6 -8l-265 -439q-3 -9 -3 -27q0 -37 80 -59q46 -12 124 -16q24 -5 24 -23t-18 -18zM635 750q-9 -17 -9 -21q0 -13 32 -13h293v469q-7 19 -11 19q-9 0 -24 -8 t-19 -20zM1042 1594q-4 4 -4 6t4 6l213 295q36 49 71 49t55.5 -22.5t20.5 -60.5t-55 -85l-269 -217q-5 -3 -8 -3t-6 3z" />
<glyph unicode="&#x1fd;" horiz-adv-x="1378" d="M704 577q-16 0 -16 -41v-45q0 -306 230 -387q53 -18 100 -18q88 0 157 51q19 8 57 40t43 32h5q6 0 10.5 -6t9.5 -9q0 -21 -37 -51q-24 -30 -90 -74q-130 -96 -250 -96q-153 0 -263 121q-33 37 -57 81q-82 -87 -223 -173q-83 -50 -169 -17t-123 107q-18 38 -18 81 q0 85 63 135t240 96q60 16 107 41t49.5 32t2.5 13v192q0 108 -83.5 153t-152.5 -8q-45 -35 -45 -94l5 -39q-6 -12 -72 -40t-76 -30q-16 0 -16 39q0 78 82 153.5t145.5 92t132.5 16.5q97 0 178 -96q20 -23 34 -51q121 149 312 149q106 0 172 -41q63 -34 132 -180 q28 -59 28 -94t-24 -35h-580zM715 643q0 -19 18 -19h367q26 0 26 31q0 73 -59.5 138t-136.5 65t-137.5 -59.5t-77.5 -143.5v-12zM264 108.5q37 -35.5 84.5 -35.5t115.5 40.5t68 83.5v203q0 11 -5 11t-7 -1l-232 -108q-36 -26 -48.5 -44t-12.5 -66t37 -83.5zM602 1096 q-4 4 -4 6t4 6l213 295q36 49 71 49t55.5 -22.5t20.5 -60.5t-55 -85l-269 -217q-5 -3 -8 -3t-6 3z" />
<glyph unicode="&#x1fe;" horiz-adv-x="1770" d="M1396 1283l203 215l67 -64l-202 -214q196 -207 196 -486q0 -190 -101 -364.5t-281.5 -285t-403.5 -110.5q-86 0 -264 36q-16 3 -72.5 29t-122.5 74l-209 -221l-67 64l204 216q-233 213 -233 543q0 205 105 373.5t290.5 266.5t434 98t456.5 -170zM1290 1171 q-171 213 -441 213q-162 0 -289 -94q-173 -127 -224 -381q-16 -77 -16 -176.5t36.5 -218t105.5 -217.5zM521 225q166 -177 411 -177t381 186.5t136 432t-106 426.5zM801 1594q-4 4 -4 6t4 6l213 295q36 49 71 49t55.5 -22.5t20.5 -60.5t-55 -85l-269 -217q-5 -3 -8 -3t-6 3z " />
<glyph unicode="&#x1ff;" horiz-adv-x="1155" d="M579 -27q-159 0 -281 88l-175 -176l-63 65l170 172q-127 140 -127 332t139.5 333.5t319 141.5t317.5 -106l139 139l67 -62l-140 -140q115 -132 115 -321t-136.5 -327.5t-344.5 -138.5zM782 718q-103 147 -238.5 147t-205 -104.5t-69.5 -251.5t62 -277zM380 150 q92 -123 231 -123t208.5 105t69.5 240t-60 263zM492 1096q-4 4 -4 6t4 6l213 295q36 49 71 49t55.5 -22.5t20.5 -60.5t-55 -85l-269 -217q-5 -3 -8 -3t-6 3z" />
<glyph unicode="&#x200;" horiz-adv-x="1457" d="M532 8q0 -8 -8 -8h-511q-8 0 -8 8v24q0 8 13 8q137 6 185 146l408 1181q1 2 1 5l-11 33q0 5 4 5h200q2 -1 5.5 -2t5.5 -6l423 -1187q14 -27 22.5 -49t19.5 -40q24 -41 79 -63q46 -23 84 -23q8 0 8 -9v-23q0 -8 -8 -8h-612q-8 0 -8 8v24q0 8 37 10t61 4q139 15 139 94 q0 6 -2 14l-151 426q-1 2 -4 9q-12 34 -42 34h-355q-30 0 -47 -33q-3 -7 -3 -8l-150 -439v-9q0 -26 27 -47q61 -47 164 -47h26q8 0 8 -8v-24zM828 734q18 0 18 15q0 8 -4 18l-149 410q-10 27 -15 27t-16 -28l-140 -409q-4 -10 -4 -21.5t15 -11.5h295zM878 1565q-4 -4 -7 -4 t-7 4l-269 217q-55 47 -55 85t20.5 60.5t55.5 22.5t71 -49l213 -295q4 -4 4 -6t-4 -6zM578 1565q-4 -4 -7 -4t-7 4l-269 217q-55 47 -55 85t20.5 60.5t55.5 22.5t71 -49l213 -295q4 -4 4 -6t-4 -6z" />
<glyph unicode="&#x201;" horiz-adv-x="885" d="M712.5 123.5q24.5 -15.5 56.5 -15.5t53.5 16.5t29.5 16.5t8 -21.5t-20 -36.5q-150 -110 -203 -110q-64 0 -104 133q-3 10 -5 9q-124 -93 -156 -112q-82 -47 -164.5 -15t-119.5 106q-18 38 -18 81q0 85 63 135t240 96q60 16 107 41t49.5 32t2.5 13v192q0 113 -88 159 q-29 15 -69.5 15t-82 -32t-41.5 -91l5 -39q-6 -12 -72 -40t-76 -30q-16 0 -16 38.5t23 85.5t65 86q98 91 224 91t205 -69.5t79 -165.5v-527q0 -26 24.5 -41.5zM264 110.5q37 -35.5 84.5 -35.5t115.5 40.5t68 83.5v203q0 11 -5 11t-7 -1l-232 -108q-36 -26 -48.5 -44 t-12.5 -66t37 -83.5zM653 1067q-4 -4 -7 -4t-7 4l-269 217q-55 47 -55 85t20.5 60.5t55.5 22.5t71 -49l213 -295q4 -4 4 -6t-4 -6zM354 1067q-4 -4 -7 -4t-7 4l-269 217q-55 47 -55 85t20.5 60.5t55.5 22.5t71 -49l213 -295q4 -4 4 -6t-4 -6z" />
<glyph unicode="&#x202;" horiz-adv-x="1457" d="M532 8q0 -8 -8 -8h-511q-8 0 -8 8v24q0 8 13 8q137 6 185 146l408 1181q1 2 1 5l-11 33q0 5 4 5h200q2 -1 5.5 -2t5.5 -6l423 -1187q14 -27 22.5 -49t19.5 -40q24 -41 79 -63q46 -23 84 -23q8 0 8 -9v-23q0 -8 -8 -8h-612q-8 0 -8 8v24q0 8 37 10t61 4q139 15 139 94 q0 6 -2 14l-151 426q-1 2 -4 9q-12 34 -42 34h-355q-30 0 -47 -33q-3 -7 -3 -8l-150 -439v-9q0 -26 27 -47q61 -47 164 -47h26q8 0 8 -8v-24zM828 734q18 0 18 15q0 8 -4 18l-149 410q-10 27 -15 27t-16 -28l-140 -409q-4 -10 -4 -21.5t15 -11.5h295zM889 1851.5 q82 -98.5 82 -213.5h-33q0 60 -80.5 126.5t-159.5 66.5t-158 -55t-79 -138h-31q0 123 79.5 217.5t188.5 94.5t191 -98.5z" />
<glyph unicode="&#x203;" horiz-adv-x="885" d="M712.5 123.5q24.5 -15.5 56.5 -15.5t53.5 16.5t29.5 16.5t8 -21.5t-20 -36.5q-150 -110 -203 -110q-64 0 -104 133q-3 10 -5 9q-124 -93 -156 -112q-82 -47 -164.5 -15t-119.5 106q-18 38 -18 81q0 85 63 135t240 96q60 16 107 41t49.5 32t2.5 13v192q0 113 -88 159 q-29 15 -69.5 15t-82 -32t-41.5 -91l5 -39q-6 -12 -72 -40t-76 -30q-16 0 -16 38.5t23 85.5t65 86q98 91 224 91t205 -69.5t79 -165.5v-527q0 -26 24.5 -41.5zM264 110.5q37 -35.5 84.5 -35.5t115.5 40.5t68 83.5v203q0 11 -5 11t-7 -1l-232 -108q-36 -26 -48.5 -44 t-12.5 -66t37 -83.5zM639 1354.5q82 -98.5 82 -213.5h-33q0 60 -80.5 126.5t-159.5 66.5t-158 -55t-79 -138h-31q0 123 79.5 217.5t188.5 94.5t191 -98.5z" />
<glyph unicode="&#x204;" horiz-adv-x="1264" d="M7 8v28q0 8 8 8h22q42 3 86 3.5t80 10.5q82 24 82 120v1054q0 99 -117 126q-33 7 -67 12h-21q-8 0 -8 8v24q0 8 8 8h951q18 0 26 -6.5t10 -28.5l18 -290q0 -10 -15 -10t-22 9q-6 10 -15.5 73t-34.5 105t-88 53h-417q-13 0 -13 -13v-517q0 -10 10 -10h346q134 0 134 156 q0 8 8 8h24q8 0 8 -8v-428q0 -8 -8 -8h-24q-8 0 -8 8q0 148 -86 171q-24 6 -51 6h-343q-10 0 -10 -10v-487q0 -75 69 -85q20 -3 42 -3h333q103 0 160 91q41 65 50 149q3 28 30 28q12 0 12 -13l-33 -336q-6 -14 -14 -14h-1114q-8 0 -8 8zM878 1565q-4 -4 -7 -4t-7 4l-269 217 q-55 47 -55 85t20.5 60.5t55.5 22.5t71 -49l213 -295q4 -4 4 -6t-4 -6zM578 1565q-4 -4 -7 -4t-7 4l-269 217q-55 47 -55 85t20.5 60.5t55.5 22.5t71 -49l213 -295q4 -4 4 -6t-4 -6z" />
<glyph unicode="&#x205;" horiz-adv-x="930" d="M231 527q-17 0 -17 -73q0 -155 92 -260t228.5 -105t262.5 118q2 2 5 2h5q6 0 11.5 -9.5t10.5 -12.5q-116 -141 -273 -195q-54 -19 -122 -19t-138 37.5t-120 98.5q-106 127 -106 316.5t115.5 345.5t317.5 156q145 0 237 -129.5t92 -227.5q0 -43 -21 -43h-580zM242 623 q0 -19 18 -19h377q26 0 26 31q0 72 -64.5 147.5t-141.5 75.5q-75 0 -136.5 -68t-78.5 -155v-12zM379 1067q-4 -4 -7 -4t-7 4l-269 217q-55 47 -55 85t20.5 60.5t55.5 22.5t71 -49l213 -295q4 -4 4 -6t-4 -6zM678 1067q-4 -4 -7 -4t-7 4l-269 217q-55 47 -55 85t20.5 60.5 t55.5 22.5t71 -49l213 -295q4 -4 4 -6t-4 -6z" />
<glyph unicode="&#x206;" horiz-adv-x="1264" d="M7 8v28q0 8 8 8h22q42 3 86 3.5t80 10.5q82 24 82 120v1054q0 99 -117 126q-33 7 -67 12h-21q-8 0 -8 8v24q0 8 8 8h951q18 0 26 -6.5t10 -28.5l18 -290q0 -10 -15 -10t-22 9q-6 10 -15.5 73t-34.5 105t-88 53h-417q-13 0 -13 -13v-517q0 -10 10 -10h346q134 0 134 156 q0 8 8 8h24q8 0 8 -8v-428q0 -8 -8 -8h-24q-8 0 -8 8q0 148 -86 171q-24 6 -51 6h-343q-10 0 -10 -10v-487q0 -75 69 -85q20 -3 42 -3h333q103 0 160 91q41 65 50 149q3 28 30 28q12 0 12 -13l-33 -336q-6 -14 -14 -14h-1114q-8 0 -8 8zM829 1851.5q82 -98.5 82 -213.5h-33 q0 60 -80.5 126.5t-159.5 66.5t-158 -55t-79 -138h-31q0 123 79.5 217.5t188.5 94.5t191 -98.5z" />
<glyph unicode="&#x207;" horiz-adv-x="930" d="M231 527q-17 0 -17 -73q0 -155 92 -260t228.5 -105t262.5 118q2 2 5 2h5q6 0 11.5 -9.5t10.5 -12.5q-116 -141 -273 -195q-54 -19 -122 -19t-138 37.5t-120 98.5q-106 127 -106 316.5t115.5 345.5t317.5 156q145 0 237 -129.5t92 -227.5q0 -43 -21 -43h-580zM242 623 q0 -19 18 -19h377q26 0 26 31q0 72 -64.5 147.5t-141.5 75.5q-75 0 -136.5 -68t-78.5 -155v-12zM689 1354.5q82 -98.5 82 -213.5h-33q0 60 -80.5 126.5t-159.5 66.5t-158 -55t-79 -138h-31q0 123 79.5 217.5t188.5 94.5t191 -98.5z" />
<glyph unicode="&#x208;" horiz-adv-x="699" d="M252 1250q0 120 -138 120q-22 0 -22 8v24q0 8 8 8h501q8 0 8 -8v-24q0 -8 -44 -8t-81 -28t-37 -115v-1067q0 -120 139 -120q21 0 21 -8v-24q0 -8 -8 -8h-501q-8 0 -8 8v24q0 8 44 8t81 28t37 115v1067zM578 1565q-4 -4 -7 -4t-7 4l-269 217q-55 47 -55 85t20.5 60.5 t55.5 22.5t71 -49l213 -295q4 -4 4 -6t-4 -6zM279 1565q-4 -4 -7 -4t-7 4l-269 217q-55 47 -55 85t20.5 60.5t55.5 22.5t71 -49l213 -295q4 -4 4 -6t-4 -6z" />
<glyph unicode="&#x209;" horiz-adv-x="576" d="M479 38q47 -6 47 -24q0 -12 -10 -14h-446q-10 2 -10 14q0 18 47 24q108 16 108 114v529q0 42 -46 58q-20 7 -43 11.5t-36.5 8.5t-17 7.5t-3.5 15t15 19.5l255 120q12 6 15 6q17 0 17 -24v-751q0 -98 108 -114zM179 1067q-4 -4 -7 -4t-7 4l-269 217q-55 47 -55 85 t20.5 60.5t55.5 22.5t71 -49l213 -295q4 -4 4 -6t-4 -6zM478 1067q-4 -4 -7 -4t-7 4l-269 217q-55 47 -55 85t20.5 60.5t55.5 22.5t71 -49l213 -295q4 -4 4 -6t-4 -6z" />
<glyph unicode="&#x20a;" horiz-adv-x="699" d="M252 1250q0 120 -138 120q-22 0 -22 8v24q0 8 8 8h501q8 0 8 -8v-24q0 -8 -44 -8t-81 -28t-37 -115v-1067q0 -120 139 -120q21 0 21 -8v-24q0 -8 -8 -8h-501q-8 0 -8 8v24q0 8 44 8t81 28t37 115v1067zM542 1851.5q82 -98.5 82 -213.5h-33q0 60 -80.5 126.5t-159.5 66.5 t-158 -55t-79 -138h-31q0 123 79.5 217.5t188.5 94.5t191 -98.5z" />
<glyph unicode="&#x20b;" horiz-adv-x="576" d="M479 38q47 -6 47 -24q0 -12 -10 -14h-446q-10 2 -10 14q0 18 47 24q108 16 108 114v529q0 42 -46 58q-20 7 -43 11.5t-36.5 8.5t-17 7.5t-3.5 15t15 19.5l255 120q12 6 15 6q17 0 17 -24v-751q0 -98 108 -114zM476 1354.5q82 -98.5 82 -213.5h-33q0 60 -80.5 126.5 t-159.5 66.5t-158 -55t-79 -138h-31q0 123 79.5 217.5t188.5 94.5t191 -98.5z" />
<glyph unicode="&#x20c;" horiz-adv-x="1770" d="M1092 3q-103 -30 -183 -30q-164 0 -313 53q-204 74 -328 219q-158 185 -158 469q0 205 105 373.5t290.5 266.5t399 98t382.5 -95t271 -261t102 -359.5t-101 -368t-277 -282.5q-87 -53 -190 -83zM393.5 416.5q73.5 -163.5 210.5 -266.5t317 -103q256 0 399 196 q129 177 129 452t-158 474q-77 97 -188.5 155.5t-225 58.5t-186 -25t-131.5 -68.5t-104 -103.5t-75 -130q-61 -144 -61 -310t73.5 -329.5zM778 1565q-4 -4 -7 -4t-7 4l-269 217q-55 47 -55 85t20.5 60.5t55.5 22.5t71 -49l213 -295q4 -4 4 -6t-4 -6zM1078 1565q-4 -4 -7 -4 t-7 4l-269 217q-55 47 -55 85t20.5 60.5t55.5 22.5t71 -49l213 -295q4 -4 4 -6t-4 -6z" />
<glyph unicode="&#x20d;" horiz-adv-x="1107" d="M214.5 787.5q139.5 141.5 334.5 141.5t339 -137.5t144 -339.5t-136.5 -340.5t-342.5 -138.5t-342 140t-136 336.5t139.5 338zM324 192q98 -165 267 -165q131 0 200.5 105t69.5 258t-97.5 314t-262.5 161q-121 0 -190.5 -104.5t-69.5 -265t83 -303.5zM728 1067 q-4 -4 -7 -4t-7 4l-269 217q-55 47 -55 85t20.5 60.5t55.5 22.5t71 -49l213 -295q4 -4 4 -6t-4 -6zM429 1067q-4 -4 -7 -4t-7 4l-269 217q-55 47 -55 85t20.5 60.5t55.5 22.5t71 -49l213 -295q4 -4 4 -6t-4 -6z" />
<glyph unicode="&#x20e;" horiz-adv-x="1770" d="M1092 3q-103 -30 -183 -30q-164 0 -313 53q-204 74 -328 219q-158 185 -158 469q0 205 105 373.5t290.5 266.5t399 98t382.5 -95t271 -261t102 -359.5t-101 -368t-277 -282.5q-87 -53 -190 -83zM393.5 416.5q73.5 -163.5 210.5 -266.5t317 -103q256 0 399 196 q129 177 129 452t-158 474q-77 97 -188.5 155.5t-225 58.5t-186 -25t-131.5 -68.5t-104 -103.5t-75 -130q-61 -144 -61 -310t73.5 -329.5zM1069 1851.5q82 -98.5 82 -213.5h-33q0 60 -80.5 126.5t-159.5 66.5t-158 -55t-79 -138h-31q0 123 79.5 217.5t188.5 94.5t191 -98.5z " />
<glyph unicode="&#x20f;" horiz-adv-x="1107" d="M214.5 787.5q139.5 141.5 334.5 141.5t339 -137.5t144 -339.5t-136.5 -340.5t-342.5 -138.5t-342 140t-136 336.5t139.5 338zM324 192q98 -165 267 -165q131 0 200.5 105t69.5 258t-97.5 314t-262.5 161q-121 0 -190.5 -104.5t-69.5 -265t83 -303.5zM719 1354.5 q82 -98.5 82 -213.5h-33q0 60 -80.5 126.5t-159.5 66.5t-158 -55t-79 -138h-31q0 123 79.5 217.5t188.5 94.5t191 -98.5z" />
<glyph unicode="&#x210;" horiz-adv-x="1419" d="M52 0q-8 0 -8 20v12q0 8 8 8q6 0 19 2t27 4t26 4.5t17 3.5q102 23 102 116v1056q0 86 -69 122q-41 22 -88 22h-38q-8 0 -8 8v24q0 8 12 8l549 15h101q177 -12 296.5 -128.5t119.5 -287t-142 -265.5q-44 -29 -95 -52l303 -495q79 -130 212 -183q11 -3 11 -14 q0 -25 -33 -25q-225 0 -358 171q-29 38 -58 85l-259 406l-238 11h-8q-15 0 -15 -14v-461q0 -55 31 -82t107 -37q20 -3 49 -8.5t39.5 -5.5t10.5 -8v-24q0 -8 -8 -8h-615zM493.5 1371.5q-13.5 -0.5 -34.5 -1t-21 -16.5v-606l2 -30q3 -21 19 -22l102 -6q281 0 339 200 q19 63 19 144q0 158 -98.5 249t-251.5 91q-14 0 -26 -0.5l-24 -1t-25.5 -1zM878 1565q-4 -4 -7 -4t-7 4l-269 217q-55 47 -55 85t20.5 60.5t55.5 22.5t71 -49l213 -295q4 -4 4 -6t-4 -6zM578 1565q-4 -4 -7 -4t-7 4l-269 217q-55 47 -55 85t20.5 60.5t55.5 22.5t71 -49 l213 -295q4 -4 4 -6t-4 -6z" />
<glyph unicode="&#x211;" horiz-adv-x="747" d="M678 717q-12 2 -35 13q-83 38 -130 38t-98.5 -58.5t-51.5 -105.5v-452q0 -75 87 -100q38 -10 71 -14.5t42.5 -8.5t9.5 -15.5t-10 -13.5h-501q-10 2 -10 14q0 18 47 24q108 16 108 114v529q0 42 -46 58q-20 7 -43 11.5t-36.5 8.5t-17 7.5t-3.5 15t15 19.5l255 120 q12 6 15 6q17 0 17 -24v-162q0 -12 6 -12q8 0 41 47q95 133 157 133q35 0 107.5 -28t72.5 -47q0 -23 -23 -70t-46 -47zM379 1067q-4 -4 -7 -4t-7 4l-269 217q-55 47 -55 85t20.5 60.5t55.5 22.5t71 -49l213 -295q4 -4 4 -6t-4 -6zM678 1067q-4 -4 -7 -4t-7 4l-269 217 q-55 47 -55 85t20.5 60.5t55.5 22.5t71 -49l213 -295q4 -4 4 -6t-4 -6z" />
</font>
</defs>
</svg>
